<svg xmlns="http://www.w3.org/2000/svg" width="838" height="731.611" viewBox="0 0 838 731.611"><defs><style>.a{fill:#161616;}.b{fill:#e8e8e8;}.c{fill:#5222d0;}.d{fill:#ec615b;}.e{fill:#fff;}.f,.g,.h,.i,.j,.k,.l{fill:#353535;}.f{opacity:0.09;}.g{opacity:0.15;}.h{opacity:0.13;}.i{opacity:0.1;}.j{opacity:0.12;}.k{opacity:0.08;}.l{opacity:0.11;}</style></defs><g transform="translate(-213.902 -39.075)"><g transform="translate(273.156 697.744)"><g transform="translate(68.333)"><path class="a" d="M406.432,1030.13c38.823,0,74.915,16.315,112.939,21.642,36.958,5.128,73.517-3.33,109.876-9.057,18.313-2.863,36.825-5.127,55.4-4.195,19.178,1,36.958,6.193,54.405,13.918,15.782,7.058,31.231,15.249,47.946,19.977,15.915,4.528,32.3,4.728,48.545,1.864,38.223-6.726,73.383-27.569,112.872-27.369a1,1,0,0,0,0-2c-34.561-.2-66.058,15.583-98.821,24.173-17.047,4.462-34.827,6.859-52.274,3.663-17.647-3.2-33.9-11.321-50.01-18.779-15.982-7.392-32.164-13.851-49.744-16.249-18.113-2.464-36.425-1.4-54.472,1-36.625,4.728-73.051,14.717-110.209,12.453-42.951-2.664-82.973-22.974-126.324-22.974a.968.968,0,1,0-.133,1.931Z" transform="translate(-405.499 -1028.198)"/></g><g transform="translate(14.518 1.585)"><path class="a" d="M325.894,1038.917a118.96,118.96,0,0,1,24.439-6.393c1.265-.2.733-2.131-.533-1.931a111.051,111.051,0,0,0-24.439,6.393c-1.2.466-.666,2.4.533,1.931Z" transform="translate(-324.685 -1030.578)"/></g><g transform="translate(0 17.646)"><path class="a" d="M304.36,1064.288c44.616-19.644,92.762,2.531,136.379,13.785a198.93,198.93,0,0,0,39.089,6.526c1.265.066,1.265-1.931,0-2-48.079-2.6-91.763-29.433-140.441-27.835a96.63,96.63,0,0,0-35.959,7.858c-1.2.466-.2,2.2.932,1.664Z" transform="translate(-302.884 -1054.697)"/></g><g transform="translate(206.771 40.844)"><path class="a" d="M614.662,1112.551c10.255-1.531,19.977-4.928,29.766-8.257a254.719,254.719,0,0,1,29.5-8.124,231.358,231.358,0,0,1,98.955,1.332c1.265.266,1.8-1.665.533-1.931a234.889,234.889,0,0,0-124.925,5.261c-11.387,3.662-22.508,7.991-34.428,9.789-1.2.2-.666,2.131.6,1.931Z" transform="translate(-613.391 -1089.532)"/></g><g transform="translate(446.142 32.689)"><path class="a" d="M973.351,1111.191c13.851,7.125,29.7,7.258,44.816,5.194,17.514-2.331,34.694-6.992,51.675-12.053,33.762-10.055,67.391-22.308,102.884-24.439,19.511-1.2,39.156.866,57.468,7.858,1.2.466,1.731-1.465.533-1.931-67.058-25.7-134.98,13.651-200.107,26.437-18.446,3.6-38.889,6.06-56.2-2.864-1.2-.533-2.2,1.2-1.066,1.8Z" transform="translate(-972.855 -1077.287)"/></g><g transform="translate(650.008 17.547)"><path class="a" d="M1280,1056.58a100.068,100.068,0,0,1,43.95,8.79c1.132.533,2.2-1.2,1-1.731a102.353,102.353,0,0,0-44.949-9.056c-1.332.066-1.332,2.064,0,2Z" transform="translate(-1279 -1054.548)"/></g></g><g transform="translate(233.462 364.618)"><g transform="translate(203.193 223.334)"><path class="b" d="M565.184,994.026a54.955,54.955,0,0,1-11.853-19.045,55.643,55.643,0,0,1-2.531-9.789c-.333-2-1.665-7.591,2.93-6.326,1.8.533,3.862,3.33,4.861,4.795.732,1.065,2.464.067,1.731-1a53.408,53.408,0,0,1-7.658-16.381A58.619,58.619,0,0,1,551,937.224c-.133-1.465-.2-2.93-.2-4.462,0-.732,0-1.465.067-2.2a3.274,3.274,0,0,1,2.131-3.4c.666-.2,1.265-.333,1.931-.533a46.369,46.369,0,0,1-2.4-8.391c-.266-1.6-.466-3.263-.6-4.928,0-.2.133-6.326,1.2-5.194a1,1,0,0,0,1.665-1,64.421,64.421,0,0,1-1.665-33.162c.466-2.131.866-5.261,2.4-6.992,2-2.264,4.861-1.065,6.326,1.065a17.682,17.682,0,0,1,2.064,4.4c1.665,5.061,2.264,10.521,3.263,15.716,4.328,22.708,8.457,45.482,10.855,68.522a379.468,379.468,0,0,1,2.131,38.889,1,1,0,0,0,2,0c0-26.969-3.463-53.806-7.991-80.375-2.264-13.119-4.528-26.37-7.325-39.422-.932-4.262-2.464-10.388-7.059-12.12-3.4-1.265-5.86,1.465-6.992,4.395-4.728,12.253-3.729,27.236.133,39.555.533-.333,1.132-.666,1.665-1-2.464-2.53-4.462.732-4.661,3.063-.466,5.793,1,11.987,3.063,17.314.466,1.2,2.331.733,1.931-.533a2.783,2.783,0,0,0-4.528-1.2c-2.664,2.2-1.665,8.39-1.4,11.254a55.193,55.193,0,0,0,9.589,26.969c.6-.333,1.132-.666,1.731-1-1.731-2.464-5.794-7.591-9.389-6.193-3.663,1.4-2.4,7.059-1.931,9.856a56.12,56.12,0,0,0,14.783,29.167.945.945,0,1,0,1.4-1.265Z" transform="translate(-548.409 -863.323)"/></g><g transform="translate(232.154 225.974)"><path class="b" d="M593.964,946.539a98.376,98.376,0,0,1,1.865-19.312c.533-2.464,3.729-18.379,6.593-17.913.466.066,1.132-.133,1.2-.666a130.44,130.44,0,0,1,5.66-20.71c2.4-6.393,5.061-14.65,10.588-19.045h-1.4c3.529,3.862,2.531,10.854,2.6,15.716,0,5.327-.133,10.654-.466,16.048a330.313,330.313,0,0,1-3.8,33.5c-3.463,21.642-8.657,43.018-13.918,64.327a1,1,0,0,0,1.931.533c5.727-22.974,11.254-45.948,14.717-69.388A313.737,313.737,0,0,0,622.8,896.2c.266-5.993.333-11.987.133-17.98-.133-3.862-.333-7.725-3.063-10.655a1.027,1.027,0,0,0-1.4,0c-5.327,4.2-7.858,11.52-10.255,17.647a125.509,125.509,0,0,0-6.526,22.974c.4-.2.8-.466,1.2-.666-2.064-.333-3.13.866-4,2.664a66.851,66.851,0,0,0-3.929,11.853,96.6,96.6,0,0,0-3.063,24.705c.066,1.065,2.064,1.065,2.064-.2Z" transform="translate(-591.9 -867.287)"/></g><g transform="translate(518.837 244.768)"><g transform="translate(0)"><path class="b" d="M1037.454,1029.019a95.73,95.73,0,0,1-8.324-17.247,87.485,87.485,0,0,1-2.6-8.391c-.4-1.531-.733-3.063-1.066-4.595-.133-.733-.333-1.531-.466-2.331-.666-1.6,0-2.664,1.931-3.2.666-.067,1.332-.2,1.931-.266a69.934,69.934,0,0,1-3.729-15.249,60.234,60.234,0,0,1-.533-7.725c0-1.265.932-7.392.2-8.191a1.025,1.025,0,0,0,1.731-.733,99.288,99.288,0,0,1,1.265-18.845c.466-2.863,1.132-5.66,1.865-8.457l1.2-4.2c.266-.8.533-1.6.8-2.331.266-1.732,1.332-2.464,3.329-2.131.4,1,2,.932,1.931-.266a52.718,52.718,0,0,1,3.263-19.245c.6-1.532,2.531-7.725,4.795-7.858,2.93-.133,3,7.791,3.13,9.389,1.132,13.118,2,26.3,2.464,39.489q1.5,40.254-.866,80.442c-.067,1.265,1.931,1.265,2,0q2.1-35.26,1.2-70.52c-.333-11.653-.866-23.307-1.665-34.894-.4-5.727-.8-11.387-1.4-17.114-.333-3.529-1-6.792-4.062-8.923a1.062,1.062,0,0,0-1,0c-4.328,2.064-5.993,7.392-7.325,11.72a55.907,55.907,0,0,0-2.531,17.58c.666-.067,1.332-.2,1.931-.266a3.113,3.113,0,0,0-4.4-1.731c-2.93,1.332-3.662,6.593-4.462,9.189a97.254,97.254,0,0,0-3.529,29.034c.6-.266,1.132-.466,1.731-.733l-.333-.333a.926.926,0,0,0-1-.266c-1.465.533-1.8,1.465-2.064,2.93a46.1,46.1,0,0,0-.133,10.921,72.366,72.366,0,0,0,4.262,19.844c.333,1,2.064.932,1.931-.266a2.841,2.841,0,0,0-4.328-2.131c-3.13,1.665-1.4,6.792-.866,9.323a98.254,98.254,0,0,0,11.987,29.5c.733,1.132,2.464.133,1.8-.932Z" transform="translate(-1022.412 -895.51)"/></g></g><g transform="translate(547.993 255.309)"><g transform="translate(0)"><path class="b" d="M1068.13,984.364a47.774,47.774,0,0,1,1-10.655,38.316,38.316,0,0,1,1.332-4.728c.2-.533,2.331-6.659,3.6-4.795a1.013,1.013,0,0,0,1.865-.533,41.326,41.326,0,0,1,1.4-8.59c.333-1.2,3.263-9.523,4.595-8.723a1.022,1.022,0,0,0,1.532-.866,49.267,49.267,0,0,1,4.129-16.914,45.2,45.2,0,0,1,4.128-7.458c1.265-1.931,3.2-5.194,5.194-6.46,5.194-3.329,4.262,4.795,4.2,7.192-.133,3-.333,5.993-.533,9.056-.466,6.46-1.132,12.852-2,19.245-3.463,26.037-9.589,51.608-15.649,77.113a1,1,0,0,0,1.931.533c5.727-23.906,11.453-47.879,14.983-72.251a341.262,341.262,0,0,0,3.33-34.961c.133-2.8.533-7.325-2.531-8.857-3.2-1.6-5.86,2.331-7.592,4.395a51.946,51.946,0,0,0-11.587,29.5c.533-.266,1-.6,1.532-.866-5.727-3.663-8.857,16.048-8.99,19.045.6-.2,1.266-.333,1.865-.533-2.264-3.329-5.127-.066-6.193,2.4a47.718,47.718,0,0,0-3.463,18.779c-.067,1.2,1.931,1.2,1.931-.067Z" transform="translate(-1066.196 -911.34)"/></g></g><g transform="translate(54.311 294.327)"><path class="b" d="M342.325,1009.932a14.728,14.728,0,0,1-6.859-4.995,15.583,15.583,0,0,1-1.8-3.662c-.133-.266-1.4-4.328.2-3.529a1.008,1.008,0,0,0,1.2-1.6,38.879,38.879,0,0,1-7.458-15.583c-.333-1.531-1.132-3.729-.8-5.26.666-3.063,3.729-3.463,5.727-1.532a44.583,44.583,0,0,1,5.66,7.059,65.142,65.142,0,0,1,11.121,30.233c.133,1.265,2.131,1.265,2,0a67.9,67.9,0,0,0-5.727-21.309c-2.863-6.259-7.059-13.851-12.519-18.179-1.8-1.4-4.329-2.331-6.393-1-2.4,1.465-1.865,4.728-1.6,7.059a40.676,40.676,0,0,0,8.59,20.044l1.2-1.6a2.551,2.551,0,0,0-3.263.466c-1.4,1.532-.533,3.662.133,5.328A16.535,16.535,0,0,0,341.726,1012c1.265.333,1.8-1.6.6-2.064Z" transform="translate(-324.834 -969.933)"/></g><g transform="translate(64.176 259.351)"><path class="b" d="M349.472,970.809c-2.73-10.388-5.394-20.51-6.726-31.165-.333-2.531-.666-5.127-.866-7.658-.2-2.6-.866-6.393-.2-8.923,0-.4.067-.866.067-1.265,2.064-2.264,3.6-2.4,4.595-.266a19.834,19.834,0,0,1,1.6,2.863c1.265,2.2,2.4,4.462,3.463,6.792a127.469,127.469,0,0,1,12.186,60.132c-.067,1.265,1.931,1.265,2,0,1.066-24.039-4.528-49.277-17.047-69.921-1.531-2.53-5.261-5.993-7.858-2.53-1.132,1.465-1,3.862-1,5.594a66.178,66.178,0,0,0,.533,10.255,165.868,165.868,0,0,0,2.6,18.046c1.4,6.326,3.2,12.519,4.861,18.779.2,1,2.131.466,1.8-.732Z" transform="translate(-339.648 -917.409)"/></g><g transform="translate(31.706 148.002)"><path class="b" d="M291.895,758.856c44.017-1.065,86.9,10.055,128.654,22.907s83.173,27.769,126.457,34.894a275.052,275.052,0,0,0,65.726,3.329c24.173-1.8,47.946-6.726,71.386-12.719,23.906-6.126,47.546-13.252,71.452-19.578,23.973-6.393,48.079-12.186,72.385-17.181,49.078-10.122,98.955-16.914,149.164-18.113,6.06-.133,12.186-.2,18.246-.2a1,1,0,0,0,0-2c-49.211-.133-98.289,5.327-146.7,14.25-48.811,9.056-96.491,22.175-144.3,35.36-23.707,6.592-47.613,12.652-71.985,16.115a273.586,273.586,0,0,1-69.988.932c-43.817-5.061-85.836-19.445-127.656-32.7-41.287-13.052-83.439-25.5-126.923-27.169-5.327-.2-10.655-.2-15.982-.067a.966.966,0,1,0,.067,1.931Z" transform="translate(-290.887 -750.197)"/></g><g transform="translate(464.98 88.905)"><path class="b" d="M942.777,739.462c45.482-12.519,89.831-28.568,134.847-42.685,44.883-14.117,90.7-26.437,137.644-31.231a366.523,366.523,0,0,1,78.778,0c1.265.133,1.265-1.865,0-2-46.481-5.261-93.428-.133-138.91,9.922-46.148,10.188-90.9,25.438-135.713,40.221-25.571,8.457-51.142,16.714-77.113,23.84a.993.993,0,1,0,.466,1.931Z" transform="translate(-941.535 -661.451)"/></g><g transform="translate(319.069 233.196)"><path class="b" d="M723.139,917.6c17.047,3.929,34.628,2.131,51.675-1,17.846-3.263,35.36-7.924,52.873-12.852,35.293-9.855,70.387-19.911,107.079-22.708a346.521,346.521,0,0,1,62.2,1.065c1.265.133,1.265-1.865,0-2A341.91,341.91,0,0,0,889.617,885.5c-35.094,7.392-69.055,19.378-104.082,26.9-20.177,4.328-41.353,7.991-61.8,3.263-1.332-.266-1.865,1.665-.6,1.931Z" transform="translate(-722.42 -878.132)"/></g><g transform="translate(649.839 283.379)"><g transform="translate(0)"><path class="b" d="M1220.111,955.695c44.616-2.4,85.9,17.514,128.721,26.57a191.008,191.008,0,0,0,36.359,4.395,1,1,0,0,0,0-2c-44.55-.733-85.37-21.176-128.787-28.568a161.586,161.586,0,0,0-36.292-2.4c-1.266.133-1.332,2.131,0,2Z" transform="translate(-1219.137 -953.492)"/></g></g><g transform="translate(0 78.046)"><path class="b" d="M244.224,647.179A354.139,354.139,0,0,1,415.5,688.532c1.132.6,2.131-1.132,1-1.731a358.708,358.708,0,0,0-132.117-39.888,351.52,351.52,0,0,0-40.155-1.731,1,1,0,0,0,0,2Z" transform="translate(-243.275 -645.143)"/></g><g transform="translate(46.754)"><path class="b" d="M314.161,529.912c36.425,9.123,69.654,27.036,104.082,41.62A425.066,425.066,0,0,0,526.854,601.5a423.009,423.009,0,0,0,63.595,3.8,1,1,0,0,0,0-2,422.221,422.221,0,0,1-113.671-13.784,418.435,418.435,0,0,1-53.34-17.979c-17.247-7.125-34.161-15.249-51.209-22.774-18.712-8.257-37.691-15.849-57.535-20.776a1,1,0,0,0-.533,1.931Z" transform="translate(-313.485 -527.942)"/></g><g transform="translate(294.94 59.29)"><path class="b" d="M686.861,674.661c34.561,13.318,72.518,6.06,106.413-5.66,18.246-6.326,35.959-13.918,54.072-20.51q26.67-9.689,54.139-16.781a587.58,587.58,0,0,1,64.327-12.785c1.265-.2.733-2.131-.533-1.931a590.3,590.3,0,0,0-110.142,26.637c-35.16,12.186-69.188,29.433-106.413,34.694-20.577,2.93-41.819,1.931-61.331-5.594-1.2-.466-1.731,1.465-.533,1.931Z" transform="translate(-686.185 -616.978)"/></g></g><g transform="translate(213.902 59.002)"><ellipse class="c" cx="6.792" cy="6.659" rx="6.792" ry="6.659" transform="translate(182.259 290.937)"/><ellipse class="c" cx="5.194" cy="5.061" rx="5.194" ry="5.061" transform="translate(443.497 381.968)"/><ellipse class="c" cx="3.463" cy="3.396" rx="3.463" ry="3.396" transform="translate(563.161 20.71)"/><ellipse class="c" cx="4.994" cy="4.861" rx="4.994" ry="4.861" transform="translate(189.051 479.124)"/><circle class="c" cx="1.199" cy="1.199" r="1.199" transform="translate(623.626 256.709)"/><ellipse class="d" cx="6.593" cy="6.459" rx="6.593" ry="6.459" transform="translate(169.007 281.082)"/><ellipse class="d" cy="2.064" ry="2.064" transform="translate(182.192 272.225)"/><ellipse class="d" cx="2.264" cy="2.198" rx="2.264" ry="2.198" transform="translate(199.04 463.009)"/><ellipse class="d" cx="4.928" cy="4.795" rx="4.928" ry="4.795" transform="translate(74.914 97.623)"/><ellipse class="d" cy="0.799" ry="0.799" transform="translate(553.905 0)"/><ellipse class="d" cx="4.928" cy="4.795" rx="4.928" ry="4.795" transform="translate(578.211 206.5)"/><ellipse class="d" cx="4.129" cy="3.995" rx="4.129" ry="3.995" transform="translate(598.921 190.185)"/><g transform="translate(146.17 391.222)"><path class="d" d="M440.793,656.5c-6.126.133-8.723,8.657-6.726,13.718.932,2.331,3,2.93,5.327,2.53a14.8,14.8,0,0,1,2.464-.6c3.13.2,3.063,2.131,2.131,4a16.734,16.734,0,0,0-1.731,3.862c-.4,1.864-.067,3.929,1.865,4.728,1.065.466,2.331-.333,3.263,0,3.329,1.065.666,5.261.4,7.325-.266,2.264.333,4.861,2.53,5.927a3.911,3.911,0,0,0,5.261-1.6c.6-1.132-1.132-2.131-1.731-1-2.264,1.8-3.6,1.132-4.129-2.131a8.9,8.9,0,0,1,.4-2.664,31.8,31.8,0,0,0,1.132-4.328,3.711,3.711,0,0,0-.8-3c-1.6-1.465-5.46.666-6.326-1.931-.533-1.6,1.865-4.262,2.331-5.727.932-2.863-.2-5.727-3.6-5.66-2.8.067-6.126,2.93-7.125-2.064-.733-3.463.932-9.389,5.194-9.456a.969.969,0,0,0-.133-1.931Z" transform="translate(-433.405 -656.497)"/></g><g transform="translate(508.72 325.297)"><path class="d" d="M993.8,557.5a15.367,15.367,0,0,0-14.583,11.454c-1.4,5.793,2.2,12.719,8.79,9.123,2.331-1.265,4.661-3.529,5.061-6.326.266-2.2-1.132-4.062-3.463-3.862-3.263.266-6.26,4.129-7.991,6.526-2,2.73-4.062,6.526-3.729,10.055.666,6.06,9.39,7.259,12.453,2.464.533-.8-.533-2-1.4-1.4-4.595,3.529-9.389,9.323-7.591,15.582,1.4,4.928,6.726,8.457,11.72,6.726,1.2-.4.666-2.331-.533-1.931-4.461,1.531-9.123-2.2-9.522-6.726-.4-4.861,3.263-9.123,6.925-11.92l-1.4-1.4a5.052,5.052,0,0,1-6.526,1.465c-3.13-1.665-2.264-5.261-1.065-7.924a22.533,22.533,0,0,1,4.129-6.126c.666-.733,2.4-2.73,3.33-2.863.866.2,1.8.466,2.664.666a4.883,4.883,0,0,1-.8,2.331c-1.8,2.93-6.326,5.261-8.79,1.865-1.665-2.2-.6-6.326.533-8.524a13.4,13.4,0,0,1,11.653-7.258c1.4-.067,1.4-2.064.133-2Z" transform="translate(-977.847 -557.498)"/></g><g transform="translate(0 220.907)"><path class="d" d="M215.565,404.241a3.915,3.915,0,0,1,6.859,1.265c.666,1.8.6,3.33,2.264,4.595,3,2.264,6.992.533,10.189-.133,8.324-1.665,5.594,6.659,10.322,9.922,2.064,1.465,5.194,1.065,6.26-1.332.533-1.132-1.2-2.2-1.731-1-1.731,3.862-4.928-1.132-5.461-2.664-.333-.932-.533-1.865-.932-2.73a7.674,7.674,0,0,0-2.73-3.6c-3.729-2.331-7.858.533-11.654.6-4.062.133-3.662-2.664-5.061-5.394a5.471,5.471,0,0,0-2.863-2.6,5.912,5.912,0,0,0-6.859,1.665c-.866,1,.6,2.4,1.4,1.4Z" transform="translate(-213.902 -400.735)"/></g><g transform="translate(7.118 238.793)"><path class="d" d="M226.262,432.06c4.2-4.528,10.255-2.4,12.719,2.531,1.532,3.063,2.6,6.393,5.927,7.924,5.061,2.331,11.653-.266,13.385-5.527.4-1.2-1.532-1.731-1.931-.533-1.265,3.862-5.927,5.727-9.656,4.595-4.595-1.332-4.928-6.593-7.458-9.922-3.463-4.595-10.521-4.661-14.384-.466-.866.932.533,2.331,1.4,1.4Z" transform="translate(-224.591 -427.595)"/></g><g transform="translate(479.716 528.312)"><path class="c" d="M935.962,869.713c2.464-2.863,5.794-2.8,8.79-.8,1,.666,2,1.332,3.263.866,1.6-.6,1.865-2.73,3-3.8a6.652,6.652,0,0,1,8.59-.2c1,.8,2.4-.6,1.4-1.4-3.6-3-9.522-2.73-12.386,1.265-.266.4-.6,1.465-.932,1.665-1.532,1-2.131-.533-3.13-.932a10.986,10.986,0,0,0-3.2-.932,8.162,8.162,0,0,0-6.859,2.863c-.732.932.666,2.331,1.465,1.4Z" transform="translate(-934.291 -862.365)"/></g><g transform="translate(498.99 529.41)"><path class="c" d="M965.143,873.661c4.528-6.726,20.909,2.4,22.574-8.391.2-1.265-1.732-1.8-1.931-.533-.866,5.66-8.723,4.328-12.719,4.2-3.729-.067-7.458.466-9.656,3.729-.733,1.066,1,2.064,1.731,1Z" transform="translate(-963.234 -864.014)"/></g><g transform="translate(146.083 554.062)"><path class="c" d="M435.156,914a33.472,33.472,0,0,1,10.322-11.054c1.065-.733.067-2.464-1-1.732A37.382,37.382,0,0,0,433.425,913c-.666,1.066,1.065,2.064,1.731,1Z" transform="translate(-433.275 -901.034)"/></g><g transform="translate(155.966 554.662)"><path class="c" d="M449.57,911.1c3.529-2.4,7.059-4.861,10.588-7.258,1.066-.733.067-2.464-1-1.731-3.529,2.4-7.059,4.861-10.588,7.259-1.066.732-.067,2.464,1,1.731Z" transform="translate(-448.116 -901.934)"/></g></g><g transform="translate(297.933 39.075)"><g transform="translate(0)"><g transform="translate(9.352 15.108)"><path class="b" d="M415.842,62.72a323.172,323.172,0,0,1-38.357,148.5,321.3,321.3,0,0,1-23.174,36.958c-.733,1.065,1,2.064,1.731,1a326.984,326.984,0,0,0,58.334-143.1,327.062,327.062,0,0,0,3.463-43.418c.066-1.2-1.931-1.2-2,.067Z" transform="translate(-354.134 -61.762)"/></g><g transform="translate(78.927 16.421)"><path class="b" d="M459.072,65.576c32.5,19.911,72.718,26.037,109.809,17.713a142.553,142.553,0,0,0,30.366-10.521c1.132-.533.133-2.264-1-1.731-33.762,16.115-73.65,18.113-109.077,6.393a141,141,0,0,1-29.1-13.518c-1.065-.733-2.064,1-1,1.665Z" transform="translate(-458.616 -63.734)"/></g><g transform="translate(235.922 23.534)"><path class="b" d="M694.525,75.87c14.184,22.508,36.759,39.156,62.2,46.747,30.7,9.19,63.794,3.13,94.027-4.994,16.847-4.528,33.3-10.721,47.946-20.177,1.065-.666.067-2.4-1-1.731-12.919,8.257-27.1,14.051-41.753,18.379a297.912,297.912,0,0,1-47.013,9.856c-15.25,1.865-30.765,1.865-45.748-1.665a111.133,111.133,0,0,1-35.626-15.516,107.466,107.466,0,0,1-31.3-31.9c-.666-1.065-2.4-.067-1.731,1Z" transform="translate(-694.375 -74.416)"/></g><g transform="translate(440.851 47.168)"><path class="b" d="M1009.364,110.635c-4.661,25.438-8.257,52.074-6.992,77.978,1,21.243,6.793,43.417,24.106,57.135,10.322,8.191,22.907,12.719,35.227,17.114,1.2.466,1.731-1.465.533-1.931-10.854-3.929-21.975-7.858-31.5-14.517a56.659,56.659,0,0,1-20.044-25.438c-8.191-20.111-7.125-42.951-5.46-64.194a458.5,458.5,0,0,1,5.993-45.682c.267-1.2-1.665-1.731-1.864-.466Z" transform="translate(-1002.115 -109.907)"/></g><g transform="translate(13.933 211.962)"><path class="b" d="M361.737,359.324c49.677,7.791,95.492,36.226,124.725,77.179a175.9,175.9,0,0,1,20.244,37.091c.466,1.2,2.4.666,1.931-.533-18.646-47.013-57.6-84.571-104.149-103.816a187,187,0,0,0-42.219-11.853c-1.265-.2-1.8,1.731-.533,1.931Z" transform="translate(-361.014 -357.378)"/></g><g transform="translate(170.735 307.838)"><path class="b" d="M598.226,523.36c23.506-18.246,54.671-22.774,83.505-18.512,30.765,4.528,58.667,19.312,83.839,37.025,15.183,10.655,29.5,22.441,43.817,34.228,1,.8,2.4-.6,1.4-1.4-25.837-21.309-52.074-42.885-82.506-57.335-27.169-12.919-57.8-19.378-87.767-14.251a98.626,98.626,0,0,0-43.684,18.779c-1,.866.4,2.264,1.4,1.465Z" transform="translate(-596.484 -501.354)"/></g><g transform="translate(380.816 225.689)"><path class="b" d="M913.919,522.567c11.453-49.477,42.685-93.428,84.5-122A203.858,203.858,0,0,1,1036.713,380c1.2-.466.666-2.4-.533-1.931A211.53,211.53,0,0,0,926.3,481.28a197.526,197.526,0,0,0-14.317,40.754c-.266,1.265,1.665,1.8,1.931.533Z" transform="translate(-911.962 -377.992)"/></g><g transform="translate(81.852 250.076)"><path class="a" d="M463.535,416.4c9.989,4.262,17.513,12.719,24.639,20.643a249.445,249.445,0,0,1,20.444,26.037,237.946,237.946,0,0,1,28.7,57.468c.4,1.2,2.331.666,1.931-.533a243.973,243.973,0,0,0-29.567-58.867,247.033,247.033,0,0,0-20.111-25.5c-7.258-7.991-14.916-16.648-25.038-20.91-1.132-.6-2.2,1.132-1,1.665Z" transform="translate(-463.008 -414.613)"/></g><g transform="translate(233.791 34.159)"><path class="a" d="M691.325,91.856A86.562,86.562,0,0,0,739.4,128.681c1.265.4,1.732-1.532.533-1.931a83.987,83.987,0,0,1-46.88-35.893c-.666-1.132-2.4-.067-1.731,1Z" transform="translate(-691.175 -90.372)"/></g><g transform="translate(71.802)"><path class="a" d="M448.372,40.956a92.772,92.772,0,0,0,73.25,13.118,1,1,0,0,0-.533-1.931A90.7,90.7,0,0,1,449.37,39.225c-1.065-.666-2.064,1.065-1,1.731Z" transform="translate(-447.916 -39.075)"/></g><g transform="translate(0 148.35)"><path class="a" d="M341.762,301.972a204.817,204.817,0,0,0,27.569-38.623c.6-1.132-1.132-2.131-1.731-1a203.362,203.362,0,0,1-27.236,38.223c-.866.932.533,2.331,1.4,1.4Z" transform="translate(-340.091 -261.852)"/></g><g transform="translate(44.098 109.468)"><path class="a" d="M428.546,204.42c-.932,9.456-5.927,18.379-9.789,26.9-4,8.723-8.124,17.314-12.319,25.9-.6,1.132,1.132,2.131,1.731,1q6.992-13.984,13.451-28.3c3.729-8.191,8.124-16.515,8.99-25.571.067-1.2-1.931-1.2-2.064.067Z" transform="translate(-406.313 -203.462)"/></g><g transform="translate(374.377 263.179)"><path class="a" d="M904.3,506.349a183.319,183.319,0,0,1,48.878-70.387c.932-.866-.466-2.264-1.4-1.4a185.66,185.66,0,0,0-49.411,71.253c-.466,1.2,1.465,1.665,1.931.533Z" transform="translate(-902.292 -434.291)"/></g><g transform="translate(59.591 29.459)"><path class="d" d="M433.055,84.037c-1.132,7.125-2.331,14.251-3.463,21.376-.2,1.265,1.731,1.8,1.931.533,1.132-7.125,2.331-14.251,3.463-21.376.2-1.265-1.731-1.8-1.931-.533Z" transform="translate(-429.578 -83.314)"/></g><g transform="translate(233.17 5.733)"><path class="d" d="M690.48,49.426a160.279,160.279,0,0,0,52.341,41.02c1.132.533,2.131-1.132,1-1.731a158.685,158.685,0,0,1-51.941-40.687c-.8-1-2.2.4-1.4,1.4Z" transform="translate(-690.242 -47.684)"/></g><g transform="translate(350.368 73.566)"><g transform="translate(0 0)"><path class="d" d="M867.211,161.037a102.265,102.265,0,0,0,48.678-9.656c1.132-.533.133-2.264-1-1.731a100.625,100.625,0,0,1-47.679,9.389c-1.332-.067-1.265,1.931,0,2Z" transform="translate(-866.237 -149.549)"/></g></g><g transform="translate(409.311 25.147)"><path class="d" d="M956.249,106.246a132.626,132.626,0,0,0,37.891-27.7c.866-.932-.533-2.331-1.4-1.4a130.972,130.972,0,0,1-37.491,27.369c-1.132.533-.133,2.264,1,1.731Z" transform="translate(-954.752 -76.838)"/></g><g transform="translate(174.834 292.453)"><path class="d" d="M604.344,502.856c16.781-17.647,42.352-25.771,66.325-21.509,1.265.2,1.8-1.731.533-1.931-24.705-4.4-50.942,3.8-68.256,22.042-.932.866.466,2.331,1.4,1.4Z" transform="translate(-602.638 -478.251)"/></g><g transform="translate(27.384 203.628)"><path class="c" d="M381.937,346.819A162.12,162.12,0,0,1,422.491,361c1.132.6,2.131-1.132,1-1.731a163.266,163.266,0,0,0-41.02-14.384c-1.265-.266-1.8,1.665-.533,1.931Z" transform="translate(-381.214 -344.862)"/></g><g transform="translate(80.509 42.352)"><path class="c" d="M461,103.624a145.08,145.08,0,0,1,.466,23.44c-.067,1.265,1.931,1.265,2,0a152.938,152.938,0,0,0-.466-23.44c-.133-1.265-2.131-1.265-2,0Z" transform="translate(-460.99 -102.675)"/></g><g transform="translate(338.765 274.538)"><path class="c" d="M850.669,488.208a79.407,79.407,0,0,1,36.026-35.027c1.132-.533.133-2.264-1-1.731a80.968,80.968,0,0,0-36.758,35.76c-.6,1.132,1.132,2.2,1.731,1Z" transform="translate(-848.813 -451.349)"/></g><g transform="translate(297.48 160.252)"><path class="d" d="M788.27,287.3a31.181,31.181,0,0,1,19.778-5.527c1.265.067,1.265-1.931,0-2a32.951,32.951,0,0,0-20.776,5.86c-1.065.666-.067,2.4,1,1.665Z" transform="translate(-786.816 -279.725)"/></g><g transform="translate(314.393 147.891)"><path class="d" d="M812.937,263.119a98.23,98.23,0,0,1,16.848,5.061c1.2.466,1.731-1.465.533-1.931a98.216,98.216,0,0,0-16.848-5.061c-1.265-.266-1.8,1.665-.533,1.931Z" transform="translate(-812.214 -261.162)"/></g><g transform="translate(167.977 72.427)"><path class="d" d="M594.312,173.917A49.121,49.121,0,0,1,607.9,149.544a.989.989,0,0,0-1.4-1.4,50.538,50.538,0,0,0-14.117,25.238,1,1,0,0,0,1.931.533Z" transform="translate(-592.342 -147.838)"/></g><g transform="translate(182.855 81.404)"><path class="d" d="M616.426,180.551A103.707,103.707,0,0,1,649.588,163.3c1.2-.4.732-2.331-.533-1.931a105.765,105.765,0,0,0-34.028,17.713c-1,.866.4,2.264,1.4,1.465Z" transform="translate(-614.684 -161.319)"/></g><g transform="translate(164.481 231.145)"><path class="c" d="M587.164,387.394a30.556,30.556,0,0,1,.866,19.644,1,1,0,0,0,1.931.533,32.447,32.447,0,0,0-.866-20.71c-.466-1.2-2.4-.666-1.931.533Z" transform="translate(-587.092 -386.185)"/></g><g transform="translate(181.362 232.779)"><path class="c" d="M612.68,390.411A39.789,39.789,0,0,0,625.533,400.6c1.132.6,2.131-1.132,1-1.731a36.873,36.873,0,0,1-12.452-9.922c-.8-.932-2.2.466-1.4,1.465Z" transform="translate(-612.442 -388.64)"/></g><g transform="translate(398.482 219.691)"><path class="c" d="M938.763,370.726a14.4,14.4,0,0,1,3.6,12.12c-.2,1.265,1.731,1.8,1.931.533a16.429,16.429,0,0,0-4.129-14.051c-.866-1-2.264.4-1.4,1.4Z" transform="translate(-938.491 -368.984)"/></g><g transform="translate(415.097 216.627)"><path class="c" d="M963.68,366.126c2.464,2.8,4.861,5.527,7.325,8.324.865,1,2.264-.466,1.4-1.4-2.464-2.8-4.861-5.527-7.325-8.324-.8-1-2.2.4-1.4,1.4Z" transform="translate(-963.442 -364.384)"/></g><g transform="translate(316.856 219.629)"><path class="c" d="M817.769,391.471a67.934,67.934,0,0,1,18.046-20.643c1-.8,0-2.53-1-1.731a71.335,71.335,0,0,0-18.779,21.376c-.6,1.132,1.132,2.131,1.731,1Z" transform="translate(-815.913 -368.891)"/></g><ellipse class="d" cx="9.722" cy="9.456" rx="9.722" ry="9.456" transform="translate(550.583 79.327)"/><ellipse class="d" cy="0.666" ry="0.666" transform="translate(586.409 109.093)"/><ellipse class="c" cx="8.191" cy="7.924" rx="8.191" ry="7.924" transform="translate(570.027 103.766)"/></g><g transform="translate(84.935 99.886)"><path class="e" d="M470.6,270.064c.932,4.861,2.064,9.989,3.529,15.316a180.99,180.99,0,0,0,18.646,43.484,70.031,70.031,0,0,0,8.391,1.532c4.861.6,12.719,1.6,21.576-.932,2.131-.6,1.2-.533,10.588-4.4s9.922-3.729,13.518-5.327c6.126-2.664,11.654-6.526,22.508-14.051,3.13-2.2,7.458-5.261,12.519-9.056a51.924,51.924,0,0,0,.666-9.056c-.133-5.993-1.4-10.322-3.2-16.581-2.863-9.789-4.861-16.448-6.126-20.643a75.369,75.369,0,0,0-8.391-4.661,83.6,83.6,0,0,0-27.635-7.791,95.516,95.516,0,0,0-17.98,3.13c-18.113,4.994-30.565,14.384-38.29,20.31A112.351,112.351,0,0,0,470.6,270.064Z" transform="translate(-468.627 -205.386)"/><path class="e" d="M881.44,249.5a165.545,165.545,0,0,0-16.381,20.643c-2.664,4-4.994,7.858-7.059,11.587,4.062,6.06,8.124,12.12,12.253,18.113,9.123,3.529,18.246,7.059,27.369,10.655,8.657-9.056,17.38-18.113,26.037-27.236-2.264-7.325-4.528-14.583-6.726-21.909a128.146,128.146,0,0,0-15.449-6.593A141.061,141.061,0,0,0,881.44,249.5Z" transform="translate(-598.052 -209.261)"/><g transform="translate(1.301 64.303)"><path class="a" d="M469.6,286.611c2.264,21.442,11.72,40.954,21.975,59.666.6,1.132,2.331.133,1.731-1-10.055-18.313-19.511-37.558-21.709-58.667-.133-1.265-2.131-1.332-2,0Z" transform="translate(-469.59 -285.637)"/></g><g transform="translate(1.469 31.376)"><path class="a" d="M471.546,270.625a103.5,103.5,0,0,1,62.6-32.43c1.265-.133,1.265-2.131,0-2a105.8,105.8,0,0,0-64.061,32.963c-.8,1,.6,2.4,1.465,1.465Z" transform="translate(-469.843 -236.19)"/></g><g transform="translate(65.724 31.659)"><path class="a" d="M566.511,238.07c10.854,16.315,15.915,35.293,20.776,54.005a1,1,0,0,0,1.931-.533c-4.928-18.912-10.055-38.024-20.976-54.472-.732-1.065-2.464-.067-1.731,1Z" transform="translate(-566.334 -236.616)"/></g><g transform="translate(24.419 87.154)"><path class="a" d="M505.5,357.675a185.854,185.854,0,0,0,35.094-14.583,173.45,173.45,0,0,0,16.048-9.922c4.661-3.2,9.522-6.526,12.053-11.72.6-1.132-1.132-2.131-1.731-1-2.73,5.527-8.324,8.99-13.252,12.319-4.861,3.263-9.922,6.326-15.116,9.123a186.509,186.509,0,0,1-33.562,13.851c-1.265.4-.732,2.331.466,1.931Z" transform="translate(-504.307 -319.952)"/></g><g transform="translate(66.017 31.247)"><path class="a" d="M567.724,238a65.763,65.763,0,0,1,36.492,12.786c1.065.732,2.064-1,1-1.731A67.306,67.306,0,0,0,567.724,236c-1.265-.067-1.265,1.931,0,2Z" transform="translate(-566.775 -235.998)"/></g><g transform="translate(103.243 43.626)"><path class="a" d="M622.759,256.127a111.39,111.39,0,0,1,9.323,44.083,1,1,0,0,0,2,0,114.192,114.192,0,0,0-9.656-45.082c-.466-1.2-2.131-.2-1.665,1Z" transform="translate(-622.678 -254.587)"/></g><g transform="translate(87.089 86.969)"><path class="a" d="M598.872,321.556c8.257,5.327,18.046,3.862,27.036,1.465a1,1,0,0,0-.533-1.931c-8.457,2.264-17.647,3.729-25.438-1.265a1.018,1.018,0,0,0-1.065,1.731Z" transform="translate(-598.419 -319.675)"/></g><g transform="translate(23.824 120.542)"><path class="a" d="M504.137,374.759A60.442,60.442,0,0,0,539.63,372.1c1.2-.466.666-2.4-.533-1.931a57.994,57.994,0,0,1-34.428,2.664c-1.265-.266-1.8,1.665-.533,1.931Z" transform="translate(-503.414 -370.092)"/></g><g transform="translate(59.379 88.844)"><path class="a" d="M558,356.059a183.5,183.5,0,0,0,54.272-31.9c1-.866-.466-2.264-1.4-1.4a181,181,0,0,1-53.34,31.365c-1.265.466-.733,2.4.466,1.931Z" transform="translate(-556.807 -322.491)"/></g><g transform="translate(258.599 39.704)"><path class="a" d="M879.232,249.032a274.59,274.59,0,0,0-23.107,31.631c-.666,1.066,1.065,2.064,1.731,1a283.638,283.638,0,0,1,22.774-31.231c.865-.932-.533-2.4-1.4-1.4Z" transform="translate(-855.975 -248.697)"/></g><g transform="translate(282.061 39.825)"><path class="a" d="M891.935,250.824a114.256,114.256,0,0,1,34.228,11.254c1.132.6,2.131-1.132,1-1.731A115.968,115.968,0,0,0,892.4,248.893c-1.2-.2-1.731,1.731-.466,1.931Z" transform="translate(-891.207 -248.878)"/></g><g transform="translate(258.274 71.969)"><path class="a" d="M856.029,298.981q15.582,7.092,30.832,14.85c1.132.6,2.131-1.132,1-1.731q-15.283-7.691-30.832-14.85c-1.2-.533-2.2,1.2-1,1.731Z" transform="translate(-855.487 -297.149)"/></g><g transform="translate(289.216 51.68)"><path class="a" d="M930.285,267.093q-13.385,17.88-25.971,36.359a10.65,10.65,0,0,1,1.4-.333c-.732-.4-1.465-.866-2.264-1.265a1,1,0,0,0-1,1.731c.733.4,1.465.866,2.264,1.265a1.142,1.142,0,0,0,1.4-.333c8.324-12.319,16.981-24.506,25.971-36.359.666-1.065-1.065-2.064-1.8-1.065Z" transform="translate(-901.952 -266.681)"/></g><g transform="translate(317.27 51.727)"><path class="a" d="M944.161,268.249a107.062,107.062,0,0,1,6.659,21.642c.266,1.265,2.2.733,1.931-.533a107.6,107.6,0,0,0-6.859-22.108c-.466-1.132-2.2-.133-1.731,1Z" transform="translate(-944.082 -266.752)"/></g><g transform="translate(292.067 88.57)"><path class="a" d="M906.411,323.491a77.155,77.155,0,0,1,6.859,10.921c.6,1.132,2.331.133,1.731-1a77.157,77.157,0,0,0-6.859-10.921c-.733-1-2.464,0-1.732,1Z" transform="translate(-906.234 -322.079)"/></g><g transform="translate(299.129 73.79)"><path class="a" d="M918.544,326.864a324.577,324.577,0,0,0,24.506-25.238c.865-1-.6-2.4-1.4-1.4a313.156,313.156,0,0,1-24.506,25.238c-.932.866.466,2.264,1.4,1.4Z" transform="translate(-916.838 -299.884)"/></g><g transform="translate(258.809 72.908)"><path class="a" d="M856.5,299.985c4.262,5.527,8.524,11.121,12.785,16.648.8,1,2.531,0,1.732-1-4.262-5.527-8.524-11.121-12.786-16.648-.8-1-2.531-.067-1.731,1Z" transform="translate(-856.291 -298.56)"/></g><g transform="translate(271.525 89.711)"><path class="a" d="M876.061,325.8l26.77,10.188c1.2.466,1.731-1.465.532-1.931l-26.77-10.188c-1.2-.466-1.731,1.465-.533,1.931Z" transform="translate(-875.385 -323.792)"/></g><path class="d" d="M501.2,255.623q12.686,33.562,25.438,67.191c6.326,1.8,12.719,3.529,19.045,5.327,4.728-2.131,9.456-4.328,14.184-6.459l-16.182-6.992Q530.7,280.728,517.715,246.7c-2.4,1.065-4.928,2.264-7.525,3.663A84.523,84.523,0,0,0,501.2,255.623Z" transform="translate(-478.85 -208.326)"/><path class="d" d="M568.178,240.3a119.108,119.108,0,0,1,13.851,40.754,111.809,111.809,0,0,1,1.132,15.716,258.072,258.072,0,0,1-39.022,24.705A270.241,270.241,0,0,1,519.3,332.729h12.985a274.45,274.45,0,0,0,30.366-14.916,263.535,263.535,0,0,0,30.366-20.244c-1.6-7.991-3.329-16.182-5.194-24.439-2.064-9.123-4.2-17.98-6.326-26.7a21.3,21.3,0,0,0-6.06-4.2A21.808,21.808,0,0,0,568.178,240.3Z" transform="translate(-484.897 -206.188)"/><path class="d" d="M513.062,246.788c-1.465-1.2.466-8.39,5.794-10.655,4.062-1.731,9.323-.333,12.985,3.663a85.048,85.048,0,0,0-8.923,3.063C516.259,245.59,514.061,247.588,513.062,246.788Z" transform="translate(-482.655 -204.552)"/><path class="d" d="M527.2,224.318a41.81,41.81,0,0,0,11.587-10.988,39.64,39.64,0,0,0,7.192-23.307c1.132-.333,7.858-2.4,11.587.866,5.061,4.4.4,14.916-.6,17.114a27.588,27.588,0,0,1-9.256,11.254C539.187,225.25,529.864,224.584,527.2,224.318Z" transform="translate(-487.536 -189.074)"/><path class="d" d="M473.206,215.383c3.33-.533,5.194,5.394,12.12,11.254a42.929,42.929,0,0,0,18.512,8.723,25.685,25.685,0,0,1-12.453,5.327c-8.59,1.065-20.31-2.2-23.107-10.388C466.214,224.107,469.477,215.916,473.206,215.383Z" transform="translate(-467.637 -197.852)"/><path class="c" d="M898.637,253.3c-8.59,11.454-17.247,22.907-25.837,34.361,3.063,5.594,6.126,11.187,9.256,16.781,2.664,1.065,5.327,2.2,7.991,3.263-1.931-4.661-3.862-9.389-5.86-14.051,7.658-12.586,15.383-25.1,23.041-37.691C904.364,255.1,901.5,254.232,898.637,253.3Z" transform="translate(-602.997 -210.531)"/><path class="c" d="M922.1,281.1c-8.79,9.789-17.647,19.511-26.437,29.3L864.9,301.41,870.094,308c9.656,3.2,19.245,6.393,28.9,9.589,8.324-9.389,16.581-18.712,24.905-28.1Q923.1,285.3,922.1,281.1Z" transform="translate(-600.358 -219.819)"/><path class="c" d="M924.492,256.063c.333-1.4,5.261-2.8,8.59-.266,2.131,1.6,3.4,4.728,2.464,5.66C933.815,263.188,924.026,258.194,924.492,256.063Z" transform="translate(-620.261 -210.897)"/><path class="c" d="M916.258,224.523c1.465-.8,4.4,1.731,5.194,2.4s3.6,3.2,5.527,10.455c1,3.663,2.464,9.123.932,9.855-1.731.866-6.992-4.595-9.856-10.455C915.858,232.114,914.326,225.588,916.258,224.523Z" transform="translate(-617.221 -200.865)"/><path class="c" d="M961.7,258.152c.133-1.6-3.463-2.863-4.462-3.2-.932-.333-4.461-1.465-11.986.2-3.8.866-9.389,2.131-9.456,3.729-.067,1.865,7.258,3.663,13.851,3.33C954.911,261.948,961.5,260.217,961.7,258.152Z" transform="translate(-624.044 -210.855)"/><path class="f" d="M505.3,333.971c3.929-1.4,9.722-3.463,16.648-6.393,11.787-4.928,20.111-8.391,29.367-14.65a105.736,105.736,0,0,0,17.38-14.916,87.466,87.466,0,0,0,9.056-48.212c2.4,1.4,4.728,2.8,7.125,4.129a140.947,140.947,0,0,1,9.256,45.748,195.221,195.221,0,0,1-18.379,14.184c-23.107,15.782-39.023,19.511-42.552,20.31a63.449,63.449,0,0,1-11.52,1.465A61.082,61.082,0,0,1,505.3,333.971Z" transform="translate(-480.22 -209.362)"/><path class="f" d="M858.3,288.144c4.262,6.06,8.457,12.12,12.719,18.113,8.856,3.463,17.78,6.859,26.636,10.322,8.457-9.19,16.914-18.313,25.371-27.5-2.064-7.059-4.2-14.117-6.26-21.176L890.8,303.06Q874.515,295.669,858.3,288.144Z" transform="translate(-598.153 -215.409)"/></g></g><g transform="translate(475.398 291.473)"><g transform="translate(0 214.919)"><path d="M664.864,1061.987c2.664-3.329,4.262-4.861,4.861-4.461q2.3,1.4-16.448,40.421-46.048,2.2-46.681-2.264-.5-3.9,34.161-12.919L655.94,1050.6C658.937,1054.4,661.867,1058.191,664.864,1061.987Z" transform="translate(-606.589 -844.329)"/><path class="d" d="M696.185,746.208c-2.53,17.913-5.46,36.159-8.657,54.671-9.456,54.339-20.976,105.814-33.828,154.225a31.119,31.119,0,0,0,14.717,8.99,33.587,33.587,0,0,0,20.777-1.2q22.575-78.911,45.082-157.888c19.778-21.576,15.982-49.477.866-59.6C725.153,738.75,709.7,739.682,696.185,746.208Z" transform="translate(-622.328 -740.843)"/><path class="g" d="M697.185,750.6c1.931.2.732,30.1-.8,57a683.2,683.2,0,0,1-28.368,159.353,27.061,27.061,0,0,1-4.928-1.865,27.509,27.509,0,0,1-8.79-6.926c4.062-14.517,9.922-36.359,15.982-63.129C689.26,811.2,694.454,750.4,697.185,750.6Z" transform="translate(-622.529 -744.103)"/><path class="h" d="M686.064,855.5c-1.465,17.58-3.6,36.092-6.592,55.4a800.933,800.933,0,0,1-18.446,87.368,8.749,8.749,0,0,1-3.33-1.332,8.47,8.47,0,0,1-3-3.463q7.991-33.262,15.715-67.124Q678.506,890.594,686.064,855.5Z" transform="translate(-622.663 -779.149)"/></g><g transform="translate(98.813 210.72)"><path d="M882.758,1058.987c-2.93-3.329-4.728-4.861-5.394-4.461q-2.5,1.4,18.047,40.421c33.761,1.465,50.809.733,51.275-2.264q.6-3.9-37.558-12.919c-5.594-10.721-11.121-21.442-16.714-32.164C889.217,1051.4,886.021,1055.191,882.758,1058.987Z" transform="translate(-795.773 -839.128)"/><path class="d" d="M755.591,760.027c-2.464,11.853,3.129,21.642,5.194,24.905q32.963,88.1,65.859,176.267a43.6,43.6,0,0,0,20.377-2.064A41.023,41.023,0,0,0,865.2,946.483a551.968,551.968,0,0,1-26.437-67.324c-13.252-41.619-31.1-81.841-43.75-123.66-2.131-6.992-5.727-19.245-13.851-20.776C771.706,732.991,758.455,746.043,755.591,760.027Z" transform="translate(-754.976 -734.547)"/><path class="i" d="M786.236,735.112c-4.595,3.33,3.929,21.11,7.991,29.966,9.789,21.376,14.85,44.616,24.239,66.192,10.122,23.24,24.972,60.865,45.948,123.993A26.885,26.885,0,0,0,869.608,952a25.646,25.646,0,0,0,5.194-5.66c-5.261-11.387-12.852-28.634-20.843-50.143-2.864-7.658-3.2-9.056-6.326-18.645-3.329-10.189-8.524-25.638-9.589-28.768-4.994-14.384-4.994-12.453-14.384-37.957-2-5.394-4.728-12.852-7.991-22.574-1.6-4.728-2.8-8.524-3.662-11.254-.133-.4-4.528-14.051-10.721-30.233-1.6-4.262-3.33-8.457-7.658-10.655C793.361,735.911,788.5,733.447,786.236,735.112Z" transform="translate(-764.977 -734.538)"/><path class="j" d="M835.694,828.5c-.4.133,8.524,27.9,51.209,154.559,1.731-1.665,3.463-3.33,5.194-5.061-2.6-5.793-6.659-14.983-11.32-26.437-10.721-26.17-15.316-41.42-27.3-75.048C846.814,857.8,836.093,828.367,835.694,828.5Z" transform="translate(-781.938 -765.929)"/></g><g transform="translate(121.914)"><path class="e" d="M839.166,443.937c-1.532.133-2.6-4.4-4.262-4.328-1.332.067-2.264,3.063-2.331,3.463-.8,2.73-.4,5.527,2.331,12.852.8,2.131,1.865,4.861,3.263,7.991a157.947,157.947,0,0,1-4.462,20.843c-3,10.455-8.057,27.635-21.442,45.349a120.422,120.422,0,0,1-19.312,20.177,40.163,40.163,0,0,0-3.263,16.914c.066,2.2.333,12.12,4,13.052,2.464.6,5.394-3,6.859-4.795,14.917-18.845,22.441-28.235,25.438-33.7,6.992-12.519,12.652-22.708,17.447-38.024a162.149,162.149,0,0,0,6.127-28.168c1.531-2.53,3.662-6.126,6.126-10.521,6.726-11.986,9.123-17.38,10.588-23.374,1.531-6.193,1.8-11.52.266-12.12-1.132-.4-2.53,1.665-3.8,1.132-1.864-.8.133-6.326-1.864-7.525-.733-.466-2.2-.4-5.194,1.6-2.064-4.328-3.4-5.128-4.262-5.061-1.8.266-2.663,5.194-3.063,10.788-.533-2.73-1.865-8.457-3.529-8.457-1.4,0-2.864,4.2-3.263,7.525-.6,4.595.732,7.924-.932,12.586C840.3,442.805,839.832,443.8,839.166,443.937Z" transform="translate(-789.667 -418.633)"/><g transform="translate(4.615 43.476)"><path class="a" d="M839.151,484.328c-.2,8.79-3,17.247-5.66,25.571a191.479,191.479,0,0,1-9.123,23.107c-6.659,13.851-15.649,26.5-27.436,36.425-1,.8.466,2.264,1.4,1.4,12.253-10.255,21.442-23.507,28.235-37.891a189.738,189.738,0,0,0,8.99-23.04c2.664-8.257,5.394-16.715,5.527-25.5.133-1.332-1.864-1.332-1.931-.067Z" transform="translate(-796.597 -483.387)"/></g><g transform="translate(4.07 55.054)"><path class="a" d="M850.731,501.724c-1.8,21.043-10.988,40.82-20.31,59.466-8.524,17.047-18.845,33.629-34.228,45.282-1,.8,0,2.53,1,1.731,15.715-11.92,26.3-28.634,34.96-46.015,9.523-18.978,18.712-39.089,20.577-60.465.067-1.265-1.931-1.265-2,0Z" transform="translate(-795.779 -500.775)"/></g><g transform="translate(41.903 20.026)"><path class="a" d="M859.523,471.5c-2.264-4.861-4.4-10.521-4.728-15.915-.067-.733-.2-3.862.333-4.262,1.665-1.132,2.131.8,2.531,1.6a6.613,6.613,0,0,0,2.664,3.2,1,1,0,0,0,1-1.731c-2.331-1.332-2.131-4.994-4.795-5.993-2.264-.866-3.063,1-3.529,2.93-1.6,6.859,1.865,15.05,4.661,21.176a1.06,1.06,0,0,0,1.864-1Z" transform="translate(-852.592 -448.173)"/></g><g transform="translate(49.332 2.35)"><path class="a" d="M865.514,446.648c2.264-5.194,1.731-10.521,1.931-16.048.066-1.265-.2-4.2.533-5.194,1.332-1.665,2.331,1.865,2.664,3a33.153,33.153,0,0,1,.866,10.854c-.133,1.265,1.865,1.265,2,0,.2-2.53-.067-20.177-5.727-17.314-2.331,1.2-2.2,5.927-2.264,7.991-.2,5.261.533,10.655-1.665,15.649-.533,1.2,1.2,2.264,1.665,1.065Z" transform="translate(-863.749 -421.63)"/></g><g transform="translate(57.343)"><path class="a" d="M877.724,438.211c.4-2.4.732-4.795.932-7.258.2-2.73-.2-5.793.666-8.39.733-2.4,1.132-2.863,2.131-.732a14.974,14.974,0,0,1,1.2,4.728c.333,3,.6,6.526-.333,9.456-.4,1.265,1.532,1.731,1.931.533,1.065-3.529.8-7.858.2-11.454-.333-1.931-1.4-6.992-4-6.992-2.264,0-3.2,3.8-3.4,5.394-.666,4.661-.533,9.456-1.265,14.117-.2,1.332,1.731,1.865,1.931.6Z" transform="translate(-875.778 -418.1)"/></g><g transform="translate(64.543 2.862)"><path class="a" d="M888.595,437.915a49.219,49.219,0,0,0,.266-6.26c.067-1.8-.067-6.592,2.2-6.393,1.665.133,1.532,1.532,1.665,3,.066,1,.066,2.064.066,3.063a38.844,38.844,0,0,1-.6,7.325c-.266,1.265,1.665,1.8,1.931.533.666-3.263,2.93-16.648-3.063-16.781-5.527-.133-4.062,12.519-4.462,15.582-.133,1.2,1.865,1.2,2-.067Z" transform="translate(-886.59 -422.398)"/></g><g transform="translate(59.164 8.998)"><path class="a" d="M893.021,435.133c.8-.067,1.531-.133,2.331-.2a15.436,15.436,0,0,1,.333,1.865,31.321,31.321,0,0,1,.2,3.529,26.113,26.113,0,0,1-1,6.393,53.944,53.944,0,0,1-4.861,11.653c-3.662,6.926-7.591,13.784-11.387,20.643-.6,1.132,1.132,2.131,1.731,1,3.2-5.793,6.459-11.587,9.656-17.38,3-5.394,5.993-11.054,7.259-17.18.666-3.33,2.064-10.988-1.4-13.318-2.2-1.532-5.061.533-4.795,3.063.067,1.2,2.064,1.2,1.931-.067Z" transform="translate(-878.513 -431.612)"/></g><path class="k" d="M862.025,425.6c-1,.067-1.265,4.2-1.931,9.123-1.065,8.657-2.264,18.379-6.393,26.5a40.975,40.975,0,0,1-8.058,10.854,169.22,169.22,0,0,1-4.062,19.511c-3.729,13.984-9.19,33.828-24.639,52.407a105.722,105.722,0,0,1-20.177,18.646c-.266,6.526-.533,12.985-.866,19.511a108.221,108.221,0,0,0,16.315-15.249c8.124-9.389,13.385-20.044,23.573-40.954,8.124-16.714,10.322-23.174,11.654-27.835a132.738,132.738,0,0,0,4.461-21.243,164.056,164.056,0,0,0,10.189-18.446c4.062-8.657,10.588-22.641,6.593-26.1a5.174,5.174,0,0,0-4.062-.666C864.023,428.862,862.958,425.533,862.025,425.6Z" transform="translate(-791.749 -420.605)"/><path class="i" d="M873.861,484.2c-3.529,3.729-7.059,7.525-10.588,11.254a98.084,98.084,0,0,1-2.331,13.585,100.749,100.749,0,0,1-8.057,21.243c-3.929,7.858-9.056,19.844-13.984,37.757,2.2-3.8,13.851-24.039,20.377-41.353,2.464-6.659,3.8-10.122,4.861-15.516,1.332-6.459,1-9.456,2.73-14.65A38.5,38.5,0,0,1,873.861,484.2Z" transform="translate(-806.115 -440.183)"/></g><g transform="translate(1.554 0.199)"><path class="e" d="M612.59,429.534c-2.131.6-2.2,6.393-1.865,9.656a31.164,31.164,0,0,0,3.8,11.986c4.262,7.858,8.391,15.25,12.586,22.375a146.836,146.836,0,0,0,3.33,18.912c3.263,13.318,7.458,22.375,13.252,34.827,9.189,19.644,14.65,30.9,26.3,42.885a115.168,115.168,0,0,0,11.121,9.922c1-1.132,7.125-8.191,5.927-18.246a23.544,23.544,0,0,0-7.591-14.517A95.764,95.764,0,0,1,666.4,534.216c-10.521-13.052-14.917-26.1-21.309-45.682-1.731-5.327-4.062-12.852-6.393-22.108,1.265-4.129,2.331-7.392,3.063-9.456,2.2-6.326,3.6-9.522,2.6-13.585-.266-1.065-.8-3.063-2.131-3.463-1.532-.4-3.862,1.465-5.66,4.861A111.181,111.181,0,0,1,634.9,431.4c-.266-4.928-.133-8.524-1.2-8.79-1.132-.266-2.863,3.729-3.063,4.129a18.032,18.032,0,0,0-1.4,9.456c.533-12.386-.866-15.516-2.4-15.915-1.265-.333-2.864,1.332-3.33,1.865-3.13,3.33-1.532,8.191-1.4,8.524-1.4-7.392-2.863-7.858-3.329-7.858-1.2-.067-2.4,2.6-2.863,4.129a8.679,8.679,0,0,0,0,4.4C614.854,430.333,613.588,429.268,612.59,429.534Z" transform="translate(-609.475 -419.012)"/><g transform="translate(28.618 43.393)"><path class="a" d="M651.9,484.52c.2,8.524,2.664,16.781,5.194,24.905a198.1,198.1,0,0,0,8.923,23.64c6.593,14.317,15.516,27.569,27.436,37.89,1,.866,2.4-.6,1.4-1.4-11.52-9.989-20.177-22.641-26.636-36.425a179.624,179.624,0,0,1-8.857-23.107c-2.664-8.324-5.327-16.781-5.527-25.571a.967.967,0,0,0-1.931.067Z" transform="translate(-651.898 -483.562)"/></g><g transform="translate(17.159 55.063)"><path class="a" d="M634.7,502.028c1.731,21.043,10.521,40.82,19.578,59.666,8.39,17.513,18.712,34.561,34.161,46.68,1,.8,2.4-.6,1.4-1.4-15.116-11.787-25.105-28.3-33.429-45.282-9.123-18.779-18.046-38.623-19.778-59.6-.066-1.332-2.064-1.332-1.931-.067Z" transform="translate(-634.69 -501.087)"/></g><g transform="translate(26.59 20.08)"><path class="a" d="M652.946,472.824c2.8-6.26,6.326-14.717,4.4-21.709-.466-1.731-1.332-3.13-3.33-2.331-2.6,1-2.331,4.661-4.661,5.993a1,1,0,0,0,1,1.731,5.792,5.792,0,0,0,2.264-2.464c.266-.533.532-1.731,1-2.131,2.6-1.931,2.131,2.264,2.131,3.463-.133,5.594-2.331,11.454-4.595,16.515-.466,1.065,1.265,2.064,1.8.932Z" transform="translate(-648.852 -448.554)"/></g><g transform="translate(18.856 2.352)"><path class="a" d="M646.8,445.883c-2.064-4.795-1.465-9.989-1.6-15.05-.067-2.131.2-7.325-2.264-8.59-5.527-2.863-5.86,14.85-5.66,17.314.133,1.265,2.131,1.265,2,0a33.613,33.613,0,0,1,.666-10.322c.2-.866.932-4.861,2.6-4.129.733.333.666,4.928.666,5.727.133,5.527-.333,10.854,1.865,16.049.533,1.2,2.264.2,1.732-1Z" transform="translate(-637.238 -421.931)"/></g><g transform="translate(11.595)"><path class="a" d="M635.434,437.911c-.732-4.661-.6-9.389-1.265-13.984-.2-1.665-1.065-5.461-3.4-5.527-2.4-.067-3.463,4.728-3.8,6.459-.732,3.8-1,8.257.067,11.986a1,1,0,0,0,1.931-.533c-.8-2.664-.6-5.727-.4-8.524a18.472,18.472,0,0,1,1-4.994c1-2.531,1.4-3.063,2.331,0,.732,2.464.4,5.327.6,7.858a77.876,77.876,0,0,0,1,7.791c.2,1.265,2.131.733,1.931-.533Z" transform="translate(-626.334 -418.399)"/></g><g transform="translate(5.379 2.729)"><path class="a" d="M625.324,438.081c-.4-3,1.065-15.782-4.395-15.582-5.86.2-3.6,13.585-3,16.781.266,1.265,2.2.732,1.931-.533a38.393,38.393,0,0,1-.6-7.325c0-1.8-.533-5.86,1.6-6.06,2.2-.2,2.064,4.661,2.131,6.393.067,2.131,0,4.2.266,6.26.2,1.332,2.264,1.4,2.064.067Z" transform="translate(-617 -422.497)"/></g><g transform="translate(0 8.874)"><path class="a" d="M615.766,435.3c.266-2.464-2.464-4.595-4.661-3.063-3.263,2.264-2.064,9.523-1.465,12.719,1.065,5.927,3.729,11.387,6.593,16.714,3.263,6.193,6.659,12.319,9.922,18.446.6,1.132,2.331.133,1.731-1-3.8-7.059-7.725-14.051-11.387-21.176a50.247,50.247,0,0,1-4.4-11.121,29.051,29.051,0,0,1-.932-6.393c0-.8,0-1.6.067-2.464a10.54,10.54,0,0,1,.333-2.53c.067-1,.866-1.066,2.264-.2-.2,1.332,1.8,1.332,1.931.067Z" transform="translate(-608.922 -431.725)"/></g><path class="f" d="M619.319,424.975c1.865.666.533,8.657.2,11.653-.732,6.859.8,17.247,11.654,32.03A200.662,200.662,0,0,0,650.683,523.4a197.685,197.685,0,0,0,29.1,41.154c.666,5.86,1.265,11.72,1.931,17.647A82.285,82.285,0,0,1,666.2,568.213c-4.928-5.794-7.858-10.854-12.12-18.912-10.987-20.843-16.515-31.3-20.377-43.95a166.288,166.288,0,0,1-6.126-29.3A108.213,108.213,0,0,1,616.322,458.2c-4.661-9.256-5.86-15.116-5.727-20.377.133-5.993,1.2-6.792,1.665-6.992,1-.4,2.331.4,3.2,1.065a6.46,6.46,0,0,1,1.265-5.527C617.055,426.108,618.386,424.643,619.319,424.975Z" transform="translate(-609.478 -420.58)"/><path class="f" d="M615.657,460.693c.666-.333,4.728,5.394,7.658,10.188A97.72,97.72,0,0,1,633.7,494.655c4.4,15.249,10.055,28.168,21.443,53.939,3.463,7.791,8.724,19.112,16.115,32.5a97.752,97.752,0,0,1-8.457-8.923c-2.863-3.4-12.253-14.916-22.042-41.353a254,254,0,0,1-11.454-41.353c-2.264-3.862-5.394-9.389-8.723-16.315C619.12,470.016,614.925,461.093,615.657,460.693Z" transform="translate(-611.144 -432.524)"/></g><g transform="translate(63.864 121.949)"><path class="e" d="M739.688,602.256a61.687,61.687,0,0,0-11.853,0c-6.26.666-11.853,1.2-16.049,4.861-3.13,2.73-4.062,6.126-5.793,12.852a58.213,58.213,0,0,0-2.2,16.448c.266,13.318,5.327,15.05,7.991,31.165,1.332,7.791,1.2,13.851,1.132,21.109a158.312,158.312,0,0,1-2.2,24.173,52.973,52.973,0,0,0,13.252,7.725,49.94,49.94,0,0,0,27.369,3.063,47.535,47.535,0,0,0,25.438-13.118,71.909,71.909,0,0,1-4.728-29.567c.533-8.324,2.264-10.122,4.728-28.035,1.865-13.318,1.8-18.845,1.665-21.842-.466-11.987-.733-18.046-4.728-22.109C769.787,604.986,759.732,604.053,739.688,602.256Z" transform="translate(-702.925 -601.477)"/><g transform="translate(0 0.174)"><path class="a" d="M735.927,601.63a60.534,60.534,0,0,0-14.717.8c-4.129.733-8.391,1.465-11.121,4.861-4.994,6.126-7.125,14.583-7.525,22.308-1,19.711,8.79,37.691,12.12,56.736.2,1.265,2.131.733,1.931-.533-3-17.18-11.254-33.229-12.053-50.809-.333-8.058.866-16.315,4.994-23.374,1.4-2.4,2.93-4.728,5.66-5.727a44.323,44.323,0,0,1,5.86-1.465,61.11,61.11,0,0,1,14.783-.866c1.332.133,1.332-1.865.067-1.931Z" transform="translate(-702.493 -601.492)"/></g><g transform="translate(6.916 64.89)"><path class="a" d="M713.559,699.624a150.031,150.031,0,0,1-.666,44.017c-.2,1.265,1.731,1.8,1.931.533a149.136,149.136,0,0,0,.733-44.55c-.2-1.265-2.2-1.265-2,0Z" transform="translate(-712.878 -698.675)"/></g><g transform="translate(40.625)"><path class="a" d="M764.5,603.341c8.923-.533,19.911.533,27.5,5.86,4.595,3.263,4.795,8.723,5.261,13.851a80.075,80.075,0,0,1,.333,13.851c-1.332,18.18-8.657,35.427-8.59,53.806a1,1,0,0,0,2,0c-.067-20.71,9.389-40.221,8.723-61-.266-7.924,0-18.113-7.591-22.774-7.925-4.861-18.512-6.127-27.635-5.594-1.332.067-1.332,2.065,0,2Z" transform="translate(-763.5 -601.23)"/></g><g transform="translate(68.186 68.552)"><path class="a" d="M804.9,705.124a151.071,151.071,0,0,0,4.662,38.623,1,1,0,0,0,1.931-.533,149.881,149.881,0,0,1-4.595-38.09,1,1,0,0,0-2,0Z" transform="translate(-804.888 -704.175)"/></g><g transform="translate(6.721 107.519)"><path class="a" d="M712.928,766.892a51.652,51.652,0,0,0,32.43,12.12c13.385.067,24.572-6.459,34.894-14.384,1-.8,0-2.531-1-1.731-9.789,7.458-20.244,13.851-32.83,14.051a49.385,49.385,0,0,1-32.03-11.52c-1.065-.8-2.464.6-1.465,1.465Z" transform="translate(-712.585 -762.691)"/></g><path class="l" d="M777.207,603.7a90.457,90.457,0,0,1,6.06,21.909c2.6,18.845-1.8,33.3-7.059,50.01A226.481,226.481,0,0,1,754.1,724.5a48.755,48.755,0,0,0,13.252-.6,51.849,51.849,0,0,0,25.9-13.251c-.466-3.33-1.265-8.524-2.4-14.783-1.8-9.789-2.4-10.521-2.6-14.051-.266-4.328.466-3.8,4.4-22.108a159.957,159.957,0,0,0,3.329-22.241c.067-.733.067-1.465.133-2.2.333-10.987.466-17.713-4.2-23.44C787.462,606.364,781,604.433,777.207,603.7Z" transform="translate(-719.734 -602.055)"/><path class="k" d="M803.969,651.6c-.466-.133-2.8,3.529-8.257,18.113A425.509,425.509,0,0,0,776.6,738.766a41.921,41.921,0,0,0,11.454-3.263,38.124,38.124,0,0,0,12.253-8.857,107.078,107.078,0,0,1-4.2-30.033C796.178,671.709,805.034,651.931,803.969,651.6Z" transform="translate(-727.251 -618.056)"/></g><g transform="translate(56.824 53.526)"><path class="e" d="M717.97,523.373a20.222,20.222,0,0,0-1.265,13.252c-.267,0-3.4-.133-5.061,2.131-2,2.664-.133,5.993.2,6.526a4.1,4.1,0,0,0,2.331,2.264c2,.6,3.862-1.132,4-1.265a35.639,35.639,0,0,0,5.261,8.99,38.266,38.266,0,0,0,11.454,9.722c.133,3.2.266,6.326.333,9.522a9.122,9.122,0,0,0,4.528,2.264,10.157,10.157,0,0,0,8.324-2.464q-.1-5.993-.2-11.987a32.267,32.267,0,0,0,5.66-5.66,30.589,30.589,0,0,0,5.794-13.252,10.429,10.429,0,0,0,3.463.533c1.465,0,3.33-.067,4.2-1.265.932-1.332-.066-3.263-1.065-5.327-1-1.931-1.731-2.2-2-2.264a3.266,3.266,0,0,0-2.531.533,22.683,22.683,0,0,0-1.265-10.588c-.466-1.265-3.13-8.058-9.589-11.654C739.945,507.658,723.3,512.519,717.97,523.373Z" transform="translate(-698.206 -502.65)"/><g transform="translate(17.462 20.133)"><path class="a" d="M719.247,529.437c-3.929,17.247,2.464,39.489,22.042,43.218,1.265.267,1.8-1.665.533-1.931-18.512-3.529-24.306-24.506-20.643-40.754.266-1.265-1.665-1.8-1.931-.533Z" transform="translate(-718.144 -528.714)"/></g><g transform="translate(40.149 28.631)"><path class="a" d="M752.937,576.852c2.73.8,6.459-1.8,8.657-3.263a29.135,29.135,0,0,0,7.592-7.258,34.4,34.4,0,0,0,6.26-23.906c-.133-1.265-2.131-1.265-2,0a32.614,32.614,0,0,1-4.528,20.843,30.307,30.307,0,0,1-6.126,6.925c-1.931,1.6-6.659,5.461-9.323,4.728a1,1,0,0,0-.533,1.931Z" transform="translate(-752.214 -541.475)"/></g><g transform="translate(34.958 61.182)"><path class="a" d="M744.473,591.584a16.624,16.624,0,0,1,.8,8.457c-.2,1.266,1.731,1.8,1.931.533a18.536,18.536,0,0,0-.8-9.523c-.4-1.2-2.331-.732-1.931.533Z" transform="translate(-744.419 -590.357)"/></g><g transform="translate(48.658 59.196)"><path class="a" d="M765.13,588.324a28.486,28.486,0,0,0,.8,10.055,1,1,0,0,0,1.931-.533,28.688,28.688,0,0,1-.733-9.523c.133-1.265-1.865-1.265-2,0Z" transform="translate(-764.992 -587.375)"/></g><g transform="translate(35.606 68.079)"><path class="a" d="M745.663,604.766c4.595,5.128,14.184,4.994,15.849-2.8.266-1.265-1.665-1.8-1.931-.533-1.4,6.326-8.857,5.927-12.519,1.931-.866-.932-2.264.466-1.4,1.4Z" transform="translate(-745.391 -600.714)"/></g><g transform="translate(35.97 60.247)"><path class="a" d="M746.246,592.447a7.835,7.835,0,0,0,12.386-2c.6-1.132-1.132-2.131-1.731-1a5.823,5.823,0,0,1-9.256,1.6c-.932-.866-2.331.533-1.4,1.4Z" transform="translate(-745.938 -588.952)"/></g><g transform="translate(39.324 63.191)"><path class="a" d="M751.924,595.389a7.127,7.127,0,0,1,2.664.266,1,1,0,0,0,.533-1.931,10.456,10.456,0,0,0-3.2-.333c-1.265.066-1.265,2.064,0,2Z" transform="translate(-750.975 -593.375)"/></g><g transform="translate(11.335 33.929)"><path class="a" d="M716.373,559.332c-2.73,2.2-5.128-.865-5.394-3.463-.333-2.53,1.865-5.66,4.661-3.929,1.065.666,2.064-1.065,1-1.731-4.129-2.6-8.124,1.8-7.658,5.927.533,4.395,4.861,7.791,8.79,4.595,1-.8-.4-2.2-1.4-1.4Z" transform="translate(-708.944 -549.431)"/></g><g transform="translate(61.433 31.597)"><path class="a" d="M786.456,548.44c2.131-2,4.2,1.8,4.129,3.53a3.266,3.266,0,0,1-1.465,2.73c-.732.466-2.464,1.066-3.063.133-.666-1.065-2.4-.067-1.731,1,1,1.665,3.263,1.732,4.928,1.066a5.213,5.213,0,0,0,3.263-4.662c.2-3.662-4-8.524-7.525-5.194-.866.866.533,2.331,1.465,1.4Z" transform="translate(-784.175 -545.93)"/></g><g transform="translate(36.716 19.708)"><path class="a" d="M747.286,529.024a63,63,0,0,1-.2,13.718c-.266,3.13,1.4,4.462,3.862,6.46,1,.8,2.4-.6,1.4-1.4-1.731-1.465-3.263-2.464-3.2-5.128a39.537,39.537,0,0,1,.466-3.929,47.356,47.356,0,0,0-.266-9.722c-.2-1.265-2.2-1.265-2.064,0Z" transform="translate(-747.058 -528.075)"/></g><g transform="translate(23.757 25.789)"><path class="a" d="M729.664,541.531c-.067-1.465,2.064-2.4,3.263-2.331,1.4,0,2.131,1.132,2.863,2.2s2.464.067,1.732-1c-1.332-1.931-2.864-3.529-5.394-3.13-2.131.4-4.595,1.931-4.528,4.328a1.035,1.035,0,0,0,2.065-.067Z" transform="translate(-727.598 -537.207)"/></g><g transform="translate(46.829 24.062)"><path class="a" d="M764.079,538.867a4,4,0,0,1,7.525.932c.266,1.265,2.2.732,1.931-.533a6.027,6.027,0,0,0-11.187-1.465c-.533,1.132,1.132,2.2,1.731,1.066Z" transform="translate(-762.244 -534.614)"/></g><g transform="translate(21.983 17.92)"><path class="a" d="M726.843,530.524a7.254,7.254,0,0,1,5.128-3.13c1.265-.133,1.265-2.131,0-2a9.277,9.277,0,0,0-6.859,4.129c-.732,1.065,1,2.064,1.731,1Z" transform="translate(-724.934 -525.39)"/></g><g transform="translate(47.656 17.315)"><path class="a" d="M764.495,526.492a8.411,8.411,0,0,1,6.326,2.2c.932.866,2.4-.533,1.4-1.4a10.737,10.737,0,0,0-7.791-2.8,1,1,0,0,0,.067,2Z" transform="translate(-763.487 -524.482)"/></g><g transform="translate(24.358 34.108)"><path class="a" d="M730.5,550.832V550.7a1,1,0,1,0-2,0v.133a1.024,1.024,0,0,0,1,1,.981.981,0,0,0,1-1Z" transform="translate(-728.5 -549.7)"/></g><g transform="translate(28.42 32.776)"><path class="a" d="M735.6,549.7h.133a1,1,0,1,0,0-2H735.6a1.024,1.024,0,0,0-1,1,1.074,1.074,0,0,0,1,1Z" transform="translate(-734.6 -547.7)"/></g><g transform="translate(28.287 37.171)"><path class="a" d="M735.4,556.3h.133a1,1,0,0,0,0-2H735.4a1,1,0,1,0,0,2Z" transform="translate(-734.4 -554.3)"/></g><g transform="translate(49.862 31.311)"><path class="a" d="M767.8,547.5h.133a1,1,0,1,0,0-2H767.8a1.024,1.024,0,0,0-1,1,1.074,1.074,0,0,0,1,1Z" transform="translate(-766.8 -545.5)"/></g><g transform="translate(55.772 31.178)"><path class="a" d="M776.624,547.3a1,1,0,0,0,0-2,1,1,0,0,0,0,2Z" transform="translate(-775.675 -545.3)"/></g><g transform="translate(53.525 34.374)"><path class="a" d="M773.3,552.1a1,1,0,0,0,0-2,1,1,0,0,0,0,2Z" transform="translate(-772.3 -550.1)"/></g><g transform="translate(32.358 42.222)"><path class="a" d="M740.638,564.759a9.455,9.455,0,0,0,17.314-1.665c.4-1.2-1.531-1.731-1.931-.533a7.425,7.425,0,0,1-13.651,1.2c-.6-1.132-2.331-.133-1.731,1Z" transform="translate(-740.513 -561.885)"/></g><path class="c" d="M700.8,527.261a46.911,46.911,0,0,0-7.392,18.446c-1,6.06-2.73,16.648,3.929,25.038,1.8,2.264,8.391,9.656,17.447,8.457,6.06-.8,12.519-5.327,13.718-11.654a12.107,12.107,0,0,0-.666-6.925,31.075,31.075,0,0,1-11.987-10.055,27.453,27.453,0,0,1-3.862-7.658,4.353,4.353,0,0,1-2.863,1,4.265,4.265,0,0,1-3.063-1.6c-2.064-2.331-1.864-7.125.866-8.724a5.384,5.384,0,0,1,3.862-.333,21.835,21.835,0,0,1,2-13.252c1.865-3.729,4.728-6.459,11.321-10.588,5.46-3.4,7.858-3.13,8.723-3,2.93.533,4.728,2.863,5.66,4.062,4.2,5.327,9.656,12.186,16.181,20.643a4.75,4.75,0,0,1,3.862-.2,4.908,4.908,0,0,1,2.264,2.6,4.79,4.79,0,0,1,.6,3.063,4.7,4.7,0,0,1-3.263,3.6,4.848,4.848,0,0,1-4.129-.666,31.846,31.846,0,0,1-4.129,10.388,32.826,32.826,0,0,1-7.658,8.457,14.829,14.829,0,0,0,.666,7.858c2,5.461,7.192,8.923,11.986,9.989,8.99,1.931,16.248-4.794,18.113-6.593,6.393-5.993,10.255-16.048,6.992-25.7a24.967,24.967,0,0,0-10.055-12.519,98.851,98.851,0,0,0-7.392-13.984c-5.993-9.389-10.122-15.716-17.647-18.046a22.1,22.1,0,0,0-11.587-.2,22.578,22.578,0,0,0-10.455,0C711.792,501.89,703.4,512.944,700.8,527.261Z" transform="translate(-692.096 -498.48)"/><path class="k" d="M765.949,530.6c-.533.2.533,3.663,1.065,7.125a38.112,38.112,0,0,1-2,17.247c-3.6,9.19-11.054,14.117-14.317,15.982,2.064.466,4.2.932,6.259,1.465.6,3.6,1.132,7.258,1.732,10.854,1.332-1.6,2.73-3.2,4.062-4.795a16.374,16.374,0,0,0,3.33,4.328,17.47,17.47,0,0,0,10.122,4.462c6.393.6,11.121-2.863,13.784-4.794a24.97,24.97,0,0,0,8.857-30.166,35.668,35.668,0,0,1-6.526,13.185c-.932,1.2-9.323,11.653-14.517,9.856-4.462-1.532-5.993-12.053-3.8-25.837a3.732,3.732,0,0,0,2.73,1.332c1.931-.067,2.8-2,2.93-2.2.932-2-.2-4.2-1.332-5.394a5.969,5.969,0,0,0-4.062-1.865,40.309,40.309,0,0,1-3.463-3.929C767.614,533.528,766.416,530.465,765.949,530.6Z" transform="translate(-711.559 -509.209)"/><path class="f" d="M749.333,552.478c.533-.866,3.463-1.065,4.328.733.666,1.4-.2,3.263-1.132,3.463C751.065,557.072,748.6,553.61,749.333,552.478Z" transform="translate(-711.058 -516.305)"/><path class="f" d="M714.815,586.611c-1.4,2.4-4.2,4.595-6.992,4.328-1.665-.133-3.529-1.132-9.989-11.454-2.131-3.4-3.8-6.326-4.928-8.257a26.434,26.434,0,0,0,2,19.378,23.126,23.126,0,0,0,9.456,10.122,17.063,17.063,0,0,0,8.524,2.464A16.757,16.757,0,0,0,724.6,597.8a12.034,12.034,0,0,0,4.062-7.525,10.656,10.656,0,0,0-1.731-6.792c-2-3.063-4.129-2.73-7.525-5.66-4.328-3.729-5.527-8.324-6.06-8.124C712.551,570.163,718.61,580.085,714.815,586.611Z" transform="translate(-691.922 -522.271)"/><path class="h" d="M775.044,553c-.4-.133-1.6,4.062-5.061,9.722A57.659,57.659,0,0,1,754.6,579.235a27.916,27.916,0,0,0,13.052-7.791C774.844,563.72,775.643,553.2,775.044,553Z" transform="translate(-712.862 -516.693)"/></g></g></g></svg>