<svg xmlns="http://www.w3.org/2000/svg" width="753.374" height="705.639" viewBox="0 0 753.374 705.639"><defs><style>.a{fill:#ec615b;}.b{fill:#5222d0;}.c{fill:#e8e8e8;}.d{fill:#fff;}.d,.f,.g,.r{stroke:#161616;stroke-miterlimit:10;}.d,.g{stroke-width:2px;}.e,.g,.r{fill:#161616;}.f{fill:none;stroke-width:6px;}.h,.i,.j,.k,.l,.m,.n,.o,.p,.q,.s{fill:#6d6c6c;}.h{opacity:0.26;}.i{opacity:0.23;}.j{opacity:0.29;}.l{opacity:0.24;}.m{opacity:0.14;}.n{opacity:0.17;}.o{opacity:0.13;}.p{opacity:0.16;}.q{opacity:0.12;}.s{opacity:0.19;}.t,.u{fill:#341999;}.t{opacity:0.54;}.u{opacity:0.35;}</style></defs><g transform="translate(-230.1 -40.675)"><g transform="translate(364.033 91.082)"><path class="a" d="M919.656,125.88c-15.821,9.364-20.342,25.508-22.215,32.159-.452,1.614-5.747,21.44,3.423,42.1,2.712,6.135,5.618,12.463,12.205,15.5,3.81,1.808,7.233,1.679,20.665.517,6.264-.517,13.045-1.162,20.277-1.937a79.939,79.939,0,0,0,16.467-37.907c.452-3.423,5.747-44.235-16.467-55.084C939.482,114.062,921.981,124.459,919.656,125.88Z" transform="translate(-599.741 -118.733)"/><ellipse class="a" cx="14.594" cy="16.144" rx="14.594" ry="16.144" transform="translate(13.174 71.143)"/><ellipse class="a" cx="10.849" cy="10.462" rx="10.849" ry="10.462" transform="translate(347.878 341.205)"/><circle class="a" cx="8.072" cy="8.072" r="8.072" transform="translate(19.825 282.827)"/><ellipse class="b" cx="12.851" cy="13.497" rx="12.851" ry="13.497" transform="translate(0 71.078)"/><ellipse class="b" cx="7.943" cy="8.266" rx="7.943" ry="8.266" transform="translate(347.813 329.065)"/><ellipse class="b" cx="8.718" cy="9.299" rx="8.718" ry="9.299" transform="translate(453.203 99.04)"/><g transform="translate(265.415 174.128)"><path class="a" d="M855.67,389.36c-1.421-2.26-3.745-.129-4.714,1.421-2,3.229-3.293,7.233-1.808,10.914,1.1,2.777,3.81,5.1,6.974,4.65a5.667,5.667,0,0,0,5.037-5.683,1.01,1.01,0,0,0-1.679-.71c-3.423,4.327-7.62,10.462-4.2,16.015,2.389,3.81,8.266,4.327,10.591.194a16.237,16.237,0,0,1-1.744-.258c.323,1.808.646,3.616.9,5.424.194,1.227,2.066.71,1.873-.517-.323-1.808-.646-3.616-.9-5.424a.972.972,0,0,0-1.744-.258,4.027,4.027,0,0,1-5.231,1.55,6.058,6.058,0,0,1-2.97-5.618c0-3.745,2.648-7.039,4.843-9.816-.581-.258-1.1-.452-1.679-.71a3.859,3.859,0,0,1-4.714,3.745,5.349,5.349,0,0,1-3.616-3.616,8.065,8.065,0,0,1-.065-5.231c.065-.129,2.712-5.877,3.1-5.231.71,1.162,2.389.194,1.743-.839Z" transform="translate(-848.505 -388.376)"/></g><g transform="translate(6.922 176.811)"><path class="a" d="M450.209,396.644c1.421-3.875,6.135-2.2,7.62.517a7.949,7.949,0,0,1,.9,2.971c.258,1.937.065,2.712-1.614,3.875-1.808,1.808-2.26,1.1-1.292-2.131.452-.194.969-.387,1.421-.581a7.19,7.19,0,0,1,3.875.129,6.636,6.636,0,0,1,4.2,7.362.991.991,0,0,0,1.421,1.1,7.428,7.428,0,0,1,10.72,4.972c.258,1.227,2.131.71,1.873-.517a9.348,9.348,0,0,0-13.561-6.07c.452.387.969.71,1.421,1.1.84-5.683-3.487-10.978-9.493-10.074-2.066.323-5.166,1.614-5.424,4.068-.194,2,1.679,3.487,3.552,3.681,5.554.517,5.424-7.556,3.616-10.784-2.454-4.391-9.234-5.489-11.172-.065-.388,1.1,1.485,1.614,1.937.452Z" transform="translate(-448.219 -392.53)"/></g><g transform="translate(348.471 422.179)"><path class="b" d="M977.559,774.3a45.786,45.786,0,0,1,12.528,12.4c.71,1.033,2.389.065,1.679-.969a48.7,48.7,0,0,0-13.174-13.045c-1.1-.775-2.066.9-1.033,1.615Z" transform="translate(-977.119 -772.49)"/></g><g transform="translate(361.272 425.864)"><path class="b" d="M997.173,779.878c1.033,1.227,2,2.518,3.035,3.745.775.969,2.131-.387,1.356-1.356-1.033-1.227-2-2.519-3.035-3.745-.775-.969-2.131.452-1.356,1.356Z" transform="translate(-996.942 -778.197)"/></g><g transform="translate(355.264 407.817)"><path class="b" d="M987.936,751.9A53.373,53.373,0,0,1,998.915,766.1c.581,1.1,2.26.129,1.679-.969a54.01,54.01,0,0,0-11.3-14.594c-.9-.9-2.26.517-1.356,1.356Z" transform="translate(-987.638 -750.25)"/></g></g><g transform="translate(230.1 97.388)"><g transform="translate(43.002 474.952)"><path class="c" d="M296.7,864.9a292.6,292.6,0,0,0,7.3,41.523.972.972,0,0,0,1.873-.517,294.643,294.643,0,0,1-7.233-41.006c-.129-1.227-2.066-1.227-1.937,0Z" transform="translate(-296.69 -863.975)"/></g><g transform="translate(50.038 516.131)"><path class="c" d="M308.241,929.652a76.956,76.956,0,0,0,38.682,0,.972.972,0,0,0-.517-1.873,74.375,74.375,0,0,1-37.649,0,.974.974,0,0,0-.517,1.873Z" transform="translate(-307.585 -927.742)"/></g><g transform="translate(88.921 473.919)"><path class="c" d="M369.736,904.56Q371,883.928,372.965,863.3c.129-1.227-1.808-1.227-1.937,0q-1.937,20.632-3.229,41.265c-.065,1.227,1.873,1.227,1.937,0Z" transform="translate(-367.798 -862.375)"/></g><g transform="translate(43.405 474.556)"><path class="c" d="M298.015,865.711a115.681,115.681,0,0,0,48.691-.452c1.227-.258.71-2.131-.517-1.873a113.993,113.993,0,0,1-47.658.452c-1.227-.258-1.744,1.614-.517,1.873Z" transform="translate(-297.314 -863.362)"/></g><g transform="translate(43.898 478.787)"><path class="c" d="M298.092,872.682c.517,2.648,3.875,2.519,5.941,2.712a142.654,142.654,0,0,0,15.757.452c5.037-.129,10.074-.517,15.111-1.1,4-.517,7.878-1.033,11.43-3.035,1.1-.581.129-2.26-.969-1.679-6.393,3.552-15.24,3.423-22.408,3.745-3.552.129-7.168.194-10.72.129-1.873-.065-11.882.387-12.27-1.744-.258-1.227-2.066-.71-1.873.517Z" transform="translate(-298.078 -869.913)"/></g><g transform="translate(47.473 502.512)"><path class="c" d="M303.734,908.1a56.7,56.7,0,0,0,11.753,14.53c.9.84,2.325-.517,1.356-1.356a52.444,52.444,0,0,1-11.43-14.142c-.581-1.1-2.26-.129-1.679.969Z" transform="translate(-303.613 -906.652)"/></g><g transform="translate(44.93 487.635)"><path class="c" d="M299.82,885.026a154.845,154.845,0,0,0,23.764,30.48c.9.9,2.26-.517,1.356-1.356A153.25,153.25,0,0,1,301.5,884.058c-.646-1.033-2.325-.065-1.679.969Z" transform="translate(-299.675 -883.616)"/></g><g transform="translate(55.739 482.945)"><path class="c" d="M316.534,877.8A229.35,229.35,0,0,0,340.3,912.353c.775.969,2.131-.387,1.356-1.356a223.9,223.9,0,0,1-23.442-34.161c-.581-1.1-2.26-.129-1.679.969Z" transform="translate(-316.413 -876.352)"/></g><g transform="translate(68.022 483.438)"><path class="c" d="M335.606,878.526q9.977,14.917,20.148,29.706c.71,1.033,2.389.065,1.679-.969q-10.171-14.82-20.148-29.705c-.71-1.033-2.389-.065-1.679.969Z" transform="translate(-335.434 -877.116)"/></g><g transform="translate(78.381 482.857)"><path class="c" d="M351.62,877.626c3.358,5.425,6.974,10.72,10.72,15.886.71.969,2.389,0,1.679-.969-3.745-5.166-7.362-10.462-10.72-15.886-.646-1.033-2.325-.065-1.679.969Z" transform="translate(-351.475 -876.216)"/></g><g transform="translate(22.642 417.84)"><g transform="translate(0 0)"><path class="c" d="M265.187,776.739c.775,4.456,1.55,8.976,2.389,13.432.258,1.227.452,2.519,1.485,3.293.71.581,3.035.517,3.487,1.162a7.116,7.116,0,0,0,.129-1.162c-.969.969-1.937,1.937-2.971,2.841a1.081,1.081,0,0,0-.258.969c.581,1.744.969,4.327,2.131,5.812.581.775,1.614.646,2.066,1.1.387.387.258.129.065,1.292a11.934,11.934,0,0,0,0,3.035,17.533,17.533,0,0,0,1.227,4.456c3.358,8.137,9.88,14.724,16.144,20.794.9.839,2.26-.517,1.356-1.356a97.9,97.9,0,0,1-11.3-12.4c-3.229-4.456-7.039-10.462-5.037-16.144a.9.9,0,0,0-.258-.969c-1.227-.969-2.454-.581-3.293-2.131-1.614-2.906-.71-3.875,1.356-5.876a.889.889,0,0,0,.129-1.162,2.7,2.7,0,0,0-1.744-1.292c-.517-.194-1.292,0-1.808-.258-1.1-.581-1.1-2-1.292-3.035-.775-4.262-1.55-8.589-2.26-12.851-.129-1.292-2-.775-1.744.452Z" transform="translate(-265.162 -775.535)"/></g></g><g transform="translate(23.432 416.861)"><path class="c" d="M267.041,775.944a63.01,63.01,0,0,1,42.944,58.507.97.97,0,0,0,1.937,0,65.069,65.069,0,0,0-44.365-60.38c-1.162-.387-1.679,1.485-.517,1.873Z" transform="translate(-266.385 -774.019)"/></g><g transform="translate(60.844 403.346)"><path class="c" d="M326.244,800.561c6.264-17.371,15.5-34.161,30.287-45.592.969-.775,0-2.454-.969-1.679-15.24,11.818-24.733,28.866-31.191,46.754-.387,1.162,1.485,1.679,1.873.517Z" transform="translate(-324.319 -753.091)"/></g><g transform="translate(91.375 403.917)"><path class="c" d="M371.6,754.9c.452,5.941.969,11.882,1.421,17.888.129,1.227,2.066,1.227,1.937,0-.452-5.941-.969-11.882-1.421-17.888-.065-1.227-2-1.227-1.937,0Z" transform="translate(-371.598 -753.975)"/></g><g transform="translate(90.482 422.054)"><g transform="translate(0 0)"><path class="c" d="M373.369,782.086c-.84.194-1.679.387-2.454.646a.972.972,0,0,0,.517,1.873c.839-.194,1.679-.387,2.454-.646a.972.972,0,0,0-.517-1.873Z" transform="translate(-370.214 -782.061)"/></g></g><g transform="translate(90.181 423.249)"><g transform="translate(0 0)"><path class="c" d="M369.782,785.131a2.743,2.743,0,0,0,2.454,2.131.951.951,0,0,0,.969-.969.993.993,0,0,0-.969-.969h-.065c-.065,0-.194-.065-.065,0-.065-.065-.129-.065-.194-.129-.129-.065.129.129-.065-.065l-.129-.129c.129.129,0,0,0-.065-.065-.065-.065-.194-.065-.065,0-.065-.065-.194-.065-.258a.9.9,0,0,0-1.162-.646.924.924,0,0,0-.646,1.162Z" transform="translate(-369.749 -783.912)"/></g></g><g transform="translate(88.719 424.961)"><g transform="translate(0 0)"><path class="c" d="M370.465,787.491a87.618,87.618,0,0,1-.452,10.914c-.129,1.162.065,3.875-.71,4.779a11.839,11.839,0,0,0-1.485.452c-.969.775.387,2.131,1.356,1.356.323-.258,1.1,0,1.614-.581.775-.775.646-2.583.775-3.487a94.072,94.072,0,0,0,.775-13.5c.065-1.162-1.873-1.162-1.873.065Z" transform="translate(-367.484 -786.562)"/></g></g><g transform="translate(79.489 442.058)"><path class="c" d="M361.98,814.693c2.066,2.454,1.485,6.522,1.292,9.493a22.147,22.147,0,0,1-2.518,9.557c-2.389,4.391-5.747,8.072-7.491,12.851-.452,1.162,1.421,1.679,1.873.517,2.325-6.264,7.685-10.914,9.3-17.5,1.162-4.714,2.26-12.27-1.1-16.273-.775-.9-2.131.452-1.356,1.356Z" transform="translate(-353.192 -813.038)"/></g><g transform="translate(71.093 422.149)"><path class="c" d="M342.134,836.577a163.388,163.388,0,0,1,14.4-52.889c.517-1.1-1.162-2.131-1.679-.969A166.441,166.441,0,0,0,340.2,836.641c-.129,1.227,1.808,1.162,1.937-.065Z" transform="translate(-340.19 -782.208)"/></g><g transform="translate(34.705 427.881)"><g transform="translate(0 0)"><path class="c" d="M284.073,792.773a135.154,135.154,0,0,1,24.41,47.981.972.972,0,0,0,1.873-.517,137.908,137.908,0,0,0-24.927-48.82c-.775-.969-2.131.387-1.356,1.356Z" transform="translate(-283.842 -791.084)"/></g></g><g transform="translate(35.195 451.417)"><path class="c" d="M285.569,829.513a25.145,25.145,0,0,1,15.046,3.81c1.033.646,2.066-1.033.969-1.679a27.415,27.415,0,0,0-16.015-4.068c-1.292.065-1.292,2,0,1.937Z" transform="translate(-284.6 -827.53)"/></g><g transform="translate(45.911 433.242)"><path class="c" d="M303.265,810.89a21,21,0,0,1,1.421-10.332c.452-1.162-1.421-1.679-1.873-.517a22.226,22.226,0,0,0-1.485,10.849c.129,1.227,2.066,1.227,1.937,0Z" transform="translate(-301.195 -799.385)"/></g><g transform="translate(68.834 432.854)"><path class="c" d="M336.762,799.957c2.131,5.231,5.231,10.784,6.006,16.338.194,1.227,2.066.71,1.873-.517-.839-5.618-3.939-11.172-6.006-16.338-.452-1.162-2.325-.646-1.873.517Z" transform="translate(-336.692 -798.785)"/></g><g transform="translate(79.166 428.074)"><path class="c" d="M354.311,803.47c1.873-2.131,3.681-4.65,6.07-6.264,2-1.356,4.2-2.26,5.747-4.133.775-.969-.581-2.325-1.356-1.356-1.679,2-4.133,2.841-6.135,4.391a41.7,41.7,0,0,0-5.683,6.006c-.84.969.517,2.325,1.356,1.356Z" transform="translate(-352.691 -791.384)"/></g><g transform="translate(80.242 472.912)"><path class="c" d="M355.547,863.776a29.351,29.351,0,0,1,9.493-.969c1.227.064,1.227-1.873,0-1.937A30.746,30.746,0,0,0,355.03,861.9a.972.972,0,0,0,.517,1.873Z" transform="translate(-354.357 -860.816)"/></g><g transform="translate(80.253 473.495)"><path class="c" d="M355.3,864.871a26.835,26.835,0,0,0,10.591-1.227c1.162-.387.646-2.26-.517-1.873a26.655,26.655,0,0,1-10.074,1.162c-1.227-.065-1.227,1.873,0,1.937Z" transform="translate(-354.375 -861.719)"/></g><g transform="translate(44.026 474.387)"><path class="c" d="M299.2,865.037h2.454a.97.97,0,0,0,0-1.937H299.2a.97.97,0,0,0,0,1.937Z" transform="translate(-298.275 -863.1)"/></g><g transform="translate(91.361 490.014)"><path class="c" d="M372.5,889.237h61.478a.97.97,0,0,0,0-1.937H372.5a.97.97,0,0,0,0,1.937Z" transform="translate(-371.575 -887.3)"/></g><g transform="translate(437.882 477.228)"><path class="c" d="M909.1,869.437h36.551a.97.97,0,0,0,0-1.937H909.1a.97.97,0,0,0,0,1.937Z" transform="translate(-908.175 -867.5)"/></g><g transform="translate(548.697 478.391)"><path class="c" d="M1080.7,871.237h202.837a.97.97,0,0,0,0-1.937H1080.7a.97.97,0,0,0,0,1.937Z" transform="translate(-1079.775 -869.3)"/></g><g transform="translate(455.74 267.809)"><g transform="translate(0 0)"><path class="c" d="M951.761,543.719q-7.362,15.208-15.821,29.835c-.258.517-.065,1.356.581,1.421,27.7,4.2,52.5,17.953,76.395,31.837a.969.969,0,0,0,.969-1.679c-24.087-13.949-49.014-27.768-76.911-32.03.194.452.387.969.581,1.421,5.683-9.751,10.914-19.7,15.821-29.835.581-1.1-1.033-2.131-1.615-.969Z" transform="translate(-935.829 -543.208)"/></g></g><g transform="translate(474.009 274.351)"><path class="c" d="M966.044,582.5c1.937-5.554,3.875-11.172,5.812-16.726a72.634,72.634,0,0,1,2.518-7.168,4.678,4.678,0,0,1,2.389-3.164l2.325.581c1.162.323,2.325.581,3.422.9,2.648.646,6.91.646,6.458,4.2-.323,2.519-1.808,5.231-2.648,7.685-1.937,5.489-3.81,10.978-5.747,16.467-.387,1.162,1.485,1.679,1.873.517,2.519-7.233,5.037-14.53,7.556-21.763.581-1.679,2.2-4.52.9-6.329-1.421-1.937-5.683-2.066-7.878-2.648-2.131-.517-5.877-2.454-8.072-1.421-1.873.84-2.26,4.068-2.841,5.683-2.648,7.556-5.3,15.176-7.943,22.731-.387,1.1,1.485,1.614,1.873.452Z" transform="translate(-964.119 -553.337)"/></g><g transform="translate(499.041 260.884)"><path class="c" d="M1004.7,582.025c4.133-8.718,8.331-17.5,12.463-26.218,2.066-4.391,4.133-8.718,6.264-13.109a55.556,55.556,0,0,1,2.971-6.264c1.033-1.614,1.292-2,3.1-1.292a18.042,18.042,0,0,1,2.971,1.937c1.1.775,2.841,1.614,3.616,2.648.969,1.227.581,2.519,0,4.068-.775,2.067-1.937,4.068-2.906,6.07-2.131,4.391-4.262,8.782-6.522,13.174-4.262,8.331-8.718,16.6-13.3,24.8a.969.969,0,0,0,1.679.969q8.427-14.917,16.015-30.222c2.518-5.037,5.3-10.2,7.426-15.434,1.485-3.81-1.744-5.36-4.585-7.362-2.26-1.55-5.812-5.1-8.266-2.2-1.55,1.808-2.389,4.843-3.423,7.039-1.292,2.648-2.518,5.3-3.81,8.008q-7.749,16.273-15.434,32.547c-.452.969,1.227,2,1.744.839Z" transform="translate(-1002.882 -532.484)"/></g><g transform="translate(520.514 297.498)"><g transform="translate(0)"><path class="c" d="M1037.92,615.541a183.066,183.066,0,0,1,18.727-24.6,7.116,7.116,0,0,1-1.162.129c2.454,1.679,4.843,3.293,7.3,4.972a10.345,10.345,0,0,1-.323-1.356c-5.489,8.589-10.978,17.113-16.467,25.7-.646,1.033.969,2,1.679.969,5.489-8.589,10.978-17.113,16.467-25.7a1.033,1.033,0,0,0-.323-1.356c-2.454-1.679-4.843-3.293-7.3-4.972a.973.973,0,0,0-1.162.129,187.734,187.734,0,0,0-19.05,24.991.977.977,0,1,0,1.615,1.1Z" transform="translate(-1036.134 -589.182)"/></g></g><g transform="translate(587.788 234.174)"><path class="c" d="M1151.863,519.393a14.419,14.419,0,0,1-9.364-15.821c1.162-7.039,8.072-13.3,15.176-9.105a12.976,12.976,0,0,1,5.554,14.853c-1.937,5.747-8.266,9.17-14.142,8.266-1.227-.194-1.744,1.679-.517,1.873,6.91,1.033,14.207-2.777,16.532-9.622a14.843,14.843,0,0,0-8.137-17.888c-7.878-3.229-15.047,3.552-16.4,11.107-1.421,8.008,3.293,15.369,10.72,18.211,1.227.452,1.744-1.421.581-1.873Z" transform="translate(-1140.309 -491.122)"/></g><g transform="translate(602.801 239.007)"><g transform="translate(0)"><path class="c" d="M1173.336,520.817c-12.851-.387-8.008-20.988,3.358-20.213,11.365.84,6.716,24.023-5.747,19.761-1.162-.387-1.679,1.485-.517,1.873,14.4,4.908,20.859-21.31,7.1-23.506-6.716-1.1-12.786,5.231-13.819,11.495-1.033,6.2,3.164,12.27,9.622,12.463,1.227.129,1.227-1.808,0-1.873Z" transform="translate(-1163.558 -498.607)"/></g></g><g transform="translate(599.788 194.867)"><g transform="translate(0)"><path class="c" d="M1162.062,438.162a3.857,3.857,0,0,1-.775-4.456,3,3,0,0,1,4.2-.969,2.581,2.581,0,0,1,.323,3.81c-1.292,1.162-3.358.581-4.585-.387-.969-.775-2.325.581-1.356,1.356,2,1.55,5.1,2.325,7.233.452a4.536,4.536,0,0,0-.194-6.651,4.966,4.966,0,0,0-6.845.71c-1.873,2.2-1.356,5.489.581,7.491a.983.983,0,0,0,1.421-1.356Z" transform="translate(-1158.892 -430.254)"/></g></g><g transform="translate(413.458 143.064)"><path class="c" d="M872.45,458.373c-1.808-10.978,4.585-24.216,16.984-24.087,6.329.065,12.463,2.648,18.857,1.744a17.136,17.136,0,0,0,11.107-6.781,22.9,22.9,0,0,0,4.52-12.463c.323-6.587-2.2-13.3-.387-19.825.9-3.293,2.841-6.329,6.135-7.556,3.164-1.1,6.587-.452,9.88-.581a12.371,12.371,0,0,0,10.914-6.458c3.358-5.877,2.583-12.915,4.908-19.115,2.777-7.491,10.591-13.884,18.857-10.2,1.1.517,2.131-1.162.969-1.679-11.236-5.037-20.6,5.1-22.8,15.3-1.421,6.651-1.162,16.984-9.105,19.631-5.554,1.873-11.818-1.033-16.919,2.777-4.2,3.1-5.424,8.783-5.36,13.755.194,7.3,2.454,14.4-.775,21.375-2.971,6.587-8.847,10.526-16.144,10.074-6.458-.387-12.851-3.035-19.373-1.356-11.043,2.777-15.757,15.821-14.013,26.025.129,1.1,2,.581,1.744-.581Z" transform="translate(-870.353 -350.035)"/></g><g transform="translate(494.531 147.092)"><path class="c" d="M998.547,414.539c-2.389-5.424.9-10.591,6.135-12.334,3.81-1.292,8.008-1.356,11.3-3.939,2.583-2,3.423-4.52,3.1-7.749-.323-3.035-.323-5.424,2.067-7.491a11.716,11.716,0,0,1,7.233-2.518c7.1-.258,16.855,3.358,22.021-3.552,2.389-3.229,1.679-7.233,2.777-10.849a11.247,11.247,0,0,1,11.495-7.878c1.227.065,1.227-1.873,0-1.937a13.5,13.5,0,0,0-10.461,4.133c-3.358,3.552-2.906,7.556-3.939,12.011-2.777,12.205-19.761,3.616-27.768,7.426-2.97,1.421-5.36,3.939-5.618,7.3-.323,3.939,1.485,7.168-2.519,9.88-2.131,1.421-4.585,1.873-7.039,2.454-4.068.969-8.072,2.2-10.139,6.135a10.948,10.948,0,0,0-.258,9.816c.452,1.227,2.066.194,1.614-.9Z" transform="translate(-995.897 -356.274)"/></g><g transform="translate(609.661 92.368)"><path class="c" d="M1176.776,298.5a16.069,16.069,0,0,1-.71-1.873c.839-.969,1.614-1.937,2.454-2.906.258-.065,1.421.71,1.808.71a3.387,3.387,0,0,0,2.583-.71c2.389-1.873,1.55-4.843,2.26-7.362,1.162-4.327,6.264-1.356,8.589-4.585,2.325-3.164,1.485-9.88,7.685-8.072a.972.972,0,0,0,.517-1.873,6.388,6.388,0,0,0-8.072,4.068c-.387.969-.517,2.066-.9,3.035-.839,2.26-1.744,2.583-4.2,2.712-1.808.129-3.229,0-4.456,1.55-1.033,1.356-1.033,3.1-1.227,4.714-.194,2.389,0,4.391-3.552,4.133-.71-.065-1.292-.71-2.066-.71-4.262-.065-3.552,5.166-2.519,7.685.387,1.162,2.325.646,1.808-.517Z" transform="translate(-1174.18 -271.532)"/></g><g transform="translate(620.998 98.104)"><g transform="translate(0)"><path class="c" d="M1195.136,307.011c-1.033-1.356-2.777-5.3.258-6.329,1.1-.387,2.519.065,3.681.065a3.858,3.858,0,0,0,2.777-.71c2.583-2.066.71-5.747,2.066-8.33,2.2-4.2,6.587-.9,9.687-3.1,2.2-1.55,2.777-4.52,3.164-6.974.194-1.227-1.679-1.744-1.873-.517-.452,2.906-.969,6.135-4.585,6.458-1.873.194-3.293-.452-5.037.387-2.841,1.356-3.746,3.875-3.81,6.781-.064,2.454.517,3.681-3.616,3.875-.517,0-1.033-.129-1.55-.129a4.85,4.85,0,0,0-3.616,2.131c-1.808,2.583-.775,5.554,1.033,7.814.84.969,2.2-.452,1.421-1.421Z" transform="translate(-1191.737 -280.414)"/></g></g><g transform="translate(73.677 146.824)"><path class="c" d="M345.876,368.736c5.36-6.458,12.98-11.753,21.763-10.849,9.557.969,14.272,8.589,15.176,17.5,1.55,14.788-2.066,32.482,7.943,45.075,3.939,4.972,9.816,7.62,16.144,6.07,7.62-1.808,13.561-7.814,20.342-11.366,8.008-4.2,19.05-6.458,26.283.581,5.3,5.166,6.458,13.045,8.2,19.89,1.614,6.2,4.391,13.045,9.945,16.725,3.358,2.2,7.039,2.389,10.914,2.131,4.327-.323,13.174-.581,12.27,6.2-.129,1.227,1.808,1.227,1.937,0a6.614,6.614,0,0,0-3.035-6.329c-3.358-2.454-7.233-2.066-11.172-1.808-4.456.323-8.266-.065-11.688-3.229-3.1-2.841-4.972-6.845-6.329-10.784-2.26-6.781-2.906-14.207-6.781-20.406-3.81-6.135-10.4-9.105-17.5-8.847-8.976.323-16.532,5.489-23.7,10.268-3.423,2.26-7.1,4.65-11.3,5.36-5.037.84-9.493-1.356-12.722-5.1-6.07-7.1-7.039-17.242-7.362-26.154-.323-8.33.775-17.371-2-25.443a18.049,18.049,0,0,0-16.6-12.334c-8.912-.452-16.725,4.908-22.215,11.495-.71.969.646,2.325,1.485,1.356Z" transform="translate(-344.192 -355.859)"/></g><g transform="translate(42.605 257.893)"><g transform="translate(0 0)"><path class="c" d="M296.22,529.3a478.474,478.474,0,0,1,26.993,52.049c.517,1.162,2.2.129,1.679-.969A490.17,490.17,0,0,0,297.9,528.335a.969.969,0,0,0-1.679.969Z" transform="translate(-296.075 -527.852)"/></g></g><g transform="translate(42.526 229.648)"><path class="c" d="M297.4,513.035c15.692-9.751,31.837-18.857,48.433-27.122,1.1-.581.129-2.26-.969-1.679-16.532,8.266-32.676,17.371-48.433,27.122-1.1.71-.129,2.389.969,1.679Z" transform="translate(-295.952 -484.113)"/></g><g transform="translate(91.147 229.114)"><path class="c" d="M371.345,484.781q12.3,25.863,26.025,50.951c.581,1.1,2.26.129,1.679-.969-9.17-16.726-17.888-33.709-26.025-50.951-.581-1.162-2.2-.194-1.679.969Z" transform="translate(-371.244 -483.287)"/></g><g transform="translate(70.529 281.285)"><g transform="translate(0 0)"><path class="c" d="M340.726,594.572q23.151-13.949,45.785-28.672c1.033-.646.065-2.325-.969-1.679q-22.667,14.724-45.785,28.672c-1.033.646-.065,2.325.969,1.679Z" transform="translate(-339.316 -564.075)"/></g></g><g transform="translate(70.61 251.967)"><path class="c" d="M339.544,519.6a208.609,208.609,0,0,0,2.131,37c.194,1.227,2.066.71,1.873-.517a202.817,202.817,0,0,1-2.066-36.486c.065-1.227-1.873-1.227-1.937,0Z" transform="translate(-339.441 -518.675)"/></g><g transform="translate(70.443 250.653)"><path class="c" d="M339.517,518.229c8.976,7.039,17.952,13.949,27.058,20.794.969.775,1.937-.9.969-1.679q-13.464-10.074-26.67-20.471c-.969-.775-2.325.581-1.356,1.356Z" transform="translate(-339.184 -516.642)"/></g><g transform="translate(73.164 271.251)"><path class="c" d="M345.078,567.564c7.426-6.651,17.113-10.2,24.152-17.371.9-.9-.517-2.26-1.356-1.356-7.039,7.1-16.661,10.72-24.152,17.371-.969.775.452,2.131,1.356,1.356Z" transform="translate(-343.397 -548.538)"/></g><g transform="translate(43.882 264.671)"><g transform="translate(0 0)"><path class="c" d="M299.5,543.161c2.066-1.033,4.133-2,6.2-3.035,1.1-.517.129-2.2-.969-1.679-2.066,1.033-4.133,2-6.2,3.035-1.1.581-.129,2.2.969,1.679Z" transform="translate(-298.052 -538.349)"/></g></g><g transform="translate(50.552 275.548)"><g transform="translate(0 0)"><path class="c" d="M309.814,560.1a35.234,35.234,0,0,1,5.554-2.971c1.162-.452.646-2.325-.517-1.873a41.617,41.617,0,0,0-6.07,3.164c-.969.71,0,2.389,1.033,1.679Z" transform="translate(-308.381 -555.192)"/></g></g><g transform="translate(57.83 288.691)"><g transform="translate(0 0)"><path class="c" d="M321.1,579.972c1.808-.9,3.616-1.808,5.424-2.648,1.1-.581.129-2.2-.969-1.679-1.808.9-3.616,1.808-5.424,2.648-1.1.517-.129,2.2.969,1.679Z" transform="translate(-319.652 -575.544)"/></g></g><g transform="translate(61.338 299.452)"><path class="c" d="M326.773,598.531a36.891,36.891,0,0,1,6.393-4.52.97.97,0,0,0-.969-1.679,40.67,40.67,0,0,0-6.781,4.843c-.969.839.387,2.2,1.356,1.356Z" transform="translate(-325.084 -592.208)"/></g><g transform="translate(93.496 239.236)"><path class="c" d="M376.314,503.055a14.615,14.615,0,0,1,4.779-2.2.972.972,0,0,0-.517-1.873,15.065,15.065,0,0,0-5.3,2.389c-.969.71,0,2.389,1.033,1.679Z" transform="translate(-374.881 -498.961)"/></g><g transform="translate(99.224 248.609)"><path class="c" d="M385.2,519.239c2.066-1.292,4.133-2.583,6.135-3.939,1.033-.646.065-2.325-.969-1.679-2.066,1.292-4.133,2.583-6.135,3.939-1.1.71-.129,2.389.969,1.679Z" transform="translate(-383.752 -513.475)"/></g><g transform="translate(105.783 262.928)"><path class="c" d="M395.388,540.332c2.2-.969,4.456-1.937,6.651-2.906,1.162-.517.129-2.2-.969-1.679-2.2.969-4.456,1.937-6.651,2.906-1.162.517-.129,2.2.969,1.679Z" transform="translate(-393.908 -535.649)"/></g><g transform="translate(110.323 270.138)"><path class="c" d="M402.593,552.94a29.574,29.574,0,0,1,5.812-4.327c1.1-.581.129-2.26-.969-1.679a30.81,30.81,0,0,0-6.2,4.585.983.983,0,0,0,1.356,1.421Z" transform="translate(-400.938 -546.813)"/></g><g transform="translate(77.256 301.824)"><g transform="translate(0 0)"><path class="c" d="M349.906,597.314a38.53,38.53,0,0,1,4,7.556c.452,1.162,2.325.646,1.873-.517a38.356,38.356,0,0,0-4.2-8.072c-.71-.969-2.389,0-1.679,1.033Z" transform="translate(-349.734 -595.881)"/></g></g><g transform="translate(87.188 296.446)"><path class="c" d="M365.234,589c1.227,2.2,2.389,4.327,3.616,6.522.581,1.1,2.26.129,1.679-.969-1.227-2.2-2.389-4.327-3.616-6.522-.581-1.1-2.26-.129-1.679.969Z" transform="translate(-365.113 -587.552)"/></g><g transform="translate(98.618 288.244)"><g transform="translate(0 0)"><path class="c" d="M382.934,576.3l3.875,6.974c.581,1.1,2.26.129,1.679-.969l-3.875-6.974c-.581-1.1-2.26-.129-1.679.969Z" transform="translate(-382.813 -574.852)"/></g></g><g transform="translate(108.909 282.109)"><path class="c" d="M398.846,566.8c1.033,2.454,2.066,4.908,3.164,7.3.517,1.162,2.131.129,1.679-.969-1.033-2.454-2.066-4.908-3.164-7.3-.517-1.1-2.2-.129-1.679.969Z" transform="translate(-398.749 -565.352)"/></g><g transform="translate(50.29 247.214)"><path class="c" d="M308.12,512.726c1.227,2,2.389,4,3.616,5.941.646,1.1,2.325.065,1.679-.969-1.227-2-2.389-4-3.616-5.941-.646-1.033-2.325-.065-1.679.969Z" transform="translate(-307.975 -511.316)"/></g><g transform="translate(61.442 240.674)"><path class="c" d="M325.345,502.681l3.487,7.749c.517,1.162,2.2.129,1.679-.969l-3.487-7.749c-.581-1.162-2.2-.194-1.679.969Z" transform="translate(-325.244 -501.187)"/></g><g transform="translate(71.38 234.586)"><path class="c" d="M340.806,493.142a26.572,26.572,0,0,1,4,7.556c.387,1.162,2.26.646,1.873-.517a26.378,26.378,0,0,0-4.2-8.008c-.71-.969-2.389-.065-1.679.969Z" transform="translate(-340.634 -491.76)"/></g><g transform="translate(82.164 229.585)"><path class="c" d="M357.506,485.426c1.356,2.066,2.648,4.068,4,6.135.646,1.033,2.325.065,1.679-.969-1.356-2.066-2.648-4.068-4-6.135-.71-1.033-2.389-.065-1.679.969Z" transform="translate(-357.334 -484.016)"/></g><g transform="translate(175.416 82.857)"><path class="c" d="M509.075,276.885c-6.264-1.937-6.587-8.589-3.616-13.561,2.906-4.843,8.524-6.135,12.915-2.131a9.131,9.131,0,0,1,.581,12.786c-3.358,3.745-8.847,3.681-12.722.84-.969-.775-1.937.9-.969,1.679,4.908,3.616,12.076,3.035,15.757-2.066a11.074,11.074,0,0,0-2.906-15.886c-12.915-8.33-24.023,15.692-9.557,20.213a.971.971,0,0,0,.517-1.873Z" transform="translate(-501.737 -256.804)"/></g><g transform="translate(186.183 91.832)"><path class="c" d="M525.378,283.487c-4.843,1.485-6.006-4.327-3.875-7.426a7.89,7.89,0,0,1,8.266-3.164,5.818,5.818,0,0,1,4.327,6.845c-.969,3.81-4.972,5.166-8.524,4.585-1.227-.194-1.744,1.679-.517,1.873,4.779.84,9.945-1.227,10.978-6.393.9-4.456-2.583-8.524-6.91-9.041-4.779-.581-10.009,2.906-10.655,7.814-.581,4.262,3.293,8.072,7.556,6.716,1.1-.323.581-2.2-.646-1.808Z" transform="translate(-518.41 -270.702)"/></g><g transform="translate(151.442 146.174)"><path class="c" d="M465.121,355.335c-1.55,3.164.646,6.329,3.875,7.168,2.454.646,5.037.065,7.556.194a22,22,0,0,1,7.878,1.873c5.424,2.454,8.912,6.91,9.105,12.915.194,5.037-1.292,10.268.9,15.046,4.65,10.074,17.436,2.389,24.023,8.912,5.489,5.489,3.229,15.5,10.591,19.7a.969.969,0,0,0,.969-1.679c-6.587-3.745-5.037-13.5-9.687-18.921-2.454-2.841-6.006-3.616-9.622-3.875-4.391-.258-10.074.646-13.3-3.1-3.745-4.391-1.744-10.978-1.937-16.144a15.5,15.5,0,0,0-4.327-10.655,20.517,20.517,0,0,0-9.235-5.166,25.051,25.051,0,0,0-5.36-.84c-2.325-.129-12.4,1.033-9.687-4.456.517-1.1-1.162-2.066-1.744-.969Z" transform="translate(-464.613 -354.852)"/></g><g transform="translate(0 493.308)"><path class="c" d="M231.069,894.337h35a.97.97,0,0,0,0-1.937h-35a.969.969,0,0,0,0,1.937Z" transform="translate(-230.1 -892.4)"/></g><g transform="translate(18.857 537.091)"><path class="c" d="M260.269,962.137h67.354a.97.97,0,0,0,0-1.937H260.269a.969.969,0,1,0,0,1.937Z" transform="translate(-259.3 -960.2)"/></g><g transform="translate(83.498 524.951)"><path class="c" d="M360.369,943.337h62.64a.97.97,0,0,0,0-1.937h-62.64a.969.969,0,0,0,0,1.937Z" transform="translate(-359.4 -941.4)"/></g><g transform="translate(430.641 516.631)"><path class="c" d="M898.149,935.416a80.1,80.1,0,0,1,31.837-1.162c4.52.71,9.105,1.421,13.69,1.033,4.456-.387,8.782-1.744,13.109-2.906,4.908-1.356,9.816-2.389,14.982-2,5.3.387,10.4,1.873,15.563,3.035a56.518,56.518,0,0,0,13.561,1.679,117.393,117.393,0,0,0,14.336-1.679c12.915-2.066,25.056-.775,37.842,1.356,1.227.194,1.744-1.679.517-1.873-10.332-1.679-20.729-3.423-31.255-2.389-10.978,1.1-21.181,3.81-32.289,1.55-9.3-1.873-18.146-4.779-27.7-2.971-5.1.969-9.945,2.777-15.047,3.745-5.683,1.1-11.172.452-16.855-.452a82.9,82.9,0,0,0-32.87,1.162c-1.1.323-.581,2.2.581,1.873Z" transform="translate(-896.963 -928.517)"/></g><g transform="translate(530.09 498.398)"><path class="c" d="M1051.891,905.783q30.416-1.647,60.832-3.229a156.834,156.834,0,0,1,29.641,1.033,52.92,52.92,0,0,0,13.174.194c4.972-.581,10.139-1.356,14.788,1.033,1.1.581,2.066-1.1.969-1.679-7.878-4-16.984-.258-25.443-1.033-5.037-.452-9.945-1.421-14.982-1.679-5.231-.258-10.462-.129-15.692.129-21.117.969-42.234,2.26-63.35,3.358a.938.938,0,0,0,.065,1.873Z" transform="translate(-1050.962 -900.282)"/></g><g transform="translate(132.989 553.706)"><path class="c" d="M436.982,991.593c9.557.9,19.179,1.808,28.737.71a75.69,75.69,0,0,0,13.045-2.777,33.9,33.9,0,0,1,16.467-1.1c4.456.775,8.847,1.873,13.3,2.26a79.631,79.631,0,0,0,14.142-.323c9.88-.969,19.761-2.648,29.576-.452,1.227.258,1.744-1.614.517-1.873-9.428-2.066-18.857-.71-28.349.258a94.276,94.276,0,0,1-14.142.646c-5.36-.258-10.526-1.679-15.757-2.519a32.219,32.219,0,0,0-12.915.323c-4.65,1.162-9.041,2.712-13.82,3.423-10.2,1.485-20.6.452-30.8-.452-1.292-.194-1.227,1.744,0,1.873Z" transform="translate(-436.037 -985.929)"/></g><g transform="translate(229.106)"><path class="c" d="M591.867,166.793c-2.518-1.744-5.941-4.52-4.908-8.008,1.1-3.616,3.81-1.873,6.329-2.712,3.358-1.1,3.164-5.166,2.2-7.814-.969-2.583-3.035-8.847,2.325-6.716,1.227.517,2.131,1.356,3.552.9a3.575,3.575,0,0,0,2.26-2.777,12.154,12.154,0,0,0,0-3.423,14.9,14.9,0,0,1-.194-2.389c-.258-1.873.9-2.648,3.358-2.325.065,1.227,2,1.227,1.937,0A3.169,3.169,0,0,0,605.3,128.5c-2.26.065-3.487,2.26-3.745,4.327-.194,1.421.969,4.714.323,5.877-.775.517-1.55,1.1-2.389,1.614l-.969-.581a17.553,17.553,0,0,0-1.614-.71,3.74,3.74,0,0,0-4.327,2.583c-1.227,3.1.969,5.683,1.614,8.589.839,4-2.2,3.552-4.843,4a5.035,5.035,0,0,0-2.906,1.614c-4.068,4.714.646,9.945,4.52,12.657.969.71,1.937-.969.9-1.679Z" transform="translate(-584.878 -128.496)"/></g><g transform="translate(244.529 10.732)"><path class="c" d="M613.048,170.872c-2.131-2.454-3.745-5.812.387-7.1,1.033-.323,2.2-.194,3.164-.84,2.131-1.485,1.227-3.487.84-5.554-.194-1.162-.646-2.712.065-3.875.517-.84,2.389-1.162,3.358-1.356a11.784,11.784,0,0,0,3.939-1.292,3.867,3.867,0,0,0,1.227-5.3c-.646-1.033-2.325-.065-1.679.969,1.937,3.1-7.1,3.939-8.653,6.2-1.808,2.648,2,7.3-1.162,8.976-1.227.646-2.777.194-3.939,1.033a4.35,4.35,0,0,0-1.679,2.454c-.71,2.777,1.162,5.166,2.841,7.1.775.9,2.131-.452,1.292-1.421Z" transform="translate(-608.761 -145.116)"/></g><g transform="translate(169.02 9.301)"><path class="c" d="M495.363,154.782c-1.679-1.162-1.873-3.229-1.356-5.037.323-1.227,1.873-4.585,3.358-4.714,2.454-.258,3.681,2.841,4.327,4.65a18.511,18.511,0,0,1,.839,5.3.97.97,0,0,0,1.937,0c-.065-3.616-2.454-14.724-8.4-11.495-2.26,1.227-3.939,4.779-4.2,7.233a6.046,6.046,0,0,0,2.519,5.747c.969.71,1.937-.969.969-1.679Z" transform="translate(-491.833 -142.9)"/></g><g transform="translate(158.536 22.192)"><path class="c" d="M488.838,162.887c-2.325.581-4.65,1.162-7.039,1.744-1.356.323-3.681.452-4.779,1.485-1.873,1.744-1.356,7.1-1.356,9.364a.95.95,0,0,0,1.227.9c.323-.065.646-.194,1.033-.258,1.679-.9,2.519-.323,2.583,1.614,1.292,1.292,1.292,2.066,0,2.2a6.048,6.048,0,0,1-2.389.452.993.993,0,0,0-.969.969c.129,4.133.452,8.2.9,12.334.129,1.227,2.066,1.227,1.937,0-.452-4.133-.775-8.2-.9-12.334l-.969.969c2.712-.323,7.039-1.421,6.458-5.1-.646-3.939-5.424-3.487-8.137-2.712a14.9,14.9,0,0,0,1.227.9c0-1.485,0-2.906.129-4.391.194-2.325.065-3.164,2.2-4,2.906-1.162,6.329-1.55,9.364-2.325,1.227-.194.71-2.066-.517-1.808Z" transform="translate(-475.599 -162.862)"/></g><g transform="translate(180.154 20.812)"><path class="c" d="M510,162.711a49.726,49.726,0,0,1,8.2.194c2.583.323,2.454.71,2.841,2.971.258,1.421.323,2.906.452,4.327.517,5.554.9,11.107,1.227,16.661.065,1.227,2,1.227,1.937,0-.387-7.556-.646-15.3-1.873-22.8-.323-1.873-.646-2.454-2.583-2.777a41.615,41.615,0,0,0-10.2-.452c-1.227,0-1.227,1.937,0,1.873Z" transform="translate(-509.075 -160.725)"/></g><g transform="translate(161.194 46.329)"><path class="c" d="M480.932,208.286c3.81-.646,7.62-1.292,11.366-1.937,4.327-.71,8.46-.387,12.786-.71,2-.194,11.495-1.162,8.008-5.1-.84-.9-2.2.452-1.356,1.356.517.581-8.266,1.873-8.46,1.873-2.712.065-5.424-.065-8.137.258-4.908.581-9.816,1.614-14.724,2.454-1.227.129-.71,2,.517,1.808Z" transform="translate(-479.714 -200.238)"/></g></g><g transform="translate(716.636 523.664)"><path class="d" d="M1012.481,788.6c-.194,6.781-.387,13.561-.581,20.406,8.589.581,17.113,1.1,25.7,1.679V789.762C1029.207,789.375,1020.876,788.987,1012.481,788.6Z" transform="translate(-993.571 -788.6)"/><path class="d" d="M1025.938,904.521c1.162,7.491,1.679,13.69,1.937,18.146.84,14.788.194,18.211-1.1,20.923-3.164,6.651-8.912,9.428-8.4,10.332.387.581,3.229-.065,15.886-6.716-.775-14.724-1.485-29.383-2.26-44.106C1030.006,903.617,1028,904.069,1025.938,904.521Z" transform="translate(-995.855 -829.159)"/><path class="d" d="M1004.2,831.8c10.978.065,21.956.194,32.934.258-1.227,14.724-2.389,29.383-3.616,44.106-9.557-.775-19.179-1.485-28.737-2.26Q1004.394,852.885,1004.2,831.8Z" transform="translate(-990.843 -803.903)"/><path class="d" d="M1005.429,904.323a68.391,68.391,0,0,1,5.037,20.665c.581,7.233.969,12.786-2.519,16.467-1.292,1.421-3.423,2.777-7.556,5.554-3.681,2.454-5.424,3.358-5.3,3.616.194.387,3.745-.387,19.244-5.876a90.694,90.694,0,0,0,1.679-19.825,89.335,89.335,0,0,0-3.1-20.923C1010.466,904.129,1007.947,904.194,1005.429,904.323Z" transform="translate(-987.616 -829.478)"/><g transform="translate(21.769 114.366)"><path class="e" d="M1018.888,976.678a59.834,59.834,0,0,0,5.489-5.231c2-2.2,4.972-5.554,8.072-2.648l.194-1.55c-4.585,2.26-9.105,4.52-13.69,6.716a.973.973,0,0,0,.517,1.808c4.327.065,7.039-7.491,11.495-6.07,1.162.387,1.679-1.485.517-1.873a5.33,5.33,0,0,0-5.037,1.1c-1.873,1.356-4.521,4.908-6.91,4.908.194.581.323,1.227.517,1.808,4.585-2.26,9.105-4.52,13.69-6.716a.971.971,0,0,0,.194-1.55,6.82,6.82,0,0,0-7.039-1.162c-1.614.71-2.648,2.583-3.81,3.81a70.008,70.008,0,0,1-5.489,5.231c-1.033.84.323,2.26,1.292,1.421Z" transform="translate(-1017.227 -965.7)"/></g><g transform="translate(30.453 113.268)"><path class="e" d="M1031.6,966a15.41,15.41,0,0,1,5.618,1.227c1.1.517,2.131-1.162.969-1.679A16.682,16.682,0,0,0,1031.6,964c-1.227.065-1.227,2,0,2Z" transform="translate(-1030.675 -964)"/></g><g transform="translate(20.124 111.15)"><path class="e" d="M1015.338,962.579a7.572,7.572,0,0,1,3.81,2.325c.839.9,2.2-.452,1.356-1.356a9.779,9.779,0,0,0-4.714-2.777c-1.1-.387-1.615,1.485-.452,1.808Z" transform="translate(-1014.679 -960.719)"/></g><g transform="translate(8.953 112.618)"><path class="e" d="M998.749,971.2c2-1.485,4.068-2.841,6.2-4.133a15.626,15.626,0,0,1,3.035-1.679c1.614-.581,2.583-.194,4.068.452V964.16c-2.067.9-4.391.839-6.522,1.744-2.066.839-4,2.906-6.135,3.293l.775,1.744c3.81-1.873,8.072-2.2,11.882-4.068,1.1-.581.129-2.2-.969-1.679-3.81,1.873-8.072,2.2-11.882,4.068-1.033.517-.258,1.937.775,1.744,2.325-.387,4.2-2.519,6.393-3.358s4.585-.9,6.716-1.808a.97.97,0,0,0,0-1.679c-2.454-1.1-3.552-1.744-6.006-.452a70.94,70.94,0,0,0-9.17,5.812c-1.162.71-.194,2.389.839,1.679Z" transform="translate(-997.381 -962.993)"/></g><g transform="translate(20.192 82.379)"><path class="e" d="M1015.957,918.513a5.714,5.714,0,0,1,4.714.258c1.1.581,2.066-1.1.969-1.679a7.444,7.444,0,0,0-6.2-.452c-1.162.452-.646,2.325.517,1.873Z" transform="translate(-1014.785 -916.167)"/></g><g transform="translate(22.058 89.229)"><path class="e" d="M1018.6,928.728a4.746,4.746,0,0,1,3.681,1.1c.969.775,2.325-.581,1.356-1.356a7.125,7.125,0,0,0-5.037-1.679c-1.227.065-1.227,2,0,1.937Z" transform="translate(-1017.675 -926.775)"/></g><g transform="translate(22.779 97.276)"><path class="e" d="M1019.7,941.215a3.238,3.238,0,0,1,3.1,1.356c.646,1.033,2.325.065,1.679-.969a4.819,4.819,0,0,0-4.714-2.325.993.993,0,0,0-.969.969.9.9,0,0,0,.9.969Z" transform="translate(-1018.79 -939.236)"/></g><g transform="translate(30.568 81.938)"><path class="e" d="M1032.3,917.819a3.33,3.33,0,0,1,3.746.323c.969.775,2.325-.581,1.356-1.356a5.381,5.381,0,0,0-6.07-.646.969.969,0,0,0,.969,1.679Z" transform="translate(-1030.852 -915.484)"/></g><g transform="translate(31.616 94.354)"><path class="e" d="M1033.976,936.835a2.777,2.777,0,0,1,3.035.517c.9.839,2.325-.517,1.356-1.356a4.8,4.8,0,0,0-5.424-.775c-1.1.452-.065,2.131,1.033,1.615Z" transform="translate(-1032.475 -934.711)"/></g><g transform="translate(31.965 104.433)"><path class="e" d="M1034.426,952.7a2.813,2.813,0,0,1,3.293.129c.969.775,2.325-.581,1.356-1.356a4.665,4.665,0,0,0-5.618-.387c-1.033.646-.065,2.325.969,1.614Z" transform="translate(-1033.016 -950.318)"/></g><path class="f" d="M1055.475,832.1l-3.875,44.558" transform="translate(-1007.634 -804.009)"/><path class="f" d="M1004.8,897.9c10.784.775,21.569,1.485,32.353,2.26" transform="translate(-991.056 -827.317)"/><path class="f" d="M1054.54,789.5c-.258,7.362-.581,14.659-.84,22.021" transform="translate(-1008.378 -788.919)"/><g transform="translate(45.138 34.73)"><path class="e" d="M1055.794,844.459c6.006-1.1,12.4,3.616,12.851,9.816.646,7.749-8.2,9.105-14.013,8.266-1.227-.194-1.744,1.679-.517,1.873,7.1,1.033,17.113-.969,16.467-10.139-.517-7.556-8.072-13.045-15.3-11.688-1.227.194-.71,2.067.517,1.873Z" transform="translate(-1053.414 -842.38)"/></g><g transform="translate(45.4 56.426)"><path class="e" d="M1054.517,877.865a6.811,6.811,0,0,1,5.231,4.779.972.972,0,0,0,1.873-.517,8.44,8.44,0,0,0-6.522-6.135c-1.292-.194-1.808,1.614-.581,1.873Z" transform="translate(-1053.82 -875.978)"/></g><g transform="translate(44.957 56.257)"><path class="e" d="M1053.306,877.126a11.183,11.183,0,0,1,2,7.556c-.065,1.227,1.873,1.227,1.937,0a13.354,13.354,0,0,0-2.325-8.524c-.646-1.033-2.325-.065-1.615.969Z" transform="translate(-1053.134 -875.716)"/></g><g transform="translate(0 35.345)"><path class="e" d="M996.809,843.893c-4.262-2.712-12.076,5.1-13.045,8.912-1.937,7.749,8.008,6.845,12.141,9.428,1.033.646,2-1.033.969-1.679-2.971-1.873-7.362-1.162-9.945-3.487-3.164-2.841-.258-6.264,1.937-8.266,1.162-1.033,5.1-4.456,6.974-3.293,1.033.775,2.067-.9.969-1.614Z" transform="translate(-983.517 -843.332)"/></g><g transform="translate(6.158 53.271)"><path class="e" d="M999.154,871.162a12.244,12.244,0,0,0-4.521,2.97c-.969,1.033-2.2,2.648-1.227,4.068.71,1.033,2.389.065,1.679-.969-.452-.646,1.227-2.066,1.679-2.454a8.315,8.315,0,0,1,2.906-1.744c1.162-.452.71-2.325-.516-1.873Z" transform="translate(-993.053 -871.092)"/></g><g transform="translate(10.139 54.255)"><path class="e" d="M1000.562,873.058a8.445,8.445,0,0,0-1.162,6.329c.258,1.227,2.131.71,1.873-.517a6.149,6.149,0,0,1,.969-4.843c.71-1.033-.969-2-1.679-.969Z" transform="translate(-999.217 -872.616)"/></g><g transform="translate(17.406 33.758)"><path class="e" d="M1010.684,841.8a104.312,104.312,0,0,0,.065,14.207c.129,1.227,2.066,1.227,1.937,0a94.852,94.852,0,0,1-.065-14.207c.129-1.227-1.808-1.227-1.937,0Z" transform="translate(-1010.471 -840.875)"/></g><g transform="translate(18.119 33.256)"><path class="e" d="M1012.5,842.036c6.845.387,13.626.646,20.471.775l-.969-.969c-.194,4.843-.387,9.751-.646,14.594-.065,1.227,1.873,1.227,1.937,0,.194-4.843.387-9.751.646-14.594a.993.993,0,0,0-.969-.969c-6.845-.129-13.626-.387-20.471-.775-1.227-.065-1.227,1.873,0,1.937Z" transform="translate(-1011.575 -840.098)"/></g><g transform="translate(17.605 47.814)"><path class="e" d="M1011.438,864.552c2.841.775,6.006.581,8.847.775,3.487.194,7.039.452,10.526.646,1.227.065,1.227-1.873,0-1.937l-9.3-.581c-3.1-.194-6.587,0-9.622-.775-1.1-.323-1.614,1.55-.452,1.873Z" transform="translate(-1010.779 -862.642)"/></g><g transform="translate(20.363 58.261)"><path class="e" d="M1015.146,880.292c1.162,2.519,3.681.323,5.618,1.227.9.387.71.969,1.937,1.033,1.421.065,4.908-2.777,5.618-.129a1,1,0,0,0,1.614.452c.646-.194,1.356-.387,2-.517.775.969,2.2-.452,1.356-1.356-1.485-1.744-3.358-.775-4.779.517a15.077,15.077,0,0,1,1.614.452,3.824,3.824,0,0,0-5.231-2.712c-1.1.517-1.227,1.485-2.906.839-.323-.129-.452-.646-.775-.775-.71-.258-4.456.129-4.456.065-.452-1.227-2.131-.258-1.614.9Z" transform="translate(-1015.049 -878.818)"/></g><g transform="translate(22.037 6.186)"><path class="e" d="M1019.488,800.905a1.08,1.08,0,0,1,1.55-.646c.84.323,1.292,1.292,1.679,2,.517,1.1,2.2.129,1.679-.969-.71-1.421-1.808-2.906-3.552-3.1a2.87,2.87,0,0,0-3.164,2.131c-.323,1.292,1.55,1.808,1.808.581Z" transform="translate(-1017.642 -798.18)"/></g><g transform="translate(33.878 7.013)"><path class="e" d="M1037.865,802.263a.976.976,0,0,1,1.356-.775c.775.258,1.1,1.227,1.227,1.937.194,1.227,2.066.71,1.873-.517a3.927,3.927,0,0,0-2.971-3.423,2.962,2.962,0,0,0-3.358,2.26c-.194,1.227,1.679,1.744,1.873.517Z" transform="translate(-1035.978 -799.46)"/></g><g transform="translate(24.731 11.528)"><path class="e" d="M1021.934,807.9a6.183,6.183,0,0,0,10.268.969c.775-.969-.581-2.325-1.356-1.356a4.245,4.245,0,0,1-7.233-.581c-.581-1.1-2.26-.129-1.679.969Z" transform="translate(-1021.813 -806.452)"/></g></g><g transform="translate(604.244 40.675)"><g transform="translate(47.457 46.136)"><path class="e" d="M905.008,211.039c-8.137-3.293-13.045-11.172-16.015-19.05a63.218,63.218,0,0,1-4.068-25.9c.775-16.209,7.685-32.612,20.471-42.944,12.076-9.816,29.964-12.593,43.4-3.681,14.013,9.3,16.532,28.479,16.661,43.913.129,17.178-3.875,35.195-16.6,47.529-.9.839.452,2.26,1.356,1.356,12.076-11.753,16.661-28.543,17.113-44.946.452-16.08-1.485-36.422-14.724-47.464-12.4-10.332-30.8-9.816-44.042-1.421-14.659,9.3-23.312,26.154-25.185,43.138a66.763,66.763,0,0,0,4,31.385c3.293,8.4,8.524,16.4,17.178,19.89,1.1.517,1.55-1.356.452-1.808Z" transform="translate(-882.963 -112.119)"/></g><g transform="translate(67.241 145.284)"><path class="e" d="M914.956,266.652a7.256,7.256,0,0,0,1.485,10.009c2.454,1.744,6.07,2,8.976,2.389a72.353,72.353,0,0,0,10.591.71c6.328-.065,13.561-.517,19.438-2.971,4.262-1.808,7.491-6.07,5.231-10.655-.517-1.1-2.2-.129-1.679.969,4.843,9.88-18.082,10.72-23.054,10.72a73.759,73.759,0,0,1-13.626-1.227c-2.131-.387-4.52-.775-5.876-2.648a5.436,5.436,0,0,1,.194-6.264c.71-1.1-.969-2.066-1.679-1.033Z" transform="translate(-913.599 -265.652)"/></g><g transform="translate(70.664 155.269)"><path class="e" d="M918.9,282.59a82.14,82.14,0,0,0,.452,9.751,4.9,4.9,0,0,0,1.744,3.681c1.744,1.292,4.65,1.227,6.716,1.421a95.417,95.417,0,0,0,10.526.129c3.293-.129,6.587-.387,9.88-.71,1.937-.194,4.133-.129,5.618-1.614,3.293-3.229,3.358-9.364,2.518-13.432-.258-1.227-2.131-.71-1.873.517a16.468,16.468,0,0,1,.129,6.651c-.646,3.164-1.55,5.231-5.1,5.877a79.221,79.221,0,0,1-12.98.839c-4.133.065-8.783.258-12.851-.71-3.745-.9-2.777-9.3-2.777-12.4-.065-1.227-2-1.227-2,0Z" transform="translate(-918.9 -281.114)"/></g><g transform="translate(70.869 85.345)"><path class="e" d="M919.659,174.685a41.763,41.763,0,0,1,16.919,20.471c.452,1.162,2.325.646,1.873-.517a44,44,0,0,0-17.759-21.633c-1.1-.71-2.067.969-1.033,1.679Z" transform="translate(-919.219 -172.834)"/></g><g transform="translate(88.002 85.645)"><path class="e" d="M947.526,195.32a53.7,53.7,0,0,1,16.467-20.148c.969-.71,0-2.454-.969-1.679a56.671,56.671,0,0,0-17.177,20.858c-.517,1.1,1.162,2.066,1.679.969Z" transform="translate(-945.749 -173.299)"/></g><g transform="translate(88.222 104.438)"><path class="e" d="M946.1,203.369c.969,13.3,1.421,26.606,1.227,39.909a.97.97,0,0,0,1.937,0c.194-13.3-.258-26.67-1.227-39.909-.129-1.292-2.066-1.292-1.937,0Z" transform="translate(-946.09 -202.4)"/></g><g transform="translate(11.391 127.31)"><path class="e" d="M828.332,248.462c8.589-2.906,17.113-5.812,25.7-8.718,1.162-.387.646-2.26-.517-1.873-8.589,2.906-17.113,5.812-25.7,8.718a.971.971,0,0,0,.517,1.873Z" transform="translate(-827.114 -237.819)"/></g><g transform="translate(21.234 120.545)"><path class="e" d="M843.547,231.835c2.97-.84,5.941-1.744,8.912-2.583a.972.972,0,0,0-.517-1.873c-2.971.84-5.941,1.744-8.912,2.583-1.162.387-.71,2.26.517,1.873Z" transform="translate(-842.357 -227.342)"/></g><g transform="translate(0 101.587)"><path class="e" d="M810.4,199.932c11.366-.129,22.667.194,33.968.9,1.227.065,1.227-1.873,0-1.937-11.3-.71-22.667-.969-33.968-.9a.97.97,0,0,0,0,1.937Z" transform="translate(-809.475 -197.985)"/></g><g transform="translate(24.241 92.841)"><path class="e" d="M847.715,186.352a35.85,35.85,0,0,0,8.266,1.1.97.97,0,0,0,0-1.937,34.456,34.456,0,0,1-7.749-1.033.972.972,0,0,0-.517,1.873Z" transform="translate(-847.014 -184.442)"/></g><g transform="translate(20.421 33.009)"><path class="e" d="M841.422,93.411a211.909,211.909,0,0,1,27.7,28.737c.775.969,2.131-.387,1.356-1.356a208.211,208.211,0,0,0-27.7-28.737c-.9-.84-2.325.517-1.356,1.356Z" transform="translate(-841.097 -91.791)"/></g><g transform="translate(48.831 51.315)"><path class="e" d="M885.355,121.793c1.744,1.808,3.423,3.616,5.166,5.489.84.9,2.2-.452,1.356-1.356-1.744-1.808-3.423-3.616-5.166-5.489-.839-.9-2.2.452-1.356,1.356Z" transform="translate(-885.091 -120.138)"/></g><g transform="translate(9.284 54.762)"><path class="e" d="M824.335,127.3q4.746,2.809,9.687,5.231c1.1.581,2.066-1.1.969-1.679q-4.94-2.519-9.687-5.231a.969.969,0,0,0-.969,1.679Z" transform="translate(-823.852 -125.475)"/></g><g transform="translate(120.477 11.536)"><path class="e" d="M997.693,88.865l28.672-28.672c.9-.9-.517-2.26-1.356-1.356L996.336,87.509a.959.959,0,0,0,1.356,1.356Z" transform="translate(-996.038 -58.538)"/></g><g transform="translate(130.343 39.107)"><path class="e" d="M1012.726,108.445c2.454-1.808,4.908-3.552,7.362-5.36.969-.71.064-2.389-.969-1.679-2.454,1.808-4.908,3.552-7.362,5.36-1.033.71-.065,2.389.969,1.679Z" transform="translate(-1011.316 -101.234)"/></g><g transform="translate(90.4)"><path class="e" d="M951.359,69.88A262.4,262.4,0,0,0,955.686,41.6c.129-1.227-1.808-1.227-1.937,0a252.923,252.923,0,0,1-4.262,27.768c-.258,1.227,1.614,1.744,1.873.517Z" transform="translate(-949.462 -40.675)"/></g><g transform="translate(145.662 81.829)"><path class="e" d="M1035.982,174.177c17.565-1.614,35.066-3.229,52.63-4.843,1.227-.129,1.227-2.066,0-1.937-17.565,1.614-35.065,3.229-52.63,4.843-1.227.065-1.292,2,0,1.937Z" transform="translate(-1035.037 -167.39)"/></g><g transform="translate(72.093 146.582)"><path class="e" d="M921.815,269.689a75.265,75.265,0,0,0,32.87-.129c1.227-.258.71-2.131-.517-1.873a72.555,72.555,0,0,1-31.837.129c-1.227-.258-1.744,1.614-.517,1.873Z" transform="translate(-921.114 -267.662)"/></g><g transform="translate(73.489 163.067)"><path class="e" d="M924.2,295.134a124.985,124.985,0,0,0,25.056.775c1.227-.065,1.227-2,0-1.937A124.985,124.985,0,0,1,924.2,293.2c-1.227-.129-1.227,1.808,0,1.937Z" transform="translate(-923.275 -293.19)"/></g><g transform="translate(133.96 140.235)"><path class="e" d="M1017.358,259.685q19.664,13.852,40.038,26.735c1.033.646,2-1.033.969-1.679q-20.342-12.883-40.038-26.735c-1.033-.71-2,.969-.969,1.679Z" transform="translate(-1016.916 -257.834)"/></g></g><g transform="translate(515.806 498.801)"><path class="g" d="M741.944,964.1q-18.4,22.57-36.745,45.075c14.4,50.629,22.537,63.932,27.381,63.221,3.487-.517,5.166-8.072,7.039-16.532a110.259,110.259,0,0,0-.969-50.564c7.749-8.653,15.434-17.371,23.183-26.025C755.183,974.239,748.6,969.2,741.944,964.1Z" transform="translate(-684.1 -825.904)"/><path class="a" d="M685.1,810.8c7.685,5.941,15.046,3.81,30.287,6.393a117.582,117.582,0,0,1,43.073,16.726q-24.8,29.06-49.466,61.413c-3.939,5.231-7.878,10.461-11.688,15.692a120.529,120.529,0,0,1,22.215,7.556,118.858,118.858,0,0,1,19.89,11.366c24.6-21.44,46.56-42.169,66.127-61.736,9.041-9.041,21.827-22.86,23.829-42.427a24.9,24.9,0,0,0,.129-3.035c-.452-32.482-41.329-55.988-66.192-64.642-27.187-9.428-73.941-14.53-86.986,8.008C668.634,779.418,673.155,801.568,685.1,810.8Z" transform="translate(-672.525 -750.099)"/><path class="h" d="M746.2,793.8a110.734,110.734,0,0,1-9.3,36.68c-2.131.839-4.2,1.679-6.329,2.519,13.884,5.489,27.833,10.978,41.717,16.467Q756.8,867.192,741.1,886.6q-16.177,19.954-30.8,39.2c6.91,2.26,13.755,4.52,20.665,6.716q37.1-40.877,74.2-81.819c2.583-7.426,2.454-13.238,1.679-17.307C803.291,813.5,778.946,797.287,746.2,793.8Z" transform="translate(-685.906 -765.579)"/><path class="i" d="M772.448,879.8c2.26,3.422,4.456,6.91,6.716,10.332q-28.866,34.775-57.732,69.485c-3.423-.9-6.91-1.873-10.332-2.777,12.334-16.919,25.637-34.29,40.038-51.791Q761.89,891.973,772.448,879.8Z" transform="translate(-686.19 -796.043)"/></g><g transform="translate(393.366 497.462)"><path class="g" d="M703.766,926.1c19.05,3.487,38.165,6.91,57.215,10.4,22.021,48.045,24.475,63.544,20.342,66.192-2.971,1.873-9.17-2.777-16.08-8.008a110.669,110.669,0,0,1-32.159-39.263c-11.495-1.55-22.989-3.164-34.484-4.714C700.279,942.5,702.023,934.3,703.766,926.1Z" transform="translate(-559.322 -811.104)"/><path class="a" d="M588.1,756.017c-34.743,10.2-55.924,31.385-69.55,45.333-18.4,18.921-41.007,42.1-34.484,59.217,3.358,8.718,13.561,14.078,61.09,22.344,35.9,6.264,67.031,9.622,91.312,11.495,3.035-11.107,6.07-22.15,9.041-33.257q-36.615-11.818-73.166-23.571c14.982-3.164,30.739-6.91,47.141-11.495q18.7-5.231,35.647-10.914c10.461-21.117,12.722-43.912,1.808-56.828C641.7,740.26,607.542,750.269,588.1,756.017Z" transform="translate(-482.923 -748.025)"/><path class="j" d="M692.769,795a90.451,90.451,0,0,1-4.391,23.635,94.285,94.285,0,0,1-5.941,14.207c-1.744.129-3.487.323-5.231.452q-22.085,7.265-47.012,13.69c-10.72,2.777-21.181,5.166-31.32,7.362q36.712,11.527,73.424,22.99-.775,3.971-1.937,8.331c-.9,3.358-1.937,6.458-2.906,9.3L566.133,869.974c-1.55-1.873-6.651-8.653-5.877-17.63.839-9.751,10.139-16.661,22.021-22.99C616.632,811.144,674.235,798.81,692.769,795Z" transform="translate(-510.289 -764.665)"/><path class="k" d="M530.7,993.8" transform="translate(-499.847 -835.086)"/><path class="l" d="M593.2,888.221c6.135-.452,12.334-.9,18.469-1.421q36.131,12.011,72.262,24.087c-1.033,3.81-2.066,7.685-3.1,11.495Q637.048,905.237,593.2,888.221Z" transform="translate(-521.986 -797.183)"/></g><g transform="translate(489.442 342.531)"><path class="d" d="M631.7,524.7a120.143,120.143,0,0,1,48.239-15.951c33.839-3.552,59.8,8.589,70.066,14.078-1.873,25.379-4.779,45.656-7.1,59.6-2.777,16.661-5.037,25.9-6.07,41.2A214.791,214.791,0,0,0,738.64,668.9a153.742,153.742,0,0,1-96.478-1.808,225.2,225.2,0,0,0,.517-53.922c-1.614-13.884-3.81-20.665-6.458-37.455A368.392,368.392,0,0,1,631.7,524.7Z" transform="translate(-631.7 -508.109)"/><path class="m" d="M713.156,517.847a142.239,142.239,0,0,1,3.939,19.825c.71,5.489,3.616,30.351-5.424,63.157-5.554,20.213-11.43,41.588-30.674,59.153a84.439,84.439,0,0,1-16.6,11.882,154.918,154.918,0,0,0,84.79-1.808c-.646-4.843-1.485-12.141-1.808-20.923-.258-7.685-.258-19.954,5.037-54.5,4.2-27.187,7.168-38.875,8.653-63.479.194-2.841.258-5.231.387-6.845a92.519,92.519,0,0,0-18.4-8.266,88.624,88.624,0,0,0-18.4-3.939Z" transform="translate(-643.283 -509.523)"/><path class="n" d="M764.44,547.3A355.768,355.768,0,0,1,752.3,595.8c-10.978,33.58-18.663,56.182-39.392,72.714A88.563,88.563,0,0,1,678.1,685.172a123.058,123.058,0,0,0,35.97,4.52,126.548,126.548,0,0,0,40.167-7.556,187.221,187.221,0,0,1-2.26-34.1c.452-18.663,3.487-29.9,6.845-50.37C760.694,585.659,763.084,568.481,764.44,547.3Z" transform="translate(-648.136 -521.991)"/></g><g transform="translate(440.319 358.799)"><path class="d" d="M604.367,533.3a113.188,113.188,0,0,0-28.608,28.608c-21.246,30.868-20.665,63.609-19.825,75.685a121.619,121.619,0,0,0,22.15,37.39c6.781,7.814,16.726,19.05,33.709,26.283a76.485,76.485,0,0,0,14.271,4.585c3.1-2.777,6.135-5.554,9.235-8.33-9.945-11.624-19.954-23.829-29.964-36.422q-11.527-14.433-22.15-28.608a80.651,80.651,0,0,1,10.591-37.39,79.4,79.4,0,0,1,15.24-18.921Q606.692,554.772,604.367,533.3Z" transform="translate(-555.631 -533.3)"/><path class="o" d="M612.3,555.6c-18.6,20.988-27.445,40.877-31.837,53.405-7.685,21.7-6.07,33.064-4.908,38.488.969,4.262,3.1,11.559,10.914,22.667,6.781,9.622,21.052,26.864,48.239,41.071,2.389-2.325,4.779-4.585,7.168-6.91q-11.527-12.98-23.248-27.252-15.4-18.7-28.672-36.744a81.911,81.911,0,0,1,25.573-56.57C614.369,574.392,613.336,565.028,612.3,555.6Z" transform="translate(-562.34 -541.199)"/><path class="p" d="M598.3,688.1a96.975,96.975,0,0,0,8.589,27.574c11.107,22.6,28.479,35.065,37.326,40.49,1.744-1.55,3.423-3.035,5.166-4.585Q623.808,719.807,598.3,688.1Z" transform="translate(-570.746 -588.134)"/></g><g transform="translate(573.586 357.636)"><path class="d" d="M797.343,531.5a120.7,120.7,0,0,1,32.095,28.091c23.894,30.287,23.183,62.446,22.279,74.328a118.484,118.484,0,0,1-24.862,36.744c-7.62,7.62-18.792,18.663-37.842,25.831a99.261,99.261,0,0,1-16.08,4.52c-3.423-2.712-6.91-5.424-10.332-8.137,11.107-11.43,22.408-23.377,33.645-35.776q12.883-14.239,24.862-28.091a72.048,72.048,0,0,0-11.882-36.744,81.53,81.53,0,0,0-17.113-18.6C793.92,559.591,795.664,545.578,797.343,531.5Z" transform="translate(-762.213 -531.5)"/><path class="p" d="M796.926,555.8a150.417,150.417,0,0,1,28.091,41.523c4.133,9.105,10.849,23.894,10.978,37.842.452,42.427-59.6,71.616-63.092,73.3-3.423-2.2-6.781-4.327-10.2-6.522q29.157-31.966,58.249-63.931a77.957,77.957,0,0,0-9.751-33.774,76.56,76.56,0,0,0-19.567-22.8C793.439,572.913,795.182,564.389,796.926,555.8Z" transform="translate(-762.248 -540.108)"/><path class="q" d="M821.346,683.4a90.659,90.659,0,0,1-5.1,18.082c-11.366,28.672-34.355,44.365-45.979,51.081-2.777-1.808-5.489-3.616-8.266-5.425Q791.641,715.269,821.346,683.4Z" transform="translate(-762 -585.307)"/></g><g transform="translate(464.774 459.927)"><rect class="d" width="158.795" height="100.547" transform="translate(0 0.581)"/><g transform="translate(64.255 34.435)"><path class="e" d="M705.851,769.233c-8.4,1.033-12.463-9.17-10.268-15.951,2.131-6.716,10.074-9.88,16.532-7.556,6.393,2.325,9.493,10.139,7.233,16.4-2.519,6.974-11.3,9.816-17.759,6.716-1.1-.517-2.131,1.162-.969,1.679a15.346,15.346,0,0,0,17.371-2.777c4.456-4.456,5.1-11.495,2.325-16.984-6.329-12.528-25.9-8.524-27.252,5.231-.71,7.362,4.585,16.209,12.786,15.24,1.227-.194,1.227-2.131,0-2Z" transform="translate(-693.001 -743.223)"/></g><path class="m" d="M678.078,690.258c21.5,7.491,36.163,26.67,36.615,47.271.581,25.831-21.117,50.112-50.693,52.566l113.01.969Q776.816,740.5,776.687,690,727.383,690,678.078,690.258Z" transform="translate(-618.473 -689.936)"/><path class="h" d="M802.444,689.9a166.494,166.494,0,0,1-8.072,47.077c-5.037,15.3-8.653,26.477-19.05,36.357-14.142,13.561-31.772,16.08-39.521,16.726q33.031.291,66.062.646.1-28.769.323-57.6C802.185,718.7,802.315,704.3,802.444,689.9Z" transform="translate(-643.907 -689.9)"/></g><g transform="translate(486.368 215.695)"><path class="d" d="M707.464,450.721c-3.552,4.327-.129,9.622-.775,23.764a88.13,88.13,0,0,1-2.389,16.532,38.855,38.855,0,0,0,15.3,3.616,39.31,39.31,0,0,0,18.146-4,52.289,52.289,0,0,1-4.456-12.915c-2.906-14.465,2.26-21.246-2-26.606C726.321,444.909,712.243,444.845,707.464,450.721Z" transform="translate(-654.342 -359.409)"/><path class="d" d="M667.642,342.823a41.478,41.478,0,0,0-1.614,23.958c-.387.065-7.943,1.679-10.009,7.491-2.066,5.877,2.2,14.207,11.107,16.919,3.229,7.878,11.043,23.119,27.51,31.449a51.294,51.294,0,0,0,8.072,3.229,63.755,63.755,0,0,0,9.3-4.456,65.416,65.416,0,0,0,19.373-16.919,59.444,59.444,0,0,0,8.976-17.436,10.41,10.41,0,0,0,6.393-.839c5.554-2.841,8.331-11.688,4.456-17.436-3.229-4.779-9.493-4.972-10.268-4.972.839-3.358,3.423-15.434-3.1-27.381-7.491-13.755-23.571-20.988-38.682-18.921C676.812,320.415,668.03,341.79,667.642,342.823Z" transform="translate(-637.058 -313.634)"/><g transform="translate(51.839 106.602)"><path class="e" d="M707.657,478.6c3.939,2.325,8.266,5.941,13.109,5.554,4-.323,8.46-2.648,11.495-5.1.969-.775-.387-2.131-1.356-1.356-2.841,2.26-7.426,4.65-11.172,4.585-3.939-.065-7.943-3.358-11.172-5.36-.969-.646-1.937,1.033-.9,1.679Z" transform="translate(-707.213 -476.775)"/></g><g transform="translate(51.726 106.836)"><path class="e" d="M707.336,479.568c3.681,3.164,7.878,6.716,13.045,6.458,5.037-.258,9.751-3.616,13.045-7.233.839-.9-.517-2.26-1.356-1.356-2.841,3.1-6.845,6.135-11.236,6.587-4.843.452-8.718-2.841-12.141-5.812-.9-.839-2.26.517-1.356,1.356Z" transform="translate(-707.038 -477.138)"/></g><g transform="translate(52.573 107.914)"><path class="e" d="M710.255,480.546h0a.991.991,0,0,0-1.55-.258l-.065.065a.936.936,0,0,0,0,1.356c7.1,6.781,20.148,8.976,25.25-1.421.517-1.1-1.1-2.131-1.679-.969-4.52,9.3-15.951,7.039-22.15,1.033v1.356l.065-.065-1.55-.194v.065c.646,1.033,2.325.065,1.679-.969Z" transform="translate(-708.35 -478.808)"/></g><g transform="translate(61.816 48.942)"><path class="e" d="M723.074,388.464a129.294,129.294,0,0,0,1.292,31.191.88.88,0,0,0,1.162.646,10.026,10.026,0,0,0,5.683-4.585.969.969,0,0,0-1.679-.969,7.77,7.77,0,0,1-4.52,3.681c.387.194.775.452,1.162.646a125.052,125.052,0,0,1-1.227-30.674c.194-1.227-1.744-1.227-1.873.065Z" transform="translate(-722.663 -387.487)"/></g><path class="r" d="M702.482,401.559c.129.581,1.1,4.2,0,4.779s-4.2-1.744-5.166-4.779c-.775-2.583-.129-5.812,1.1-6.07C699.7,395.166,701.707,398.718,702.482,401.559Z" transform="translate(-651.749 -341.372)"/><path class="r" d="M754.082,401.559c.129.581,1.1,4.2,0,4.779s-4.2-1.744-5.166-4.779c-.775-2.583-.129-5.812,1.1-6.07C751.3,395.166,753.307,398.718,754.082,401.559Z" transform="translate(-670.027 -341.372)"/><g transform="translate(59.38 81.556)"><path class="e" d="M719.413,446.069c7.878,3.358,15.047-1.356,20.858-6.458.969-.839-.452-2.2-1.356-1.356-5.037,4.391-11.495,9.105-18.469,6.135-1.227-.452-2.2,1.227-1.033,1.679Z" transform="translate(-718.891 -437.991)"/></g><g transform="translate(81.714 68.517)"><path class="e" d="M754.4,419.737a.97.97,0,0,0,0-1.937.97.97,0,0,0,0,1.937Z" transform="translate(-753.475 -417.8)"/></g><g transform="translate(88.155 64.998)"><path class="e" d="M765.1,414.19l.194-.194a.959.959,0,1,0-1.356-1.356l-.194.194a.959.959,0,0,0,1.356,1.356Z" transform="translate(-763.45 -412.35)"/></g><g transform="translate(86.702 69.615)"><path class="e" d="M762.169,421.437h.194a.969.969,0,0,0,0-1.937h-.194a.993.993,0,0,0-.969.969.951.951,0,0,0,.969.969Z" transform="translate(-761.2 -419.5)"/></g><g transform="translate(41.402 45.124)"><path class="e" d="M692.762,385.078a6.718,6.718,0,0,1,8.524-.129c.969.775,2.325-.581,1.356-1.356a8.707,8.707,0,0,0-11.3.129c-.9.775.517,2.131,1.421,1.356Z" transform="translate(-691.052 -381.575)"/></g><g transform="translate(72.937 43.757)"><path class="e" d="M741.573,383.618a8.8,8.8,0,0,1,10.009-1.162c1.1.581,2.066-1.1.969-1.679a10.644,10.644,0,0,0-12.334,1.485c-.969.84.387,2.2,1.356,1.356Z" transform="translate(-739.884 -379.458)"/></g><g transform="translate(42.709 68.323)"><path class="e" d="M694,419.437a.97.97,0,0,0,0-1.937.97.97,0,0,0,0,1.937Z" transform="translate(-693.075 -417.5)"/></g><g transform="translate(49.554 67.419)"><path class="e" d="M704.6,418.037a.97.97,0,0,0,0-1.937.97.97,0,0,0,0,1.937Z" transform="translate(-703.675 -416.1)"/></g><g transform="translate(46.567 70.551)"><path class="e" d="M699.534,421.241l-.194.194a.959.959,0,0,0,1.356,1.356l.194-.194a.959.959,0,1,0-1.356-1.356Z" transform="translate(-699.05 -420.95)"/></g><path class="b" d="M668.049,319.9a47.713,47.713,0,0,0-18.082,18.34,46.987,46.987,0,0,0-5.424,25.056,146.939,146.939,0,0,0-15.757,42.169c-3.358,16.209-1.55,22.15.775,26.089,5.683,9.687,17.113,12.076,19.89,12.657,14.272,3.035,25.637-4.262,28.22-5.941a41.665,41.665,0,0,0,1.808-7.749,39.886,39.886,0,0,0-.258-12.657A66.631,66.631,0,0,1,658.3,387.9c-5.683-.581-9.945-4.456-10.332-8.783-.387-4.068,2.454-9.3,6.2-9.3,2.777,0,4.779,2.841,5.166,3.358a27.332,27.332,0,0,0,7.749-6.716c3.81-4.843,4.456-9.17,6.2-13.69a43.4,43.4,0,0,1,11.882-16.79c6.716,2.389,12.076,4.714,15.757,6.458,11.818,5.489,18.534,8.718,23.764,15.757a34.494,34.494,0,0,1,5.166,10.074c6.006-4.585,8.46-3.358,8.976-3.1,3.81,2.131,3.681,13.82-2.26,17.048a9.205,9.205,0,0,1-6.458.517,61.235,61.235,0,0,1-15.5,26.606,56.266,56.266,0,0,1-9.3,7.491,34.955,34.955,0,0,0,.258,9.557,32.745,32.745,0,0,0,2.583,8.524c15.692,10.332,35.195,8.46,45.785-2.648,9.428-9.945,9.428-24.991,5.877-35.259a38.391,38.391,0,0,0-12.593-17.436c.84-3.616,5.489-25.056-8.008-44.752-3.487-5.1-13.238-17.436-30.8-21.7C689.812,308.6,674.507,315.962,668.049,319.9Z" transform="translate(-626.939 -311.699)"/><path class="n" d="M745.251,365.5a45.779,45.779,0,0,1,9.88,22.021c2.648,18.469-8.072,33.451-13.5,41.136A79.735,79.735,0,0,1,729.3,442.282c2.841,7.62,5.618,15.176,8.46,22.8l8.718-2.906A43.909,43.909,0,0,1,742.6,453.2a45.961,45.961,0,0,1-1.937-16.015,68.7,68.7,0,0,0,11.688-10.462,70.215,70.215,0,0,0,14.078-24.6,9.9,9.9,0,0,0,6.716-.9c5.554-3.164,4.65-11.043,4.585-11.559-.194-1.679-.581-4.391-2.519-5.489-2.26-1.227-6.006-.065-8.976,3.423a33.157,33.157,0,0,0-10.461-16.273A32.413,32.413,0,0,0,745.251,365.5Z" transform="translate(-663.198 -330.757)"/><path class="s" d="M721.618,389.9c-.387-.065-1.679,5.554-5.618,30.351h6.781c-.452-3.293-.969-8.072-1.227-13.884C721.231,396.422,722.006,389.964,721.618,389.9Z" transform="translate(-658.487 -339.4)"/><path class="t" d="M789.45,417.762c-1.1.646,3.035,6.2,2.454,14.465-.194,2.583-.581,8.46-5.231,12.4-.323.258-7.233,5.941-14.078,2.325a12.529,12.529,0,0,1-6.393-11.559,50.726,50.726,0,0,1-10.074,13.045,53.289,53.289,0,0,1-8.783,6.651,37.13,37.13,0,0,0,.84,11.107,40.305,40.305,0,0,0,2,6.135,41.412,41.412,0,0,0,8.847,4.391c2.454.84,15.951,5.554,29.124-.969a27.77,27.77,0,0,0,11.236-9.493,27.112,27.112,0,0,0,3.358-7.491c4.391-14.594-2.066-27.768-2.648-28.866C796.553,422.734,790.806,416.987,789.45,417.762Z" transform="translate(-669.555 -349.245)"/><path class="u" d="M658.26,430.1c-.581.065.71,5.36-.71,10.591-1.033,3.875-4.327,10.2-9.945,11.495-5.877,1.292-13.174-3.035-16.532-11.107a46.031,46.031,0,0,0-3.939,16.467c-.194,4.714-.452,9.751,1.873,14.724,5.231,11.107,20.6,15.434,32.03,14.4a37.028,37.028,0,0,0,16.467-5.683,47.639,47.639,0,0,0,2.066-7.878,45.5,45.5,0,0,0,.194-13.174,54.018,54.018,0,0,1-10.784-10.268c-3.1-3.939-7.3-9.235-9.428-16.6C659.229,432.23,658.648,430.035,658.26,430.1Z" transform="translate(-626.965 -353.639)"/></g></g></svg>