<svg xmlns="http://www.w3.org/2000/svg" width="1167.408" height="796.917" viewBox="0 0 1167.408 796.917"><defs><style>.a{fill:#e8e8e8;}.b,.c{fill:#161616;}.c,.h{stroke:#161616;stroke-miterlimit:10;stroke-width:3px;}.d{fill:#5222d0;}.e{fill:#281472;}.f,.g,.n,.o{fill:#474747;}.f{opacity:0.58;}.g{opacity:0.59;}.h,.k{fill:#fff;}.i,.j,.m,.p,.q{fill:#828181;}.i{opacity:0.36;}.j{opacity:0.4;}.l{fill:#ec615b;}.m{opacity:0.34;}.n{opacity:0.25;}.o{opacity:0.3;}.p{opacity:0.33;}.q{opacity:0.51;}</style></defs><g transform="translate(-150.7 -67.2)"><g transform="translate(150.7 67.2)"><g transform="translate(46.837 597.841)"><path class="a" d="M209.082,795.071c2.222,6.585-.165,13.169-1.152,19.672-.823,5.515-.165,10.371,2.881,15.145,1.646,2.552,3.951,5.185,4.609,8.231.823,3.786-1.975,6.42-3.21,9.712s-.412,7.984,3.7,8.56a19.221,19.221,0,0,0-.576-2.058,5.875,5.875,0,0,0-.741,7.49c1.317,1.811,4.115,1.975,4.856,4.362s-.494,5.432-.905,7.737c-1.564,9.63,4.28,18.026,11.194,24.034,8.066,7.078,16.956,12.84,24.2,20.824a109.987,109.987,0,0,1,18.52,28.067c.658,1.4,2.8.165,2.14-1.235a113.77,113.77,0,0,0-34.817-42.883c-8.313-6.255-18.684-13.663-19.1-25.187-.082-3.7,1.728-7.408,1.235-11.112a5.841,5.841,0,0,0-1.317-3.21c-1.811-2.14-7.161-3.457-3.622-7.243a1.244,1.244,0,0,0-.576-2.058c-5.6-.823-.494-7.9.412-10.124a9.96,9.96,0,0,0,.988-5.1c-.412-4.692-4.2-8.231-6.255-12.264-5.268-10.206,3.375-21.565-.247-32.183-.329-1.317-2.716-.659-2.222.823Z" transform="translate(-207.604 -793.539)"/></g><g transform="translate(49.392 599.496)"><path class="a" d="M211.36,797.813c56.711,25.1,70.621,91.692,80.5,146.51.247,1.564,2.634.905,2.387-.658-8.149-45.517-17.614-94.573-52.266-128.073a99.2,99.2,0,0,0-29.384-19.919c-1.4-.658-2.716,1.482-1.235,2.14Z" transform="translate(-210.708 -795.549)"/></g><g transform="translate(53.865 605.298)"><path class="a" d="M216.437,804.822A334.114,334.114,0,0,1,279.321,935.94c.329,1.564,2.716.905,2.387-.658a337.153,337.153,0,0,0-63.46-132.27c-1.07-1.235-2.8.576-1.811,1.811Z" transform="translate(-216.143 -802.598)"/></g><g transform="translate(60.16 646.495)"><path class="a" d="M224.457,854.913a82.012,82.012,0,0,1,40.414,40.331c.658,1.482,2.8.165,2.14-1.235a83.777,83.777,0,0,0-41.237-41.237c-1.564-.659-2.8,1.482-1.317,2.14Z" transform="translate(-223.791 -852.649)"/></g><g transform="translate(119.036 577.182)"><path class="a" d="M298.6,885.121c-5.432-23.458,13.169-42.389,24.693-60.5a143.41,143.41,0,0,0,13.828-28.067c1.728-4.774,2.963-9.713,4.445-14.569,1.4-4.609,3.292-9.795,8.313-11.194-.494-.165-.905-.412-1.4-.576a21.45,21.45,0,0,1,2.469,11.935c-.247,2.634-2.222,5.515-1.975,7.984.165,1.482,1.482,3.786,1.975,5.268a35.046,35.046,0,0,1,1.235,5.679,48.83,48.83,0,0,1,.494,6.914c0,1.728-1.152,6.42-.576,7.737-.658-1.4-2.469-.329-2.222.988,2.3,13.992,5.6,28.232,6.42,42.307.823,14.157-4.856,26.174-12.017,38.027-12.676,20.989-26.174,43.377-23.623,68.975.165,1.564,2.634,1.564,2.469,0-2.8-28.067,13.993-50.62,26.915-73.831,6.091-10.947,9.63-22.141,8.642-34.734-1.07-13.828-4.2-27.656-6.42-41.4l-2.222.988.247.494a1.117,1.117,0,0,0,1.07.576c3.045.082,3.375-3.375,3.622-5.679a44.755,44.755,0,0,0-1.317-16.873c-.576-2.058-1.975-4.362-1.728-6.5.247-1.975,1.317-4.033,1.564-6.173a23.7,23.7,0,0,0-2.716-13.828,1.218,1.218,0,0,0-1.4-.576c-8.478,2.469-9.795,12.511-11.935,19.754a139.288,139.288,0,0,1-16.133,35.228c-12.017,18.849-30.619,38.027-24.94,62.39.247,1.482,2.634.823,2.222-.741Z" transform="translate(-295.322 -768.438)"/></g><g transform="translate(133.256 598.448)"><path class="a" d="M347.416,795.448c-1.4,24.857-11.441,47.821-19.59,70.95A279.863,279.863,0,0,0,312.6,938.83c-.082,1.564,2.387,1.564,2.469,0A285.4,285.4,0,0,1,331.2,864.258c7.984-22.47,17.285-44.776,18.684-68.81.082-1.564-2.387-1.564-2.469,0Z" transform="translate(-312.598 -794.275)"/></g><g transform="translate(133.168 655.004)"><path class="a" d="M312.5,864.15a94.71,94.71,0,0,0,9.219,32.347c.741,1.4,2.8.165,2.14-1.235a91.335,91.335,0,0,1-8.889-31.031c-.165-1.646-2.634-1.646-2.469-.082Z" transform="translate(-312.49 -862.987)"/></g><g transform="translate(150.641 646.056)"><path class="a" d="M335.6,874a71.786,71.786,0,0,0,21.565-20.083c.905-1.317-1.235-2.552-2.14-1.235a67.93,67.93,0,0,1-20.742,19.178A1.258,1.258,0,0,0,335.6,874Z" transform="translate(-333.719 -852.116)"/></g><g transform="translate(108.412 742.716)"><path class="a" d="M282.567,971.4a86.092,86.092,0,0,1,9.795,31.359c.165,1.564,2.634,1.564,2.469,0a91.182,91.182,0,0,0-10.124-32.594c-.741-1.4-2.881-.165-2.14,1.235Z" transform="translate(-282.413 -969.552)"/></g><g transform="translate(129.194 741.45)"><path class="a" d="M307.693,969.566a167.835,167.835,0,0,1,3.375,30.784,1.236,1.236,0,0,0,2.469,0,167.923,167.923,0,0,0-3.457-31.442c-.329-1.564-2.716-.905-2.387.658Z" transform="translate(-307.662 -968.014)"/></g><g transform="translate(952.89 672.47)"><path class="a" d="M1311.61,885.107c-.988,3.292-2.552,6.832-3.045,10.289a4.555,4.555,0,0,0,.576,3.869c1.152,1.4,3.128,1.564,4.774,1.811q5.556.988,11.112,1.729a346.831,346.831,0,0,0,40.249,2.8c13.91.247,27.821-.165,41.813-.658,3.621-.165,7.737.247,11.194-.411.988-.165,2.058-.165,2.716-1.07,1.482-1.893-.576-3.539-2.469-2.552a1.335,1.335,0,0,0-.576,1.4c.082.082.082.247.164.329.576,1.482,2.963.823,2.387-.658-.082-.082-.082-.247-.165-.329-.164.494-.411.905-.576,1.4l-1.481-.988c-.823,0-1.564.082-2.387.082-1.317.082-2.634.082-4.033.165l-7.243.247c-4.856.165-9.63.329-14.486.412-10.206.247-20.33.329-30.537,0-9.877-.247-19.754-.905-29.549-2.058q-7.778-.864-15.556-2.222c-3.375-.576-3.786-2.058-2.881-5.268.741-2.552,1.564-5.185,2.3-7.737.494-1.482-1.893-2.14-2.3-.576Z" transform="translate(-1308.399 -884.207)"/></g><g transform="translate(955.822 668.605)"><path class="a" d="M1314.545,885.593c1.317-4.033,10.371-3.046,13.581-3.128,4.527-.165,9.136-.329,13.663-.411,9.63-.165,19.26-.165,28.973.165,9.383.247,18.766.741,28.067,1.481,4.445.329,9.3.247,13.581,1.235,4.445,1.07,4.445,3.21,5.1,6.749q.74,3.827,1.481,7.655c.329,1.564,2.716.905,2.387-.658-.576-3.046-1.235-6.173-1.811-9.219-.329-1.811-.576-3.868-1.975-5.268-2.634-2.634-8.313-1.975-11.688-2.3-12.017-1.07-24.034-1.811-36.134-2.14-11.77-.329-23.623-.329-35.393.082-5.185.165-10.536.082-15.721.741-2.963.412-5.679,1.4-6.667,4.445-.329,1.481,2.058,2.058,2.552.576Z" transform="translate(-1311.962 -879.511)"/></g><g transform="translate(960.761 686.797)"><path class="a" d="M1317.993,903.166a592.284,592.284,0,0,1,7.737,60.168,1.266,1.266,0,0,0,1.235,1.235,535.846,535.846,0,0,0,72.679,1.729c1.564-.082,1.564-2.552,0-2.469a535.231,535.231,0,0,1-72.679-1.729l1.235,1.235a582.435,582.435,0,0,0-7.819-60.826c-.329-1.564-2.716-.905-2.387.658Z" transform="translate(-1317.962 -901.614)"/></g><g transform="translate(1043.629 692.394)"><path class="a" d="M1430.871,909.308c-3.292,18.766-7.326,37.451-12.182,55.888a1.238,1.238,0,0,0,2.387.659c4.774-18.437,8.889-37.121,12.182-55.888.247-1.564-2.14-2.222-2.387-.659Z" transform="translate(-1418.642 -908.414)"/></g><g transform="translate(905.249 538.8)"><path class="a" d="M1250.586,723.283a247.93,247.93,0,0,1,11.935,45.27,1.183,1.183,0,0,0,.823.823c2.634.741,5.268,1.482,7.819,2.222-.247-.494-.576-.988-.823-1.482-1.482,6.749-2.14,14.075,4.2,18.355,2.058,1.4,4.2,2.222,4.692,4.939.329,1.975.165,3.951.576,5.926a30.223,30.223,0,0,0,5.021,11.688c5.515,7.655,14.157,10.947,21.894,15.8a54.809,54.809,0,0,1,19.672,22.306c.659,1.4,2.8.165,2.14-1.235a56.665,56.665,0,0,0-15.145-19.26c-7.078-5.762-16.215-8.725-22.882-14.9a27.985,27.985,0,0,1-7.572-12.017,26.087,26.087,0,0,1-1.235-7.079c-.082-1.317.165-2.387-.411-3.539-1.4-3.128-5.432-4.033-7.573-6.5-3.21-3.7-1.975-9.465-1.07-13.828a1.178,1.178,0,0,0-.823-1.481c-1.646-.494-4.938-.741-6.255-1.729-1.646-1.235-1.564-4.527-1.893-6.5-.823-4.362-1.811-8.642-2.881-13a244,244,0,0,0-7.819-25.351c-.494-1.564-2.881-.906-2.387.576Z" transform="translate(-1250.519 -721.807)"/></g><g transform="translate(907.055 537.904)"><path class="a" d="M1253.608,723.173a114.444,114.444,0,0,1,67.082,53.336c.741,1.4,2.881.165,2.14-1.235a116.512,116.512,0,0,0-68.563-54.489,1.238,1.238,0,0,0-.658,2.387Z" transform="translate(-1252.714 -720.719)"/></g><g transform="translate(971.849 588.357)"><path class="a" d="M1331.653,783.814a192.857,192.857,0,0,1,30.043,75.148c.247,1.564,2.634.905,2.387-.658a194.552,194.552,0,0,0-30.29-75.724c-.905-1.317-3.045-.082-2.14,1.235Z" transform="translate(-1331.434 -782.016)"/></g><g transform="translate(913.003 545.207)"><path class="a" d="M1260.318,731.656a428.24,428.24,0,0,1,78.193,109.389c.741,1.4,2.881.165,2.14-1.235a429.994,429.994,0,0,0-78.523-109.882c-1.235-1.07-2.963.658-1.811,1.728Z" transform="translate(-1259.94 -729.591)"/></g><g transform="translate(918.663 573.755)"><path class="a" d="M1267.379,766.6a195.373,195.373,0,0,1,54.324,48.645c.988,1.235,3.128,0,2.14-1.235a196.046,196.046,0,0,0-55.229-49.55c-1.317-.823-2.552,1.317-1.235,2.14Z" transform="translate(-1266.816 -764.275)"/></g><g transform="translate(940.004 552.447)"><path class="a" d="M1292.872,740.291A120.671,120.671,0,0,1,1303.079,777c.165,1.564,2.634,1.564,2.469,0a124.672,124.672,0,0,0-10.536-37.944c-.741-1.482-2.8-.247-2.14,1.235Z" transform="translate(-1292.744 -738.387)"/></g><g transform="translate(994.871 496.805)"><path class="a" d="M1362.117,806.69c-2.3-54.818,49.8-89.881,73.5-133.917-.741-.247-1.564-.411-2.3-.658,0,6.914-.082,13.828-.082,20.742,0,3.21,0,6.42-.082,9.548,0,3.292,1.235,14.486-5.35,12.429a1.25,1.25,0,0,0-1.4,1.811,19.718,19.718,0,0,1,2.058,17.779c-1.07,2.881-2.222,3.951-2.552,7.079-.329,3.457-.659,7-.988,10.453-.658,7-1.4,13.91-2.058,20.906-.658,6.585-.576,13.828-2.469,20.166-1.811,6.255-7,9.795-12.429,12.84a128.587,128.587,0,0,0-13.91,8.889c-8.231,6.5-14.569,15.639-14.322,26.421a1.236,1.236,0,0,0,2.469,0c-.329-14.322,11.194-23.952,22.47-30.619,4.527-2.716,9.465-5.021,13.252-8.807,3.7-3.7,5.1-8.231,5.762-13.334,1.811-14.322,2.8-28.726,4.2-43.048a25.787,25.787,0,0,1,2.3-8.972,25.452,25.452,0,0,0,1.811-6.5,21.751,21.751,0,0,0-3.539-14.569c-.494.576-.905,1.235-1.4,1.811,8.066,2.634,8.4-8.149,8.4-13.169.082-10.618.082-21.236.165-31.936a1.252,1.252,0,0,0-2.3-.658c-23.952,44.447-76.218,79.675-73.831,135.151.165,1.729,2.634,1.729,2.634.165Z" transform="translate(-1359.404 -670.786)"/></g><g transform="translate(1006.965 520.397)"><path class="a" d="M1431.222,700.067c-12.511,21.071-25.022,42.142-35.887,64.119-5.268,10.618-10.042,21.4-14.322,32.43-4.2,11.029-7.49,22.47-6.832,34.323.082,1.564,2.552,1.564,2.469,0-.741-12.182,2.881-23.87,7.243-35.146s9.383-22.388,14.816-33.17c10.536-20.989,22.553-41.237,34.487-61.4.988-1.317-1.152-2.552-1.975-1.152Z" transform="translate(-1374.098 -699.449)"/></g><g transform="translate(1013.923 581.112)"><path class="a" d="M1384.4,774.108a71.421,71.421,0,0,0-1.152,26.092c.247,1.564,2.634.905,2.387-.658a67.8,67.8,0,0,1,1.152-24.775c.329-1.564-2.058-2.222-2.387-.658Z" transform="translate(-1382.551 -773.214)"/></g><g transform="translate(1039.238 538.888)"><path class="a" d="M1414.124,722.808a53.831,53.831,0,0,0,.494,21.153c.329,1.564,2.716.905,2.387-.659a50.294,50.294,0,0,1-.494-19.836c.247-1.564-2.058-2.222-2.387-.659Z" transform="translate(-1413.307 -721.914)"/></g><g transform="translate(1042.115 544.982)"><path class="a" d="M1436.637,782.722a269.754,269.754,0,0,0,34.405-51.443,20.7,20.7,0,0,1-2.222-.329c4.445,15.392,3.539,31.277.165,46.751-1.646,7.49-3.786,14.9-6.091,22.223-1.07,3.375-2.222,6.749-3.375,10.206-1.235,3.7-2.387,8.972-6.914,9.795a1.145,1.145,0,0,0-.905,1.152c-.164,4.2-.411,8.725-2.3,12.593-2.387,4.939-7.161,6.255-12.1,7.655-7.408,2.058-14.98,4.2-20.166,10.206-1.07,1.152.741,2.963,1.728,1.728,3.622-4.2,8.4-6.338,13.581-7.984,4.362-1.4,9.3-1.975,13.334-4.28,7.079-3.951,7.984-12.676,8.313-19.919a14.079,14.079,0,0,1-.905,1.152c6.42-1.07,7.9-9.3,9.63-14.4a271.479,271.479,0,0,0,7.819-26.5c3.951-16.791,5.35-34.323.494-51.114a1.239,1.239,0,0,0-2.222-.329,260.518,260.518,0,0,1-33.994,50.949c-1.07,1.4.659,3.128,1.729,1.893Z" transform="translate(-1416.802 -729.318)"/></g><g transform="translate(1027.372 571.459)"><path class="a" d="M1460.795,762.32a149.233,149.233,0,0,1-31.03,54.653c-11.441,12.676-28.973,23.7-30.866,42.224-.164,1.564,2.3,1.564,2.469,0,.988-10.124,7.573-17.943,14.486-24.857,6.832-6.832,13.91-13.252,20-20.742a150.961,150.961,0,0,0,27.244-50.62c.576-1.482-1.811-2.14-2.3-.658Z" transform="translate(-1398.89 -761.485)"/></g><g transform="translate(766.159 160.945)"><path class="a" d="M1126.035,263.941a258.222,258.222,0,0,1-44.282,116.138c-.906,1.317,1.235,2.552,2.14,1.235A261.158,261.158,0,0,0,1128.5,263.941c.165-1.646-2.3-1.564-2.469,0Z" transform="translate(-1081.534 -262.737)"/></g><g transform="translate(809.899 160.33)"><path class="a" d="M1135.848,264.468a451.841,451.841,0,0,0,109.059.576c1.564-.165,1.564-2.634,0-2.469A451.837,451.837,0,0,1,1135.848,262c-1.564-.165-1.564,2.3,0,2.469Z" transform="translate(-1134.675 -261.99)"/></g><g transform="translate(904.01 163.312)"><path class="a" d="M1265.217,267.166a199.892,199.892,0,0,1-16.05,129.307c-.741,1.4,1.4,2.634,2.14,1.235a202.279,202.279,0,0,0,16.3-131.2c-.329-1.564-2.716-.905-2.387.658Z" transform="translate(-1249.013 -265.614)"/></g><g transform="translate(767.107 278.033)"><path class="a" d="M1083.52,407.468c43.542,16.133,90.622,15.392,136.386,14.486a1.236,1.236,0,0,0,0-2.469c-45.517.905-92.351,1.646-135.727-14.4-1.481-.576-2.14,1.811-.658,2.387Z" transform="translate(-1082.685 -404.992)"/></g><g transform="translate(925.469 196.794)"><path class="a" d="M1276.579,324.736a232.413,232.413,0,0,1,64.942-15.968l-1.235-1.235a126.947,126.947,0,0,0,35.722,85.354c1.07,1.152,2.881-.576,1.729-1.728a124.055,124.055,0,0,1-34.981-83.626,1.212,1.212,0,0,0-1.235-1.235,237,237,0,0,0-65.6,16.05c-1.481.659-.823,3.045.659,2.387Z" transform="translate(-1275.085 -306.292)"/></g><g transform="translate(881.891 295.248)"><path class="a" d="M1222.189,427.383c3.292,11.276,6.832,22.553,11.029,33.5,3.375,8.807,7.737,17.367,15.063,23.54,1.235.988,2.963-.741,1.728-1.728-7.655-6.5-11.935-15.556-15.309-24.857-3.7-10.206-7-20.577-10.124-31.031a1.228,1.228,0,0,0-2.387.576Z" transform="translate(-1222.14 -425.907)"/></g><g transform="translate(908.951 285.076)"><path class="a" d="M1256.814,482.4a746.4,746.4,0,0,1,118.031-66.588c1.482-.658.165-2.8-1.235-2.14a736.412,736.412,0,0,0-118.031,66.588c-1.317.905-.082,3.045,1.235,2.14Z" transform="translate(-1255.016 -413.549)"/></g><g transform="translate(817.307 171.03)"><path class="a" d="M1144.848,277.468q45.682,5.679,91.692,8.066c1.564.082,1.564-2.387,0-2.469q-46.052-2.346-91.692-8.066c-1.564-.165-1.564,2.3,0,2.469Z" transform="translate(-1143.675 -274.99)"/></g><g transform="translate(817.258 183.364)"><path class="a" d="M1144.179,292.3c4.2,2.552,9.877,2.14,14.569,2.469L1179,296.251c1.564.082,1.564-2.387,0-2.469l-17.038-1.235c-5.1-.412-12.1.329-16.544-2.387-1.317-.823-2.552,1.317-1.235,2.14Z" transform="translate(-1143.616 -289.975)"/></g><g transform="translate(812.368 195.482)"><path class="a" d="M1138.848,307.169c15.309,1.07,30.619,2.14,45.846,3.21,14.651.988,29.878,3.292,44.529,1.811,1.564-.165,1.564-2.634,0-2.469-14.651,1.482-29.878-.741-44.529-1.811-15.309-1.07-30.619-2.14-45.846-3.21-1.564-.082-1.564,2.387,0,2.469Z" transform="translate(-1137.675 -304.698)"/></g><g transform="translate(809.931 216.178)"><path class="a" d="M1135.608,332.359c13.334,4.445,27.409,4.692,41.4,4.527,15.392-.082,30.7-.247,46.093-.412a1.236,1.236,0,0,0,0-2.469c-14.9.082-29.713.247-44.611.329-14.24.082-28.561.082-42.224-4.445a1.279,1.279,0,0,0-.659,2.469Z" transform="translate(-1134.714 -329.842)"/></g><g transform="translate(793.76 254.808)"><path class="a" d="M1115.176,377.948c0,2.634-.247,5.432,0,8.149.164,1.317.741,2.634,2.3,2.716,1.893.082,3.375-2.058,4.527-3.21,1.893-1.975,3.622-4.033,5.35-6.091.988-1.235-.741-2.963-1.729-1.729a71.281,71.281,0,0,1-6.667,7.408,7.418,7.418,0,0,1-.823.741c-.494.494-.658.412-.494-.329a7.219,7.219,0,0,1,0-2.3v-5.35a1.236,1.236,0,0,0-2.469,0Z" transform="translate(-1115.067 -376.775)"/></g><g transform="translate(812.894 234.632)"><path class="a" d="M1139.208,354.68a295.1,295.1,0,0,0,80.663,5.926c1.564-.082,1.564-2.552,0-2.469a293.286,293.286,0,0,1-80-5.844c-1.564-.329-2.222,2.058-.658,2.387Z" transform="translate(-1138.313 -352.262)"/></g><g transform="translate(909.831 274.364)"><path class="a" d="M1257.579,450.138a460.275,460.275,0,0,0,94.408-47.245c1.317-.905.082-3.045-1.235-2.14a450.779,450.779,0,0,1-93.832,47c-1.481.576-.823,2.963.659,2.387Z" transform="translate(-1256.085 -400.534)"/></g><g transform="translate(902.152 280.326)"><path class="a" d="M1248.274,436.028a627.269,627.269,0,0,0,72.432-26.01c1.482-.659.165-2.716-1.235-2.14a602.334,602.334,0,0,1-71.856,25.763c-1.481.494-.905,2.881.659,2.387Z" transform="translate(-1246.757 -407.778)"/></g><g transform="translate(912.935 251.07)"><path class="a" d="M1261.292,409.986c14.075-5.844,28.15-11.77,42.224-17.614,12.346-5.185,25.022-9.877,35.969-17.779,1.235-.905.082-3.045-1.235-2.14-11.194,8.066-24.281,12.923-36.874,18.19l-40.743,17.038c-1.4.576-.741,2.963.659,2.3Z" transform="translate(-1259.857 -372.234)"/></g><g transform="translate(924.317 253.587)"><path class="a" d="M1275.179,385.34c6.091-2.552,12.264-5.021,18.355-7.572,1.482-.576.823-2.963-.659-2.387-6.091,2.552-12.264,5.021-18.355,7.572-1.481.576-.823,2.963.658,2.387Z" transform="translate(-1273.685 -375.292)"/></g><g transform="translate(927.951 212.368)"><path class="a" d="M1279.334,344.545c8.149.247,16.38-3.7,23.87-6.667q11.729-4.692,22.964-10.371c1.4-.741.164-2.881-1.235-2.14-7.326,3.7-14.733,7.079-22.388,10.124-7.161,2.881-15.309,6.832-23.211,6.585-1.646-.082-1.646,2.387,0,2.469Z" transform="translate(-1278.1 -325.213)"/></g><g transform="translate(781.255 293.589)"><path class="a" d="M1145.577,424.722a209.526,209.526,0,0,1-45.352,77.37,1.267,1.267,0,0,0,.905,2.14c38.027,1.235,73.255,17.2,107.084,33.335,1.4.658,2.716-1.482,1.235-2.14-34.24-16.3-69.8-32.347-108.318-33.664.329.741.576,1.4.905,2.14a211.769,211.769,0,0,0,46.011-78.44,1.293,1.293,0,0,0-2.469-.741Z" transform="translate(-1099.874 -423.891)"/></g><g transform="translate(890.1 341.312)"><path class="a" d="M1234.407,547q16.668-32.347,35.969-63.3c.823-1.317-1.317-2.634-2.14-1.235q-19.26,30.866-35.969,63.3c-.741,1.4,1.4,2.716,2.14,1.235Z" transform="translate(-1232.113 -481.872)"/></g><g transform="translate(887.537 375.493)"><path class="a" d="M1230.234,525.869a1.236,1.236,0,0,0,0-2.469,1.236,1.236,0,1,0,0,2.469Z" transform="translate(-1229 -523.4)"/></g><g transform="translate(802.183 357.794)"><path class="a" d="M1126.535,504.369c12.84-.905,23.7,6.832,35.475,10.7,6.42,2.058,13.087,3.128,19.507,5.268a69.6,69.6,0,0,1,18.19,9.054c1.317.905,2.552-1.235,1.235-2.14a71.238,71.238,0,0,0-16.709-8.56c-7-2.469-14.486-3.622-21.565-5.926-12.017-3.951-22.964-11.77-36.134-10.782a1.194,1.194,0,1,0,0,2.387Z" transform="translate(-1125.3 -501.896)"/></g><g transform="translate(815.528 347.312)"><path class="a" d="M1142.408,491.58a206.051,206.051,0,0,1,54.735,22.8,1.235,1.235,0,0,0,1.235-2.14,203.931,203.931,0,0,0-55.312-23.046,1.239,1.239,0,0,0-.658,2.387Z" transform="translate(-1141.514 -489.161)"/></g><g transform="translate(821.783 332.908)"><path class="a" d="M1150.008,474.08a66.064,66.064,0,0,1,23.7,10.206c1.317.905,2.552-1.235,1.235-2.14a69.28,69.28,0,0,0-24.281-10.453c-1.564-.329-2.222,2.058-.658,2.387Z" transform="translate(-1149.114 -471.662)"/></g><g transform="translate(826.922 319.703)"><path class="a" d="M1156.215,458.073q20.865,7.778,41.319,16.544c1.481.659,2.716-1.482,1.234-2.14-13.828-5.926-27.82-11.606-41.9-16.791-1.564-.494-2.14,1.893-.659,2.387Z" transform="translate(-1155.357 -455.619)"/></g><g transform="translate(91.026 193.652)"><path class="a" d="M298.008,303.648c-1.317,19.59-1.646,39.344-7.9,58.192a123.646,123.646,0,0,1-28.479,46.834c-1.07,1.152.658,2.881,1.729,1.729a126.351,126.351,0,0,0,28.726-46.669c6.667-19.343,7-39.837,8.4-60.085.082-1.564-2.387-1.564-2.469,0Z" transform="translate(-261.291 -302.475)"/></g><g transform="translate(128.299 192.929)"><path class="a" d="M307.748,304.233c32.265-.412,64.612-.329,96.878.329,8.231.165,16.462.412,24.61.658,4.2.165,10.618-1.07,12.84,3.375,1.564,3.128,1.482,8.149,1.975,11.606a212.784,212.784,0,0,1,1.4,45.764,217.929,217.929,0,0,1-10.124,50.785c-.494,1.482,1.893,2.14,2.387.658a218.036,218.036,0,0,0,8.972-95.972c-.411-3.375-.988-6.749-1.564-10.042-.412-2.387-.659-5.432-2.8-7-2.058-1.564-4.939-1.317-7.326-1.4-4.692-.165-9.3-.329-13.992-.411q-26.668-.741-53.336-.905-30-.247-59.921.165c-1.564,0-1.564,2.469,0,2.387Z" transform="translate(-306.575 -301.596)"/></g><g transform="translate(91.045 300.461)"><path class="a" d="M262.208,434.676a268.252,268.252,0,0,0,128.484,3.786c1.564-.329.905-2.716-.658-2.387a263.906,263.906,0,0,1-127.167-3.786,1.238,1.238,0,0,0-.658,2.387Z" transform="translate(-261.314 -432.241)"/></g><g transform="translate(230.394 200.319)"><path class="a" d="M459.657,311.748a242.589,242.589,0,0,1-28.89,102.721c-.741,1.4,1.4,2.634,2.14,1.235a245.96,245.96,0,0,0,29.22-103.956c.082-1.564-2.387-1.564-2.469,0Z" transform="translate(-430.613 -310.575)"/></g><g transform="translate(232.222 206.771)"><path class="a" d="M460.05,319.966c2.3,10.947,1.317,21.977-.576,32.841q-2.469,14.2-5.679,28.4c-4.2,18.52-9.877,36.792-20.742,52.513-.905,1.317,1.235,2.552,2.14,1.235,11.276-16.3,17.038-35.31,21.318-54.488,4.362-19.59,10.206-41.072,5.926-61.156-.329-1.564-2.716-.905-2.387.658Z" transform="translate(-432.834 -318.414)"/></g><g transform="translate(243.381 215.053)"><path class="a" d="M464.26,329.648A235.652,235.652,0,0,1,446.481,439.2c-.576,1.482,1.811,2.14,2.387.658a238.265,238.265,0,0,0,17.861-110.212c-.082-1.564-2.552-1.564-2.469,0Z" transform="translate(-446.392 -328.475)"/></g><g transform="translate(106.766 320.246)"><path class="a" d="M281.308,459.342a357.575,357.575,0,0,0,124.533-.659c1.564-.247.905-2.634-.658-2.387a354.05,354.05,0,0,1-123.216.658c-1.564-.247-2.222,2.14-.658,2.387Z" transform="translate(-280.414 -456.278)"/></g><g transform="translate(105.204 308.756)"><path class="a" d="M286.4,442.879a26.85,26.85,0,0,1-7.326,7.9c-1.317.905-.082,3.045,1.235,2.14a29.4,29.4,0,0,0,8.149-8.725,1.222,1.222,0,0,0-2.058-1.317Z" transform="translate(-278.516 -442.319)"/></g><g transform="translate(114.773 326.691)"><path class="a" d="M294.223,464.76a33.784,33.784,0,0,1-3.786,5.844c-.988,1.235.741,2.963,1.728,1.728a28.852,28.852,0,0,0,4.115-6.338c.741-1.4-1.317-2.716-2.058-1.235Z" transform="translate(-290.142 -464.108)"/></g><g transform="translate(115.294 326.307)"><path class="a" d="M291.948,473.9a347.326,347.326,0,0,0,123.957-7.819,1.238,1.238,0,0,0-.658-2.387,345.385,345.385,0,0,1-123.3,7.655c-1.564-.082-1.564,2.387,0,2.552Z" transform="translate(-290.775 -463.642)"/></g><g transform="translate(135.08 222.611)"><path class="a" d="M316.366,342.96c35.557-4.856,71.444-2.552,107.084-.082,1.564.082,1.564-2.387,0-2.469-35.887-2.469-71.938-4.774-107.742.165-1.564.165-.905,2.552.658,2.387Z" transform="translate(-314.814 -337.658)"/></g><g transform="translate(125.192 262.319)"><path class="a" d="M304.035,388.369q50,.741,99.758,4.692c1.564.165,1.564-2.3,0-2.469q-49.756-4.074-99.758-4.692a1.235,1.235,0,1,0,0,2.469Z" transform="translate(-302.8 -385.9)"/></g><g transform="translate(115.294 281.412)"><path class="a" d="M291.948,411.569q55.312,2.593,110.623,5.268c1.564.082,1.564-2.387,0-2.469q-55.312-2.593-110.623-5.268c-1.564-.082-1.564,2.387,0,2.469Z" transform="translate(-290.775 -409.098)"/></g><g transform="translate(126.996 249.652)"><path class="a" d="M324.917,371.16c-7,16.626-13.663,33.335-19.836,50.291-.576,1.482,1.811,2.14,2.387.658q9.26-25.063,19.59-49.632c.576-1.482-1.564-2.8-2.14-1.317Z" transform="translate(-304.992 -370.511)"/></g><g transform="translate(154.015 252.567)"><path class="a" d="M358.627,374.668a409.639,409.639,0,0,0-20.742,50.7c-.494,1.482,1.893,2.14,2.387.658A395.294,395.294,0,0,1,360.767,375.9c.741-1.4-1.4-2.634-2.14-1.235Z" transform="translate(-337.819 -374.052)"/></g><g transform="translate(185.312 254.595)"><path class="a" d="M396.632,377.079a174.768,174.768,0,0,0-20.742,49.138,1.238,1.238,0,0,0,2.387.658,170.707,170.707,0,0,1,20.495-48.562c.823-1.317-1.317-2.552-2.14-1.235Z" transform="translate(-375.842 -376.516)"/></g><g transform="translate(210.973 255.697)"><path class="a" d="M426.84,378.468a336.572,336.572,0,0,0-19.754,46.587c-.494,1.482,1.893,2.14,2.387.659a331.487,331.487,0,0,1,19.507-45.928c.658-1.482-1.4-2.716-2.14-1.317Z" transform="translate(-407.019 -377.855)"/></g><g transform="translate(122.301 268.556)"><path class="a" d="M299.956,395.718a29.375,29.375,0,0,1,9.383,6.749c1.07,1.152,2.8-.576,1.728-1.729a30.45,30.45,0,0,0-9.877-7.161c-1.482-.576-2.716,1.482-1.235,2.14Z" transform="translate(-299.287 -393.478)"/></g><g transform="translate(120.123 266.413)"><path class="a" d="M310.682,391.06a52.424,52.424,0,0,0-13.746,11.77c-.988,1.235.741,2.963,1.728,1.728A48.589,48.589,0,0,1,311.917,393.2a1.235,1.235,0,0,0-1.235-2.14Z" transform="translate(-296.642 -390.875)"/></g><g transform="translate(166.606 290.118)"><path class="a" d="M353.679,422A47.369,47.369,0,0,1,365.7,432.124c.988,1.235,2.8-.576,1.728-1.728a48.149,48.149,0,0,0-12.511-10.536c-1.317-.823-2.552,1.317-1.235,2.14Z" transform="translate(-353.116 -419.675)"/></g><g transform="translate(166.257 288.767)"><path class="a" d="M367.6,418.253A105.89,105.89,0,0,0,353.028,431.5c-1.07,1.152.658,2.963,1.729,1.728a99.685,99.685,0,0,1,14.075-12.923c1.235-.823,0-2.963-1.235-2.058Z" transform="translate(-352.691 -418.034)"/></g><g transform="translate(143.825 264.984)"><path class="a" d="M325.818,391.247c4.28,3.951,8.56,7.819,12.84,11.77,1.152,1.07,2.881-.658,1.728-1.728-4.28-3.951-8.56-7.819-12.84-11.77a1.222,1.222,0,0,0-1.729,1.728Z" transform="translate(-325.438 -389.138)"/></g><g transform="translate(142.429 264.932)"><path class="a" d="M339.593,389.26a53.8,53.8,0,0,0-15.556,13.334c-.988,1.235.741,2.963,1.728,1.728A52.8,52.8,0,0,1,340.828,391.4c1.4-.823.082-2.963-1.235-2.14Z" transform="translate(-323.742 -389.075)"/></g><g transform="translate(167.872 262.345)"><path class="a" d="M362.1,407.141a8.927,8.927,0,0,1-1.07-15.309c4.28-3.045,13-5.6,16.3,0,2.881,5.021-.576,11.112-4.692,14.157-6.42,4.692-10.947-.494-13.91-5.844-.741-1.4-2.881-.165-2.14,1.235,3.786,6.832,9.877,12.182,17.449,6.667,5.6-4.033,9.466-12.593,4.692-18.684-4.939-6.255-16.215-2.963-20.989,1.975-5.35,5.6-3.375,14.239,3.128,17.779a1.166,1.166,0,1,0,1.235-1.975Z" transform="translate(-354.654 -385.932)"/></g><g transform="translate(138.791 200.492)"><path class="a" d="M320.95,311.62a42.58,42.58,0,0,0-1.235,17.367c.165,1.564,2.716,1.564,2.469,0a40.9,40.9,0,0,1,1.152-16.709,1.241,1.241,0,0,0-2.387-.658Z" transform="translate(-319.322 -310.785)"/></g><g transform="translate(140.81 196.96)"><path class="a" d="M322.948,312.343a542.946,542.946,0,0,1,93.256-2.387l-1.235-1.235a56.221,56.221,0,0,1-.494,14.4c-.247,1.564,2.14,2.222,2.387.658a57.665,57.665,0,0,0,.576-15.062,1.327,1.327,0,0,0-1.235-1.235,542.952,542.952,0,0,0-93.256,2.387c-1.564.165-1.564,2.634,0,2.469Z" transform="translate(-321.775 -306.493)"/></g><g transform="translate(143.197 213.427)"><path class="a" d="M325.848,330.945l88.894-1.975a1.236,1.236,0,0,0,0-2.469l-88.894,1.975c-1.564.082-1.564,2.552,0,2.469Z" transform="translate(-324.675 -326.5)"/></g><g transform="translate(637.277 696.745)"><path class="b" d="M928.53,921.108h138.691c4.774,0,4.774-7.408,0-7.408H928.53c-4.774,0-4.774,7.408,0,7.408Z" transform="translate(-924.95 -913.7)"/></g><g transform="translate(792.758 696.745)"><path class="b" d="M1117.43,921.108h29.8c4.774,0,4.774-7.408,0-7.408h-29.8c-4.774,0-4.774,7.408,0,7.408Z" transform="translate(-1113.85 -913.7)"/></g><g transform="translate(852.432 691.56)"><path class="b" d="M1189.93,914.808h18.108c4.774,0,4.774-7.408,0-7.408H1189.93c-4.774,0-4.774,7.408,0,7.408Z" transform="translate(-1186.35 -907.4)"/></g><g transform="translate(794.075 758.971)"><path class="b" d="M1119.03,996.708h165.935c4.774,0,4.774-7.408,0-7.408H1119.03c-4.774,0-4.774,7.408,0,7.408Z" transform="translate(-1115.45 -989.3)"/></g><g transform="translate(970.381 758.971)"><path class="b" d="M1333.23,996.708h41.484c4.774,0,4.774-7.408,0-7.408H1333.23c-4.774,0-4.774,7.408,0,7.408Z" transform="translate(-1329.65 -989.3)"/></g><g transform="translate(1037.792 757.736)"><path class="b" d="M1415.13,995.208h60.909c4.774,0,4.774-7.408,0-7.408H1415.13c-4.774,0-4.774,7.408,0,7.408Z" transform="translate(-1411.55 -987.8)"/></g><g transform="translate(1123.311 753.785)"><path class="b" d="M1519.031,990.408h12.922c4.774,0,4.774-7.408,0-7.408h-12.922c-4.774,0-4.774,7.408,0,7.408Z" transform="translate(-1515.45 -983)"/></g><g transform="translate(0 775.515)"><path class="b" d="M151.935,1016.067q100.005-2.469,200.011-3.622c19.1-.247,38.274-.411,57.369-.576a1.236,1.236,0,0,0,0-2.469q-100.005.741-200.011,2.881c-19.1.412-38.274.823-57.369,1.317-1.646.082-1.646,2.552,0,2.469Z" transform="translate(-150.7 -1009.4)"/></g><g transform="translate(180.01 792.067)"><path class="b" d="M370.635,1033.37q75.807-3.21,151.613.988c1.564.082,1.564-2.387,0-2.469q-75.683-4.2-151.613-.988c-1.646.082-1.646,2.552,0,2.469Z" transform="translate(-369.4 -1029.51)"/></g><g transform="translate(967.411 692.288)"><path class="a" d="M1338.93,909.12a87.749,87.749,0,0,1-12.593,20.989c-.988,1.235.741,2.963,1.729,1.729a89.817,89.817,0,0,0,13.252-22.059c.576-1.482-1.81-2.14-2.387-.658Z" transform="translate(-1326.042 -908.285)"/></g><g transform="translate(968.067 690.697)"><path class="a" d="M1354.627,906.968a118.549,118.549,0,0,1-27.409,38.109c-1.152,1.07.576,2.8,1.729,1.729a119.975,119.975,0,0,0,27.82-38.6c.659-1.4-1.481-2.634-2.14-1.234Z" transform="translate(-1326.838 -906.352)"/></g><g transform="translate(968.187 691.518)"><path class="a" d="M1370.785,907.967a154.849,154.849,0,0,1-43.377,53.583c-1.235.988.494,2.716,1.728,1.729a157.767,157.767,0,0,0,43.706-54.159c.741-1.317-1.4-2.552-2.058-1.152Z" transform="translate(-1326.984 -907.349)"/></g><g transform="translate(985.115 692.179)"><path class="a" d="M1389.486,908.768A243.1,243.1,0,0,1,1347.92,964c-1.152,1.152.659,2.881,1.729,1.729a243.06,243.06,0,0,0,41.9-55.723,1.2,1.2,0,1,0-2.058-1.235Z" transform="translate(-1347.55 -908.152)"/></g><g transform="translate(1000.457 691.602)"><path class="a" d="M1406.2,908.068a266.665,266.665,0,0,1-39.673,57.287c-1.07,1.152.659,2.963,1.728,1.729A269.512,269.512,0,0,0,1408.34,909.3c.741-1.4-1.4-2.634-2.14-1.235Z" transform="translate(-1366.191 -907.452)"/></g><g transform="translate(1013.051 691.646)"><path class="a" d="M1419.772,908.159a237.166,237.166,0,0,1-37.944,57.534c-1.07,1.152.658,2.963,1.728,1.729a239.607,239.607,0,0,0,38.356-58.11c.741-1.317-1.4-2.634-2.14-1.152Z" transform="translate(-1381.491 -907.505)"/></g><g transform="translate(1024.369 707.653)"><path class="a" d="M1423.522,927.568a222.736,222.736,0,0,1-27.985,42.8c-.988,1.235.741,2.963,1.728,1.728a224.4,224.4,0,0,0,28.4-43.294c.741-1.4-1.4-2.634-2.14-1.235Z" transform="translate(-1395.242 -926.952)"/></g><g transform="translate(333.433)"><g transform="translate(0)"><path class="a" d="M555.8,68.435v41.9a1.236,1.236,0,0,0,2.469,0v-41.9a1.235,1.235,0,1,0-2.469,0Z" transform="translate(-555.8 -67.2)"/></g></g><g transform="translate(287.258 42.965)"><path class="a" d="M500.935,121.869H624.563a1.236,1.236,0,0,0,0-2.469H500.935a1.235,1.235,0,0,0,0,2.469Z" transform="translate(-499.7 -119.4)"/></g><g transform="translate(375.411 47.307)"><g transform="translate(0)"><path class="a" d="M606.8,125.848v38.685a1.236,1.236,0,0,0,2.469,0V125.848a1.236,1.236,0,0,0-2.469,0Z" transform="translate(-606.8 -124.675)"/></g></g><g transform="translate(309.872 89.223)"><g transform="translate(0)"><path class="a" d="M528.348,178.069H648.766a1.236,1.236,0,0,0,0-2.469H528.348a1.236,1.236,0,0,0,0,2.469Z" transform="translate(-527.175 -175.6)"/></g></g><g transform="translate(308.741 91.394)"><g transform="translate(0 0)"><path class="a" d="M525.8,179.441V208.5a1.236,1.236,0,0,0,2.469,0V179.441a1.235,1.235,0,0,0-2.469,0Z" transform="translate(-525.8 -178.237)"/></g></g><g transform="translate(904.74 432.863)"><path class="a" d="M1251.135,595.569h74.737a1.236,1.236,0,0,0,0-2.469h-74.737a1.235,1.235,0,0,0,0,2.469Z" transform="translate(-1249.9 -593.1)"/></g><g transform="translate(945.483 435.147)"><path class="a" d="M1299.4,597.048v29.467a1.236,1.236,0,0,0,2.469,0V597.048a1.236,1.236,0,0,0-2.469,0Z" transform="translate(-1299.4 -595.875)"/></g><g transform="translate(899.122 464.551)"><path class="a" d="M1244.248,634.069h86.1a1.236,1.236,0,0,0,0-2.469h-86.1a1.236,1.236,0,0,0,0,2.469Z" transform="translate(-1243.075 -631.6)"/></g><g transform="translate(922.848 465.704)"><path class="a" d="M1271.9,634.235v24.94a1.236,1.236,0,0,0,2.469,0v-24.94a1.235,1.235,0,1,0-2.469,0Z" transform="translate(-1271.9 -633)"/></g><g transform="translate(977.171 466.836)"><path class="a" d="M1337.9,635.548v24.94a1.236,1.236,0,0,0,2.469,0v-24.94a1.236,1.236,0,0,0-2.469,0Z" transform="translate(-1337.9 -634.375)"/></g><g transform="translate(172.108 702.671)"><path class="a" d="M361.035,923.369h112.1a1.236,1.236,0,0,0,0-2.469h-112.1a1.235,1.235,0,1,0,0,2.469Z" transform="translate(-359.8 -920.9)"/></g><g transform="translate(0 704.235)"><path class="a" d="M151.935,925.269h70.621a1.236,1.236,0,0,0,0-2.469H151.935a1.235,1.235,0,0,0,0,2.469Z" transform="translate(-150.7 -922.8)"/></g><g transform="translate(148.568 508.834)"><path class="a" d="M332.435,687.869h112.1a1.236,1.236,0,0,0,0-2.469h-112.1a1.235,1.235,0,0,0,0,2.469Z" transform="translate(-331.2 -685.4)"/></g><g transform="translate(212.439 511.118)"><path class="a" d="M408.8,689.348V715.11a1.236,1.236,0,0,0,2.469,0V689.348a1.236,1.236,0,0,0-2.469,0Z" transform="translate(-408.8 -688.175)"/></g><g transform="translate(190.051 536.819)"><path class="a" d="M382.835,721.869h87.412a1.236,1.236,0,0,0,0-2.469H382.835a1.235,1.235,0,0,0,0,2.469Z" transform="translate(-381.6 -719.4)"/></g><g transform="translate(257.298 539.103)"><path class="a" d="M463.3,723.348v27.985a1.236,1.236,0,0,0,2.469,0V723.348a1.236,1.236,0,0,0-2.469,0Z" transform="translate(-463.3 -722.175)"/></g><g transform="translate(860.787 711.478)"><path class="a" d="M1197.735,934.069h94.984a1.236,1.236,0,0,0,0-2.469h-94.984a1.235,1.235,0,1,0,0,2.469Z" transform="translate(-1196.5 -931.6)"/></g><g transform="translate(1064.151 702.507)"><path class="a" d="M1444.748,923.169h100.911a1.236,1.236,0,0,0,0-2.469H1444.748a1.236,1.236,0,0,0,0,2.469Z" transform="translate(-1443.575 -920.7)"/></g><g transform="translate(742.015 469.572)"><path class="a" d="M1052.2,638.935v47.492a1.236,1.236,0,0,0,2.469,0V638.935a1.235,1.235,0,1,0-2.469,0Z" transform="translate(-1052.2 -637.7)"/></g><g transform="translate(743.558 491.796)"><path class="a" d="M1055.248,667.169h44.529a1.236,1.236,0,0,0,0-2.469h-44.529a1.236,1.236,0,0,0,0,2.469Z" transform="translate(-1054.075 -664.7)"/></g><g transform="translate(786.544 475.499)"><path class="a" d="M1106.3,646.135v44.529a1.236,1.236,0,0,0,2.469,0V646.135a1.235,1.235,0,1,0-2.469,0Z" transform="translate(-1106.3 -644.9)"/></g><g transform="translate(756.913 522.991)"><path class="a" d="M1071.535,705.069h69.715a1.236,1.236,0,0,0,0-2.469h-69.715a1.235,1.235,0,1,0,0,2.469Z" transform="translate(-1070.3 -702.6)"/></g><g transform="translate(805.887 527.435)"><path class="a" d="M1129.8,709.235v34.158a1.236,1.236,0,0,0,2.469,0V709.235a1.235,1.235,0,1,0-2.469,0Z" transform="translate(-1129.8 -708)"/></g><g transform="translate(618.058 62.699)"><path class="a" d="M901.6,144.548v77.288a1.236,1.236,0,0,0,2.469,0V144.548a1.236,1.236,0,0,0-2.469,0Z" transform="translate(-901.6 -143.375)"/></g><g transform="translate(619.436 61.238)"><path class="a" d="M904.448,144.069h121.406a1.236,1.236,0,0,0,0-2.469H904.448a1.236,1.236,0,0,0,0,2.469Z" transform="translate(-903.275 -141.6)"/></g><g transform="translate(740.945 62.287)"><path class="a" d="M1050.9,144.048v76.465a1.236,1.236,0,0,0,2.469,0V144.048a1.236,1.236,0,0,0-2.469,0Z" transform="translate(-1050.9 -142.875)"/></g><g transform="translate(619.189 140.748)"><path class="a" d="M904.148,240.669h122.8a1.236,1.236,0,0,0,0-2.469h-122.8a1.236,1.236,0,0,0,0,2.469Z" transform="translate(-902.975 -238.2)"/></g><g transform="translate(670.276 47.161)"><path class="a" d="M967.888,138.492a18.161,18.161,0,0,1-.082-6.667c.412-1.975,1.4-5.926,3.7-3.457,1.152,1.235,1.235,3.951,1.564,5.515.412,2.058.823,4.2,1.235,6.255.329,1.564,2.716.905,2.387-.658-.741-3.622-1.07-7.655-2.469-11.112-.741-1.811-2.14-3.951-4.362-3.868-2.469.082-3.457,2.716-4.033,4.774a19.442,19.442,0,0,0-.329,9.712c.247,1.728,2.634,1.07,2.387-.494Z" transform="translate(-965.042 -124.497)"/></g><g transform="translate(625.219 71.526)"><path class="a" d="M910.3,155.335v60a1.236,1.236,0,0,0,2.469,0v-60a1.235,1.235,0,1,0-2.469,0Z" transform="translate(-910.3 -154.1)"/></g><g transform="translate(625.939 70.127)"><path class="a" d="M912.348,154.869h106.59a1.236,1.236,0,0,0,0-2.469H912.348a1.236,1.236,0,0,0,0,2.469Z" transform="translate(-911.175 -152.4)"/></g><g transform="translate(733.866 69.53)"><path class="a" d="M1042.3,152.848V216.8a1.236,1.236,0,0,0,2.469,0V152.848a1.236,1.236,0,0,0-2.469,0Z" transform="translate(-1042.3 -151.675)"/></g><g transform="translate(627.256 132.106)"><path class="a" d="M913.948,230.169h105.932a1.236,1.236,0,0,0,0-2.469H913.948a1.236,1.236,0,0,0,0,2.469Z" transform="translate(-912.775 -227.7)"/></g><g transform="translate(625.494 104.943)"><path class="a" d="M912.17,202.848c16.132-4.362,32.265-8.149,48.809-3.457,13.663,3.951,26.174,11.276,40.331,13.663,1.564.247,2.222-2.14.658-2.387-15.062-2.552-28.232-10.7-42.965-14.322-16.05-3.951-31.936-.082-47.41,4.115a1.228,1.228,0,1,0,.576,2.387Z" transform="translate(-910.635 -194.699)"/></g><g transform="translate(682.485 105.035)"><path class="a" d="M981.048,202.7c15.227-1.729,30.372-7.737,45.764-4.527,1.564.329,2.222-2.058.659-2.387-15.721-3.292-30.948,2.634-46.422,4.362-1.564.247-1.564,2.8,0,2.552Z" transform="translate(-979.875 -194.811)"/></g><g transform="translate(682.266 84.936)"><g transform="translate(0 0)"><path class="a" d="M983.635,180.852a4.748,4.748,0,0,1-.082-6.832,5.267,5.267,0,0,1,7.655.905,6.042,6.042,0,0,1-.905,7.9c-2.716,2.3-6.338.494-8.231-1.893-.905-1.235-3.128,0-2.14,1.235,2.634,3.539,7.49,5.844,11.441,2.963a8.585,8.585,0,0,0,1.482-11.935,7.836,7.836,0,0,0-10.7-1.235,7.305,7.305,0,0,0-.329,10.782c1.234.905,2.963-.823,1.811-1.893Z" transform="translate(-979.609 -170.391)"/></g></g></g><g transform="translate(906.872 673.417)"><path class="c" d="M1103.565,847.162c2.634-5.432,7-12.1,14.075-14.075,10.865-3.045,18.6,7.819,34.817,15.721,29.3,14.322,54.818,3.622,57.2,11.606,1.893,6.338-13.334,16.626-23.211,21.565-19.837,9.877-57.287,17.861-74.572-3.292C1109.327,875.559,1102.248,865.764,1103.565,847.162Z" transform="translate(-1075.415 -808.818)"/><path class="c" d="M1075.162,852.759a20.819,20.819,0,0,1-5.762-10.782c6.173-20.66,19.013-36.381,33.994-38.109,9.63-1.07,19.1,3.7,26.5,7.49,12.1,6.091,12.346,10.124,24.034,17.367,19.672,12.264,33.664,10.042,34.817,16.544,1.07,6.091-9.959,14.486-20.742,18.273-21.647,7.572-28.479-8.149-62.143-6.667C1093.928,857.45,1082.816,860,1075.162,852.759Z" transform="translate(-1069.4 -803.715)"/></g><g transform="translate(721.72 534.961)"><path class="d" d="M886.881,688.672c1.646,10.206,4.2,26.75,6.832,47.163,10.042,76.712,6.009,87.906,18.026,103.874,27.738,36.874,89.552,30.619,94.408,30.043,35.228-4.033,59.1-22.553,68.646-30.866-5.432-9.466-10.865-18.849-16.3-28.314-27.162.247-54.324.576-81.568.823A248.391,248.391,0,0,0,960.547,635.5a415.1,415.1,0,0,0-76.383,12.84c-13.581,3.622-26.174,7.737-37.78,12.017-.576,15.556-1.317,37.7-1.728,64.366-1.4,100.911,4.362,121.653,18.849,132.188,7.078,5.1,19.425,5.515,43.788,6.008,42.389.905,78.276-10.206,120.171-23.211,9.465-2.963,17.12-5.515,21.812-7.079-2.387-18.849-4.856-37.615-7.243-56.464q-25.063,6.79-52.266,12.922-26.051,5.8-50.62,10.289" transform="translate(-844.453 -635.5)"/><g transform="translate(32.621 63.783)"><path class="e" d="M884.92,715.385c8.56,3.21,10.042,13.992,10.865,21.894,1.152,10.618,1.811,21.236,2.469,31.936,1.317,20.824,2.716,41.731,7.9,61.979a1.238,1.238,0,0,0,2.387-.658c-5.926-23.129-6.832-47-8.4-70.621-.658-10.124-.905-20.577-3.045-30.537-1.482-6.914-4.527-13.663-11.523-16.3-1.481-.576-2.14,1.811-.658,2.3Z" transform="translate(-884.085 -712.992)"/></g><g transform="translate(72.139 206.515)"><path class="e" d="M932.511,888.458c6.338,5.515,12.511,11.935,19.589,16.626,6.832,4.527,15.063,6.173,23.047,7.655,1.564.329,2.222-2.058.658-2.387-7.737-1.482-15.721-2.963-22.47-7.408-6.832-4.527-12.84-10.782-19.1-16.215-1.152-1.07-2.963.741-1.728,1.729Z" transform="translate(-932.097 -886.402)"/></g><g transform="translate(132.639 164.945)"><path class="e" d="M1006.835,838.369a80.477,80.477,0,0,1,26.092,4.856c1.482.576,2.14-1.811.659-2.387a82.683,82.683,0,0,0-26.75-4.939c-1.646-.082-1.646,2.387,0,2.469Z" transform="translate(-1005.6 -835.898)"/></g><path class="f" d="M845.818,730.084c.494-7.655,5.762-14.486,12.84-17.614,7.408-3.21,16.626-1.07,22.306,3.457,9.877,7.737,9.054,22.306,9.465,39.92.741,32.183,1.646,70.786,20.577,96.548,4.362,5.926,12.264,14.733,26.586,22.306a77.022,77.022,0,0,1-37.368,7.737c-7.243-.411-26.75-1.646-40.743-15.886-6.832-6.914-12.758-17.449-14.569-68.234C844.337,780.951,844.172,757.657,845.818,730.084Z" transform="translate(-844.462 -648.845)"/><path class="g" d="M1009.169,822l61.485-15.8c1.235,11.359,2.387,22.8,3.622,34.158A310.205,310.205,0,0,0,1043,833.526a298.56,298.56,0,0,0-36.3-3.622Z" transform="translate(-873.156 -665.699)"/></g><g transform="translate(652.927 340.921)"><path class="h" d="M836.7,414.772c-.247-5.762.412-12.1,4.2-14.239,13.581-7.572,63.213,41.237,87.577,95.314,9.548,21.236,21.236,56.711,18.684,105.355q-56.546,10.371-113.01,20.824a242.24,242.24,0,0,0-33.994-44.447c-16.709-17.285-23.047-18.6-30.207-31.2-15.309-27-7.078-57.7-5.021-65.436,2.716-10.042,8.642-31.607,29.22-48.315A83.511,83.511,0,0,1,836.7,414.772Z" transform="translate(-760.873 -399.754)"/><path class="i" d="M851.3,429.223c9.795,6.749,43.953,31.854,57.781,79.84,15.063,52.513-4.939,95.4-9.877,105.191,21.565-3.622,43.212-7.161,64.777-10.782A231.865,231.865,0,0,0,876.9,407C868.338,414.408,859.86,421.816,851.3,429.223Z" transform="translate(-776.871 -401.036)"/><path class="j" d="M949.666,502.8a269.085,269.085,0,0,1,3.7,33.993c1.152,25.269,2.058,43.295-6.832,61.732-3.457,7.243-11.112,20.083-27.738,31.771,18.849-3.457,37.615-6.832,56.464-10.289a225.241,225.241,0,0,0-25.6-117.208Z" transform="translate(-788.812 -417.984)"/></g><g transform="translate(547.973 245.347)"><path class="k" d="M658.7,398.4c5.762,8.4,10.947,15.309,15.145,20.577,10.289,13.087,14.239,16.462,19.754,17.614a28.138,28.138,0,0,0,11.77-.412c7.326-1.482,10.289-4.445,15.145-6.749,6.42-2.963,8.972-1.482,29.8-1.235,15.063.165,13.416-.658,26.915-.412,11.852.247,21.647.988,28.561,1.646-1.975-1.564-3.951-3.045-5.844-4.609A31.985,31.985,0,0,1,776.4,397.9a12.266,12.266,0,0,0,6.749-4.609c4.116-6.091-.165-14.4-1.646-17.2-1.811-3.457-5.1-9.712-9.63-9.219-3.375.329-6.585,4.28-7.572,9.63-7.737,2.469-19.425,4.774-31.524.823-22.8-7.49-27.491-31.2-39.92-31.524C684.792,345.718,673.351,355.1,658.7,398.4Z" transform="translate(-637.844 -294.634)"/><g transform="translate(18.51 98.125)"><path class="b" d="M655.973,404.7a105.5,105.5,0,0,0,28.808,38.521c1.235.988,2.963-.741,1.728-1.729a104.534,104.534,0,0,1-28.479-38.027c-.576-1.4-2.716-.165-2.058,1.235Z" transform="translate(-655.849 -402.852)"/></g><g transform="translate(58.111 116.218)"><path class="b" d="M703.993,426.37c.741,4.2,1.646,8.313,2.716,12.429.988,3.539,1.728,7.819,3.539,11.029,2.552,4.527,10.7-1.07,13.334-3.128,1.235-.988-.494-2.716-1.729-1.729-1.811,1.4-5.432,4.2-7.9,3.869-2.716-.329-3.375-5.679-4.033-7.737a137.632,137.632,0,0,1-3.539-15.309c-.329-1.646-2.716-.988-2.387.576Z" transform="translate(-703.962 -424.835)"/></g><g transform="translate(38.312 106.213)"><path class="b" d="M688.461,424.713c-3.128-2.634-7.161-6.009-5.679-10.618a19.215,19.215,0,0,0-2.058.576,29.927,29.927,0,0,1,7.243,11.029c.247-.494.576-.988.823-1.482a19,19,0,0,0-1.564-1.152,1.238,1.238,0,0,0-2.387.659,3.813,3.813,0,0,0,4.609,2.881,1.151,1.151,0,0,0,.823-1.482,32.837,32.837,0,0,0-7.9-12.1,1.244,1.244,0,0,0-2.058.576c-1.728,5.515,2.387,9.795,6.338,13,1.235.823,3.046-.905,1.811-1.893Z" transform="translate(-679.907 -412.679)"/></g><g transform="translate(38.944 107.261)"><path class="b" d="M680.86,415.8l5.926,9.136c.823,1.317,2.963.082,2.14-1.235L683,414.568a1.235,1.235,0,0,0-2.14,1.235Z" transform="translate(-680.675 -413.952)"/></g><g transform="translate(69.595 93.957)"><path class="b" d="M724.652,409.486a18.686,18.686,0,0,1-3.786-5.926,5.982,5.982,0,0,1-.329-2.058c.165-1.07.411-1.152.905-.329.823.329,1.564,1.893,2.058,2.634a21.775,21.775,0,0,1,2.8,5.515c.329,1.07.741,1.235-.412.741a10.079,10.079,0,0,1-2.8-2.469c-1.07-1.235-2.8.576-1.728,1.728,1.317,1.482,5.6,5.844,7.326,2.469,1.564-3.045-2.3-8.4-4.033-10.618-1.482-1.893-5.021-5.679-6.42-1.482s2.14,8.56,4.609,11.441c1.07,1.317,2.8-.412,1.811-1.646Z" transform="translate(-717.915 -397.789)"/></g><g transform="translate(70.715 95.955)"><path class="b" d="M719.46,402.014l5.679,9.136c.823,1.317,2.963.082,2.14-1.235a85.692,85.692,0,0,1-4.609-8.56l-1.975,1.482a16.745,16.745,0,0,1,4.2,6.42c.576,1.482,2.963.823,2.387-.658a19.646,19.646,0,0,0-4.856-7.49,1.253,1.253,0,0,0-1.975,1.482,77.491,77.491,0,0,0,4.609,8.56c.741-.412,1.4-.823,2.14-1.235l-5.679-9.136c-.741-1.317-2.881-.082-2.058,1.235Z" transform="translate(-719.275 -400.216)"/></g><g transform="translate(135.688 109.382)"><path class="b" d="M799.355,417.987a24.5,24.5,0,0,1-.988,20.248c-.741,1.4,1.4,2.634,2.14,1.235a27.019,27.019,0,0,0,1.235-22.141c-.576-1.4-2.963-.823-2.387.658Z" transform="translate(-798.213 -416.529)"/></g><path class="l" d="M642.118,334.227c-1.317,1.811-13.252,18.52-6.914,39.508,6.255,20.742,24.94,28.15,27.08,28.973a55.625,55.625,0,0,1,3.7-31.689,56.4,56.4,0,0,1,24.857-27.08,58.3,58.3,0,0,0,69.386,21.647c.905-1.482,4.362-6.585,8.725-6.42,6.255.247,12.429,11.606,8.725,19.343-2.3,4.856-7.737,6.5-9.219,6.914a39.422,39.422,0,0,0,6.914,14.239c6.914,9.136,15.968,12.676,21.153,14.733,5.1,1.975,46.834,17.861,71.691-8.313,13.416-14.075,19.836-38.191,11.029-54.735-7.161-13.334-19.754-13.416-53.748-28.479-40.743-18.108-35.146-23.623-59.262-31.277-12.593-4.033-58.933-18.766-95.149,6.42C654.546,309.452,646.151,324.926,642.118,334.227Z" transform="translate(-633.361 -283.637)"/></g><g transform="translate(538.677 384.817)"><path class="h" d="M622.176,503.964c-.329-4.774-.494-18.52,8.478-31.113C644.4,453.591,668.1,453.18,672.138,453.1c7.161-.165,16.626,1.07,38.521,13.087a276.329,276.329,0,0,1,54.571,39.261,51.961,51.961,0,0,1,22.964,6.667c9.548,5.432,27.244,19.754,23.458,35.146-2.14,8.725-10.947,17.2-19.343,16.791-13.5-.659-22.223-23.87-25.022-22.47-2.222,1.07,4.527,14.9,1.564,16.791-2.716,1.728-13.416-6.585-18.355-17.861a39.072,39.072,0,0,1-2.552-22.47c-19.754-9.3-52.348-20.989-92.68-18.931A192.984,192.984,0,0,0,622.176,503.964Z" transform="translate(-622.067 -453.084)"/><path class="m" d="M622.4,505.5c2.963-15.968,9.959-23.293,13.992-26.5,25.269-20.413,73.173,4.2,87.412,11.441A175.422,175.422,0,0,1,759.28,514.8c12.182,10.782,9.136,11.441,25.763,27.244,11.441,10.865,19.589,17.038,17.943,21.483-1.4,3.622-8.313,3.951-8.972,3.951-16.05.576-27.08-24.281-27.573-25.433,3.951,14.4,3.21,18.766,1.4,19.672-3.457,1.811-13.663-7.737-17.943-19.013a39.153,39.153,0,0,1-1.4-21.894,213.8,213.8,0,0,0-46.175-14.651A219.78,219.78,0,0,0,622.4,505.5Z" transform="translate(-622.126 -456.266)"/></g><g transform="translate(391.695 431.088)"><path class="h" d="M536.178,523.1c-2.634,14.075-5.926,43.788,7.49,76.218,25.187,60.991,87.659,78.934,96.055,81.157.247,9.63.576,19.343.823,28.973a230.527,230.527,0,0,0-60.5,41.4C563.34,766.817,534.2,795.3,522.926,841.965a167.787,167.787,0,0,0-.823,73.749l298.205,4.939c3.21-18.766,6.749-56.135-9.136-97.7-28.4-74.325-96.3-103.215-109.306-108.483-.247-13-.576-25.927-.823-38.932,12.758-2.8,42.307-11.029,67.082-37.286,41.319-43.706,35.064-100.911,33.994-109.306Q669.025,525.981,536.178,523.1Z" transform="translate(-456.745 -511.741)"/><g transform="translate(94.706 88.141)"><path class="b" d="M559.168,631.048a77.494,77.494,0,0,0,26.174,9.136c6.749.905,13.169.329,19.919-.412,8.56-.988,17.038-1.728,25.516-3.21,8.642-1.482,16.873-4.033,25.433-5.926a15.588,15.588,0,0,1,6.749-.247c4.527.905,7.161,3.7,10.618,6.338,4.774,3.622,10.947,3.375,15.886.412,2.634-1.646,5.021-3.7,7.655-5.268a28.419,28.419,0,0,1,12.676-3.786,57.631,57.631,0,0,1,14.569.905c5.679,1.07,10.7,3.375,16.133,5.1,10.7,3.457,13.992-7.984,22.306-11.852,9.959-4.692,23.7-4.2,34.158-1.975,1.564.329,2.222-2.058.658-2.387a69.726,69.726,0,0,0-27.08-.329,30.152,30.152,0,0,0-10.947,3.622c-3.869,2.387-6.091,6.009-9.383,8.972-4.774,4.28-10.289.988-15.31-.905a63.269,63.269,0,0,0-14.157-3.292c-8.066-.988-16.626-.658-23.952,3.292-6.009,3.292-11.194,9.877-18.766,7.078-3.292-1.235-5.35-4.28-8.313-6.008a18.686,18.686,0,0,0-8.066-2.634c-5.35-.412-10.865,1.893-16.05,3.21a215.029,215.029,0,0,1-29.961,5.185c-7.9.823-16.05,2.3-24.034,2.058-11.029-.329-21.565-4.033-31.113-9.3-1.482-.741-2.716,1.4-1.317,2.222Z" transform="translate(-558.555 -616.385)"/></g><g transform="translate(184.124 186.335)"><path class="b" d="M667.281,737.179c1.317,3.128,2.634,6.42,4.856,9.054,1.4,1.729,3.539,3.045,4.445,5.268.905,2.3.905,5.35,1.235,7.819,1.07,8.478,2.222,16.956,5.762,24.857.658,1.482,2.8.165,2.14-1.235-3.869-8.478-4.609-17.7-5.844-26.833-.412-2.963-.576-6.009-2.716-8.313a36.478,36.478,0,0,1-7.49-11.276c-.576-1.482-2.963-.823-2.387.658Z" transform="translate(-667.192 -735.685)"/></g><g transform="translate(213.003 194.186)"><path class="b" d="M727.318,746.027c-3.622-2.8-6.42,2.387-7.737,5.186a37.242,37.242,0,0,0-2.963,8.149c-.741,3.21-.576,6.914-2.058,9.877-1.4,3.045-3.7,5.6-5.021,8.725a64.021,64.021,0,0,0-2.963,8.725c-1.893,7.408-2.963,15.063-4.28,22.553-.247,1.564,2.14,2.222,2.387.658,1.975-11.276,2.963-23.87,8.642-33.994,1.317-2.3,3.045-4.28,3.951-6.749a23.751,23.751,0,0,0,.988-5.268c.247-1.811,4.856-18.026,7.326-16.133,1.152.988,2.963-.741,1.728-1.729Z" transform="translate(-702.278 -745.223)"/></g><g transform="translate(207.918 283.145)"><path class="b" d="M699.8,862.107c-.741-1.317-1.482-2.881-1.152-4.362.494-2.3,3.045-2.634,3.869-.411.988,2.634-.576,5.679-2.387,7.408a9.079,9.079,0,0,1,1.482-.165c-.988-.741-1.975-1.482-2.881-2.14-1.317-.988-2.469,1.235-1.235,2.14.988.741,1.975,1.482,2.881,2.14a1.241,1.241,0,0,0,1.482-.165c2.963-2.881,5.679-10.618.494-12.923a4.48,4.48,0,0,0-5.515,2.058c-1.482,2.469-.494,5.432.823,7.737.741,1.317,2.881.082,2.14-1.317Z" transform="translate(-696.101 -853.303)"/></g><g transform="translate(201.431 312.339)"><path class="b" d="M691.907,896.7c-.576-1.152-1.482-2.716-1.235-4.115.165-.823,1.235-1.975,2.058-1.235.823.658.905,2.634.658,3.539-.247.823-1.646,2.222-2.387,1.152-.905-1.235-3.045,0-2.14,1.235a3.791,3.791,0,0,0,5.762.411c1.893-1.811,1.728-5.432.329-7.49s-4.115-1.729-5.6,0c-2.14,2.3-.823,5.515.411,7.9.741,1.235,2.881,0,2.14-1.4Z" transform="translate(-688.219 -888.772)"/></g><g transform="translate(214.222 324.76)"><path class="b" d="M706.591,909.161c-1.07-.823,0-3.539,1.482-2.716a2,2,0,0,1,.905,2.058c-.247,1.07-1.646.905-2.222.329-1.152-1.152-2.881.659-1.729,1.729,1.729,1.646,4.939,1.646,6.091-.658a4.508,4.508,0,0,0-1.564-5.432,3.6,3.6,0,0,0-5.185,1.4,4.013,4.013,0,0,0,1.07,5.432c1.152.905,2.387-1.235,1.152-2.14Z" transform="translate(-703.76 -903.863)"/></g><g transform="translate(133.954 357.031)"><path class="b" d="M608.429,991.41l20.495-16.544c3.292-2.634,6.42-5.432,9.959-7.737s7.408-3.375,11.359-4.856c12.346-4.774,23.211-25.269,37.368-12.429,4.609,4.115,8.4,7.737,14.4,9.712,6.832,2.222,13.581,3.539,20.083,6.749a69.364,69.364,0,0,1,29.549,28.232c.741,1.4,2.881.165,2.14-1.235a71.428,71.428,0,0,0-21.4-23.787,68.4,68.4,0,0,0-13.828-7.573c-5.6-2.3-11.441-3.21-17.12-5.268-10.206-3.7-15.474-16.709-27.9-12.922-5.021,1.564-9.054,4.939-12.922,8.4a54.281,54.281,0,0,1-7.243,5.762c-3.375,2.14-7.243,2.881-10.865,4.445-5.762,2.469-10.536,6.832-15.392,10.7L606.619,989.6c-1.152,1.07.576,2.8,1.811,1.811Z" transform="translate(-606.24 -943.069)"/></g><g transform="translate(234.643 181.425)"><path class="b" d="M736.743,730.609c-.905,6.667-1.893,13.252-2.8,19.919-.823,6.009-.905,13.087-3.622,18.684a13.161,13.161,0,0,1,1.728-.411c-2.3-1.564-.741-9.3-.741-11.605.082-4.033.165-7.984.247-12.017a1.236,1.236,0,0,0-2.469,0c-.165,5.844-.247,11.688-.412,17.614-.082,2.963-.658,6.255,2.058,8.149a1.317,1.317,0,0,0,1.728-.411c2.634-5.432,2.881-11.77,3.7-17.7.988-7.161,2.058-14.322,3.045-21.483.082-1.646-2.3-2.3-2.469-.741Z" transform="translate(-728.57 -729.72)"/></g><g transform="translate(182.492 170.967)"><path class="b" d="M665.778,717.908a31.347,31.347,0,0,0,2.8,20.083c.741,1.4,2.8.165,2.14-1.235a29,29,0,0,1-2.552-18.19c.247-1.564-2.14-2.222-2.387-.659Z" transform="translate(-665.21 -717.014)"/></g><g transform="translate(137.227 134.568)"><path class="b" d="M610.779,675.185c14.98,10.947,33.5,15.145,49.138,24.775,1.317.823,2.634-1.317,1.235-2.14-15.721-9.63-34.24-13.828-49.138-24.775-1.317-.988-2.552,1.152-1.235,2.14Z" transform="translate(-610.216 -672.791)"/></g><g transform="translate(185.216 147.395)"><path class="b" d="M669.079,690.7a32.735,32.735,0,0,1,14.816,19.919,1.238,1.238,0,0,0,2.387-.659,34.851,34.851,0,0,0-15.886-21.4,1.258,1.258,0,0,0-1.317,2.14Z" transform="translate(-668.519 -688.375)"/></g><g transform="translate(226.041 149.748)"><path class="b" d="M720.573,722.319c3.951-10.865,9.136-21.812,18.766-28.726,1.317-.905.082-3.045-1.235-2.14-10.206,7.408-15.721,18.6-19.919,30.207-.494,1.564,1.893,2.14,2.387.659Z" transform="translate(-718.119 -691.234)"/></g><g transform="translate(152.187 378.672)"><path class="b" d="M630.456,990.3a61.945,61.945,0,0,1,31.277-18.52c1.564-.329.905-2.716-.659-2.387a63.581,63.581,0,0,0-32.347,19.1c-1.07,1.317.658,3.045,1.728,1.811Z" transform="translate(-628.391 -969.362)"/></g><g transform="translate(171.333 381.707)"><path class="b" d="M653.5,983.215l17.779-7.9c1.482-.658.165-2.8-1.235-2.14l-17.779,7.9c-1.4.658-.165,2.8,1.235,2.14Z" transform="translate(-651.652 -973.049)"/></g><g transform="translate(221.942 359.073)"><path class="b" d="M713.518,947.649c7.243,6.667,18.931,4.362,25.6,11.606,1.07,1.152,2.8-.576,1.728-1.728-6.832-7.408-18.355-5.021-25.6-11.606-1.152-1.152-2.881.658-1.729,1.728Z" transform="translate(-713.138 -945.55)"/></g><g transform="translate(58.28 397.881)"><path class="b" d="M521.461,1007.516H820.654c9.548,0,9.548-14.816,0-14.816H521.461c-9.548,0-9.548,14.816,0,14.816Z" transform="translate(-514.3 -992.7)"/></g><g transform="translate(69.968 1.646)"><path class="b" d="M535.661,526.116H805.223c9.548,0,9.548-14.816,0-14.816H535.661c-9.548,0-9.548,14.816,0,14.816Z" transform="translate(-528.5 -511.3)"/></g><g transform="translate(32.6 1.646)"><path class="b" d="M507.546,511.3H490.261c-9.548,0-9.548,14.816,0,14.816h17.285c9.548,0,9.548-14.816,0-14.816Z" transform="translate(-483.1 -511.3)"/></g><g transform="translate(0)"><path class="b" d="M450.907,524.116h6.667c3.869,0,7.573-3.375,7.408-7.408a7.539,7.539,0,0,0-7.408-7.408h-6.667c-3.869,0-7.572,3.375-7.408,7.408a7.539,7.539,0,0,0,7.408,7.408Z" transform="translate(-443.494 -509.3)"/></g><g transform="translate(374.675 396.811)"><path class="b" d="M905.861,1006.216h35.146c9.548,0,9.548-14.816,0-14.816H905.861c-9.548,0-9.548,14.816,0,14.816Z" transform="translate(-898.7 -991.4)"/></g><g transform="translate(434.756 398.457)"><path class="b" d="M979.107,1008.216h6.173c3.869,0,7.572-3.375,7.408-7.408a7.539,7.539,0,0,0-7.408-7.408h-6.173c-3.869,0-7.573,3.375-7.408,7.408a7.483,7.483,0,0,0,7.408,7.408Z" transform="translate(-971.694 -993.4)"/></g><g transform="translate(182.362 166.964)"><path class="b" d="M665.668,714.5c-.576,5.679-1.07,11.441.082,17.038,1.235,5.926,4.939,10.124,7.655,15.392,3.128,5.926,4.033,13.087,5.515,19.507l4.692,20.495c.741,3.128,5.432,1.811,4.774-1.317-1.482-6.585-3.046-13.169-4.527-19.754-1.4-6.091-2.387-12.511-4.692-18.273-2.058-5.185-6.255-9.383-7.984-14.733-1.893-5.926-1.152-12.346-.576-18.355.329-3.128-4.609-3.128-4.938,0Z" transform="translate(-665.052 -712.15)"/></g><g transform="translate(170.5 162.283)"><path class="b" d="M651.924,711.02A23.069,23.069,0,0,0,666,713c3.128-.494,1.811-5.268-1.317-4.774a17.04,17.04,0,0,1-10.289-1.482c-2.881-1.4-5.35,2.881-2.469,4.28Z" transform="translate(-650.64 -706.463)"/></g><g transform="translate(210.611 194.764)"><path class="b" d="M721.536,746.4c-3.951,2.8-5.926,6.832-6.832,11.441-.658,3.128-.823,6.338-1.729,9.466a53.656,53.656,0,0,1-3.869,8.972c-5.515,11.112-11.029,22.882-9.466,35.557.412,3.128,5.35,3.128,4.939,0-1.482-11.935,3.622-22.717,8.807-33.088,2.222-4.445,4.28-8.807,5.1-13.663.905-5.021.988-11.194,5.515-14.4,2.634-1.893.165-6.173-2.469-4.28Z" transform="translate(-699.372 -745.926)"/></g><g transform="translate(182.361 300.592)"><path class="b" d="M667.4,879.439c3.21,0,3.21-4.939,0-4.939-3.128,0-3.128,4.939,0,4.939Z" transform="translate(-665.05 -874.5)"/></g><g transform="translate(173.41 341.335)"><path class="b" d="M656.582,928.938c3.21,0,3.21-4.939,0-4.939s-3.21,4.939,0,4.939Z" transform="translate(-654.175 -924)"/></g><g transform="translate(201.22 248.742)"><path class="b" d="M687.993,814.629c.247,1.646.494,3.375.741,5.021.165,1.317,1.893,2.058,3.045,1.728a2.6,2.6,0,0,0,1.729-3.045c-.247-1.646-.494-3.375-.741-5.021-.165-1.317-1.893-2.058-3.045-1.728a2.6,2.6,0,0,0-1.728,3.045Z" transform="translate(-687.963 -811.505)"/></g><g transform="translate(214.091 270.463)"><path class="b" d="M703.6,840.368v.576a2.476,2.476,0,0,0,2.469,2.469,2.532,2.532,0,0,0,2.469-2.469v-.576a2.476,2.476,0,0,0-2.469-2.469,2.532,2.532,0,0,0-2.469,2.469Z" transform="translate(-703.6 -837.895)"/></g><g transform="translate(279.026 87.563)"><path class="b" d="M785.462,635.534c7.9-2.963,14.157-8.725,21.73-12.264,9.3-4.28,19.1.905,28.314-2.634,2.963-1.152,1.646-5.926-1.317-4.774-5.021,1.893-10.124.823-15.392.494a27.027,27.027,0,0,0-12.511,1.893c-7.9,3.21-14.239,9.465-22.223,12.511-2.8,1.152-1.564,5.926,1.4,4.774Z" transform="translate(-782.492 -615.684)"/></g><g transform="translate(293.557 253.058)"><path class="b" d="M803.647,816.873c-7.49,3.21-1.152,11.112,2.3,14.569a150.473,150.473,0,0,1,18.931,23.211,154.248,154.248,0,0,1,22.306,53.418c.329,1.564,2.716.905,2.387-.658A159.421,159.421,0,0,0,831.962,861.4a146.034,146.034,0,0,0-13.5-19.672c-2.552-3.128-5.185-6.173-7.984-9.136-2.469-2.552-12.346-10.7-5.6-13.581,1.482-.659.165-2.8-1.235-2.14Z" transform="translate(-800.146 -816.749)"/></g><g transform="translate(305.77 257.415)"><path class="b" d="M815.409,824.147c24.94,20.742,35.064,52.431,44.2,82.391.494,1.482,2.881.905,2.387-.658-9.3-30.372-19.59-62.473-44.859-83.544-1.235-.988-2.963.741-1.729,1.811Z" transform="translate(-814.984 -822.043)"/></g><g transform="translate(341.451 350.814)"><path class="b" d="M858.553,937.314c1.564,2.222,3.457,4.856,6.42,5.1,2.3.165,4.774-1.152,5.1-3.622.247-1.564-2.14-2.222-2.387-.658a2.358,2.358,0,0,1-3.292,1.646c-1.646-.576-2.8-2.3-3.7-3.7-.905-1.317-3.045-.082-2.14,1.235Z" transform="translate(-858.334 -935.516)"/></g><g transform="translate(342.371 372.861)"><path class="b" d="M863.607,976.787a7.941,7.941,0,0,0,10.289-3.21,7.719,7.719,0,1,0-10.782,2.963c1.317.905,2.552-1.235,1.235-2.14a5.239,5.239,0,0,1,5.268-9.054,5.229,5.229,0,0,1-4.774,9.3c-1.4-.659-2.716,1.481-1.234,2.14Z" transform="translate(-859.452 -962.302)"/></g><g transform="translate(94.412 27.882)"><path class="b" d="M558.2,544.348A147.863,147.863,0,0,0,602.07,646.082c1.152,1.152,2.881-.659,1.729-1.729a144.938,144.938,0,0,1-43.13-100.005c-.082-1.564-2.552-1.564-2.469,0Z" transform="translate(-558.198 -543.175)"/></g><g transform="translate(86.965 26.39)"><path class="b" d="M559.233,542.957a5.392,5.392,0,0,0-7.49-.165c-3.046,2.552-2.716,7.161-2.387,10.783a143,143,0,0,0,6.173,31.689,150.7,150.7,0,0,0,31.442,55.229c1.07,1.152,2.8-.576,1.728-1.728a146.189,146.189,0,0,1-34.24-67.329c-.905-4.362-1.646-8.725-2.14-13.087-.247-2.058-.494-4.033-.576-6.091a14.308,14.308,0,0,1-.082-2.634c.082-1.975,2.222-8.56,5.844-4.856,1.152,1.07,2.881-.741,1.728-1.811Z" transform="translate(-549.15 -541.362)"/></g><path class="n" d="M804.067,530.258q.123,3.951-212.769,13a95.925,95.925,0,0,0,0,43.459c13.169,54.735,72.6,75.807,78.523,77.782.741,21.071,1.564,42.224,2.3,63.3a144.554,144.554,0,0,0-23.787,11.523,142.951,142.951,0,0,0-32.677,27.327c-7.326,8.4-30.866,35.393-32.759,76.3a117.144,117.144,0,0,0,11.441,55.641Q694.6,904.27,794.93,910.031q-136.55,1.111-273.019,2.3a185.1,185.1,0,0,1,9.136-93.009c2.716-7.161,25.269-64.942,85.437-97.618a181.782,181.782,0,0,1,23.623-10.7c-.247-10.206-.494-20.33-.741-30.537a143.224,143.224,0,0,1-34.323-13.746c-7.984-4.445-60.991-35.228-70.95-95.314a123,123,0,0,1,.741-43.459Q803.984,525.854,804.067,530.258Z" transform="translate(-456.965 -512.479)"/><path class="o" d="M684.323,528.4q-64.077,9.013-128.155,17.943a153.933,153.933,0,0,0,25.763,73.42c24.94,36.792,58.769,51.937,71.856,57.04.741,15.639,1.564,31.277,2.3,46.916-27.9,5.432-46.258,16.791-56.3,24.2-6.667,4.939-66.917,49.056-60.168,112.516,1.152,10.947,5.1,29.714,20.248,50.455-13,.165-25.927.329-38.932.412-2.634-20.166-5.021-61.732,16.544-104.615,16.462-32.594,40-52.6,53.665-63.954a238.049,238.049,0,0,1,48.727-31.277c.411-10.124.905-20.248,1.317-30.372-16.379-3.457-49.056-12.922-74.243-42.06a125.576,125.576,0,0,1-14.322-20.577c-18.273-32.43-19.507-66.341-17.779-88.482Q609.792,529.1,684.323,528.4Z" transform="translate(-456.898 -512.679)"/></g><g transform="translate(528.949 373.69)"><path class="h" d="M654.079,477.374c-25.763,18.766-45.6,41.9-43.706,44.2.905,1.152,5.926-.329,24.528-12.264-3.21,1.893-10.782,6.749-14.733,16.215-1.152,2.8-4.939,10.618-1.482,15.721,3.7,5.35,13.5,4.856,19.836,2.716,12.264-4.115,18.108-16.873,18.766-16.38.988.659-12.676,20.166-10.7,21.73,2.058,1.728,23.458-16.462,39.838-41.978a159.446,159.446,0,0,0,10.782-19.672,377.019,377.019,0,0,1,53.007,4.939c36.874,6.008,50.949,13.91,76.053,9.795,15.392-2.469,40.331-10.371,41.237-22.059,1.152-14.486-34.9-27.82-42.718-30.7-59.427-21.976-115.15-1.646-124.2,1.811A196.055,196.055,0,0,0,654.079,477.374Z" transform="translate(-610.248 -439.565)"/><g transform="translate(6.227 72.389)"><path class="b" d="M617.967,555.487a3.061,3.061,0,0,0,1.4,1.482,1.241,1.241,0,0,0,1.482-.165c8.149-9.712,15.227-20.989,26.833-27,1.4-.741.165-2.881-1.235-2.14-11.853,6.091-19.013,17.45-27.327,27.409a9.066,9.066,0,0,1,1.482-.165c-.165-.247-.329-.412-.494-.658-.741-1.4-2.881-.165-2.14,1.235Z" transform="translate(-617.813 -527.513)"/></g><g transform="translate(13.223 81.356)"><path class="b" d="M627.208,563.753c5.021,1.152,9.63-5.679,12.593-8.889,4.856-5.268,9.466-10.536,15.8-14.157a1.236,1.236,0,0,0-1.235-2.14,53.014,53.014,0,0,0-12.346,10.289c-1.893,2.058-3.7,4.115-5.679,6.173-1.811,1.975-5.6,7-8.478,6.338-1.564-.329-2.222,2.058-.658,2.387Z" transform="translate(-626.314 -538.408)"/></g><path class="p" d="M618.224,537.132c19.754-13.91,24.528-17.12,24.61-16.956.165.165-7.737,4.939-14.569,14.075a61.6,61.6,0,0,0-7.079,12.429,6.246,6.246,0,0,0,2.469,2.634,6.417,6.417,0,0,0,4.2.741,16.668,16.668,0,0,0,2.058-1.235,24.441,24.441,0,0,0,5.268-4.856c.329-.412,5.515-6.914,7.9-9.466a29.06,29.06,0,0,1,11.688-7.408c-4.856,7.408-9.795,14.9-14.651,22.306a36.645,36.645,0,0,0,10.371-7.408c2.058-2.058,2.716-3.292,6.42-7.9,3.457-4.28,6.009-7,7-8.149,8.642-9.877,21.565-33.417,29.8-41.319,17.614-17.038,46.011-3.128,102.063-2.716a332.25,332.25,0,0,0,67.9-6.5,12.692,12.692,0,0,1,5.021,6.832s1.235,4.527-1.893,10.206c-3.457,6.42-20.742,17.943-57.534,16.956-30.043-.823-39.179-9.054-79.428-13.581-13.5-1.482-24.61-1.893-31.689-2.058a159.01,159.01,0,0,1-20.33,35.228c-13.252,17.367-28.232,29.467-30.454,27.82a2.316,2.316,0,0,1-.823-1.235c-.576-1.646.659-3.539,1.317-4.527,1.235-1.975,2.8-4.609,4.774-8.4a25.111,25.111,0,0,1-6.585,5.762c-8.478,5.185-22.306,6.832-27,.082C618.389,547.667,616.249,544.21,618.224,537.132Z" transform="translate(-611.514 -445.905)"/><path class="q" d="M729.5,494.15c.082-.741,18.931-.247,39.755.823,54.077,2.8,68.234,6.749,89.141-.823a92.12,92.12,0,0,0,27.656-16.05c1.564,3.045,3.21,7.572,1.975,12.1-3.045,11.029-20.742,14.651-32.183,16.956-6.338,1.317-17.12,2.881-34.158,1.4-15.145-1.235-21.153-3.7-37.2-7.079C752.382,494.809,729.418,494.891,729.5,494.15Z" transform="translate(-631.345 -446.383)"/></g></g></svg>